<?xml version="1.0" encoding="utf-8"?>
<!-- Generator: Adobe Illustrator 27.9.0, SVG Export Plug-In . SVG Version: 6.00 Build 0)  -->
<svg version="1.1" id="Vrstva_1" xmlns="http://www.w3.org/2000/svg" xmlns:xlink="http://www.w3.org/1999/xlink" x="0px" y="0px"
	 viewBox="0 0 260.6 105.61" style="enable-background:new 0 0 260.6 105.61;" xml:space="preserve">
<g>
	<g>
		<circle cx="53.14" cy="73.74" r="1.28"/>
		<circle cx="61.24" cy="73.74" r="1.28"/>
		<circle cx="69.31" cy="73.79" r="1.28"/>
		<circle cx="81.49" cy="66.75" r="1.28"/>
		<circle cx="85.41" cy="59.77" r="1.28"/>
		<circle cx="89.45" cy="52.8" r="1.28"/>
		<circle cx="85.48" cy="45.76" r="1.28"/>
		<circle cx="81.47" cy="38.91" r="1.28"/>
		<circle cx="77.41" cy="73.79" r="1.28"/>
		<circle cx="49.12" cy="66.75" r="1.28"/>
		<circle cx="57.22" cy="66.74" r="1.99"/>
		<circle cx="45.06" cy="59.79" r="1.28"/>
		<circle cx="53.17" cy="59.79" r="1.28"/>
		<circle cx="61.23" cy="59.85" r="1.99"/>
		<circle cx="41.01" cy="52.8" r="1.28"/>
		<circle cx="49.12" cy="52.8" r="1.28"/>
		<circle cx="57.18" cy="52.85" r="1.28"/>
		<path d="M63.3,52.85c0,1.09,0.89,1.99,1.99,1.99c1.09,0,1.97-0.89,1.99-1.99c0-1.09-0.89-1.99-1.99-1.99
			C64.19,50.86,63.3,51.75,63.3,52.85z"/>
		<circle cx="45.06" cy="45.84" r="1.28"/>
		<circle cx="53.17" cy="45.84" r="1.28"/>
		<path d="M61.23,47.89c1.09,0,1.97-0.89,1.99-1.99c0-1.09-0.89-1.99-1.99-1.99c-1.09,0-1.99,0.89-1.99,1.99
			S60.14,47.89,61.23,47.89z"/>
		<circle cx="53.07" cy="31.89" r="1.28"/>
		<circle cx="61.17" cy="31.89" r="1.28"/>
		<circle cx="69.22" cy="31.95" r="1.28"/>
		<path d="M73.08,41.57c0.09,0.01,0.2,0.01,0.29,0.01c0.64,0,1.24-0.22,1.75-0.62c0.57-0.46,0.93-1.13,1.01-1.87
			c0.15-1.53-0.96-2.89-2.49-3.06c-0.74-0.08-1.46,0.14-2.04,0.6c-0.57,0.46-0.93,1.13-1.01,1.87
			C70.44,40.05,71.56,41.42,73.08,41.57z"/>
		<path d="M62.8,40.34c0.37,0.65,0.96,1.1,1.68,1.3c0.23,0.06,0.48,0.09,0.72,0.09c0.49,0,0.96-0.13,1.39-0.37
			c0.65-0.37,1.1-0.96,1.3-1.68c0.19-0.72,0.09-1.46-0.28-2.11c-0.37-0.65-0.96-1.1-1.68-1.3c-0.72-0.19-1.48-0.09-2.11,0.28
			c-0.65,0.37-1.1,0.96-1.3,1.68C62.34,38.94,62.43,39.68,62.8,40.34z"/>
		<path d="M69.32,48.57c0.46,0,0.94-0.12,1.38-0.37c1.34-0.77,1.79-2.47,1.02-3.8c-0.37-0.65-0.96-1.1-1.68-1.3
			c-0.72-0.19-1.46-0.09-2.11,0.28c-0.65,0.37-1.1,0.96-1.3,1.68c-0.19,0.72-0.09,1.48,0.28,2.11
			C67.42,48.07,68.35,48.57,69.32,48.57z"/>
		<path d="M75.94,43.44c-1.34,0.77-1.79,2.47-1.02,3.8c0.37,0.65,0.96,1.1,1.68,1.3c0.23,0.06,0.48,0.09,0.72,0.09
			c0.48,0,0.95-0.13,1.39-0.37c0.65-0.37,1.1-0.96,1.3-1.68c0.19-0.72,0.09-1.48-0.28-2.11C78.97,43.12,77.26,42.67,75.94,43.44z"/>
		<path d="M73.27,55.68c0.48,0,0.95-0.13,1.39-0.37c1.34-0.77,1.79-2.47,1.02-3.8c-0.77-1.34-2.46-1.79-3.8-1.02
			c-0.65,0.37-1.1,0.96-1.3,1.68c-0.19,0.72-0.09,1.46,0.28,2.11s0.96,1.1,1.68,1.3C72.78,55.65,73.02,55.68,73.27,55.68z"/>
		<path d="M83.78,51.46c-0.37-0.65-0.96-1.1-1.68-1.3c-0.72-0.19-1.48-0.09-2.11,0.28c-0.65,0.37-1.1,0.96-1.3,1.68
			c-0.19,0.72-0.09,1.48,0.28,2.11c0.52,0.89,1.45,1.39,2.42,1.39c0.46,0,0.94-0.13,1.38-0.37C84.09,54.5,84.55,52.79,83.78,51.46z"
			/>
		<path d="M78.09,57.11c-0.72-0.19-1.48-0.09-2.11,0.28c-0.65,0.37-1.1,0.96-1.3,1.68c-0.19,0.72-0.09,1.48,0.28,2.11
			c0.52,0.89,1.45,1.39,2.42,1.39c0.48,0,0.95-0.12,1.38-0.37c1.34-0.77,1.79-2.47,1.02-3.8C79.4,57.76,78.81,57.31,78.09,57.11z"/>
		<path d="M68.6,62.43c0.23,0.06,0.48,0.09,0.72,0.09c0.48,0,0.95-0.12,1.39-0.37c0.65-0.37,1.1-0.96,1.3-1.68
			c0.19-0.72,0.09-1.48-0.28-2.11c-0.37-0.65-0.96-1.1-1.68-1.3c-0.72-0.19-1.48-0.09-2.11,0.28c-0.65,0.37-1.1,0.96-1.3,1.68
			c-0.19,0.72-0.09,1.46,0.28,2.11S67.88,62.23,68.6,62.43z"/>
		<path d="M63.76,64.33c-0.65,0.37-1.1,0.96-1.3,1.68c-0.19,0.72-0.09,1.48,0.28,2.11c0.52,0.89,1.45,1.39,2.42,1.39
			c0.46,0,0.94-0.12,1.38-0.37c1.34-0.77,1.79-2.47,1.02-3.8C66.8,64.02,65.09,63.57,63.76,64.33z"/>
		<path d="M71.92,64.33c-1.34,0.77-1.79,2.47-1.02,3.8c0.52,0.89,1.45,1.39,2.42,1.39c0.48,0,0.95-0.12,1.38-0.37
			c1.34-0.77,1.79-2.47,1.02-3.8C74.95,64.02,73.24,63.57,71.92,64.33z"/>
		<circle cx="77.34" cy="31.95" r="1.28"/>
		<circle cx="49.12" cy="38.85" r="1.28"/>
		<circle cx="57.22" cy="38.84" r="1.99"/>
	</g>
	<g>
		<g>
			<polygon points="102.27,72.42 103.42,72.42 103.42,68.54 107.95,68.54 107.95,67.48 103.42,67.48 103.42,64.7 108.29,64.7 
				108.29,63.63 102.27,63.63 			"/>
			<path d="M112.02,65.95c-0.95,0-1.74,0.32-2.38,0.95c-0.63,0.63-0.95,1.42-0.95,2.36c0,0.94,0.32,1.73,0.95,2.36
				c0.63,0.62,1.43,0.94,2.37,0.94c0.94,0,1.74-0.32,2.37-0.95c0.63-0.62,0.95-1.41,0.95-2.35c0-0.94-0.32-1.73-0.95-2.36
				C113.77,66.27,112.97,65.95,112.02,65.95z M112.04,71.49c-0.63,0-1.14-0.21-1.56-0.64c-0.42-0.43-0.63-0.95-0.63-1.59
				c0-0.65,0.21-1.17,0.63-1.6c0.42-0.43,0.93-0.64,1.56-0.64c0.62,0,1.13,0.21,1.55,0.64c0.42,0.43,0.63,0.95,0.63,1.6
				c0,0.64-0.21,1.16-0.63,1.59C113.16,71.28,112.66,71.49,112.04,71.49z"/>
			<path d="M121.15,69.35c0,0.62-0.18,1.11-0.56,1.52c-0.37,0.41-0.82,0.6-1.35,0.6c-0.49,0-0.89-0.17-1.21-0.51
				c-0.33-0.35-0.49-0.77-0.49-1.3v-3.59h-1.13v3.66c0,0.82,0.25,1.5,0.74,2.02c0.49,0.52,1.14,0.79,1.92,0.79
				c0.5,0,0.97-0.12,1.42-0.36c0.26-0.14,0.5-0.33,0.7-0.56v0.79h1.12v-6.35h-1.15V69.35z"/>
			<path d="M127.13,65.96c-0.5,0-0.97,0.12-1.41,0.36c-0.26,0.14-0.49,0.33-0.68,0.55v-0.8h-1.12v6.35h1.15v-3.15
				c0-0.64,0.19-1.19,0.56-1.61c0.36-0.42,0.81-0.63,1.36-0.63c0.48,0,0.88,0.17,1.2,0.51c0.33,0.35,0.49,0.77,0.49,1.3v3.58h1.13
				v-3.74c0-0.77-0.26-1.42-0.76-1.94C128.54,66.23,127.9,65.96,127.13,65.96z"/>
			<path d="M136.18,66.9c-0.21-0.23-0.45-0.41-0.73-0.56c-0.44-0.25-0.94-0.37-1.49-0.37c-0.88,0-1.63,0.32-2.22,0.95
				c-0.59,0.63-0.89,1.42-0.89,2.35c0,0.93,0.3,1.72,0.88,2.34c0.59,0.63,1.33,0.96,2.2,0.96c0.55,0,1.06-0.13,1.52-0.39
				c0.28-0.16,0.53-0.35,0.74-0.59v0.84h1.13v-9.21h-1.15V66.9z M135.6,67.67c0.41,0.43,0.62,0.95,0.62,1.58
				c0,0.65-0.2,1.17-0.62,1.6c-0.41,0.43-0.92,0.64-1.54,0.64c-0.59,0-1.07-0.21-1.47-0.63c-0.4-0.43-0.59-0.95-0.59-1.59
				c0-0.64,0.19-1.16,0.59-1.59c0.4-0.43,0.88-0.63,1.47-0.63C134.69,67.04,135.19,67.24,135.6,67.67z"/>
			<path d="M143.9,66.94c-0.21-0.23-0.45-0.43-0.72-0.59c-0.45-0.27-0.97-0.4-1.53-0.4c-0.9,0-1.66,0.32-2.25,0.95
				c-0.59,0.63-0.9,1.42-0.9,2.36c0,0.94,0.3,1.73,0.9,2.35c0.6,0.63,1.35,0.95,2.24,0.95c0.57,0,1.09-0.14,1.54-0.41
				c0.27-0.16,0.52-0.37,0.73-0.61v0.88h1.11v-6.35h-1.11V66.94z M143.27,67.65c0.41,0.43,0.61,0.94,0.61,1.57
				c0,0.65-0.2,1.18-0.61,1.62c-0.41,0.44-0.9,0.65-1.51,0.65s-1.1-0.21-1.5-0.63l0,0c-0.41-0.42-0.61-0.95-0.61-1.6
				c0-0.65,0.2-1.17,0.61-1.61c0.41-0.43,0.9-0.64,1.52-0.64C142.37,67.02,142.86,67.23,143.27,67.65z"/>
			<path d="M151.27,64.1c-0.15,0.15-0.23,0.33-0.23,0.54c0,0.22,0.08,0.41,0.23,0.56c0.15,0.16,0.34,0.23,0.56,0.23
				c0.22,0,0.41-0.08,0.57-0.23l0.01-0.01c0.14-0.15,0.21-0.34,0.21-0.56c0-0.21-0.08-0.4-0.23-0.54
				C152.09,63.81,151.58,63.81,151.27,64.1z"/>
			<path d="M151.26,66.08h-3.11v-2.31h-1.12v2.31h-1.12v1.03h1.12v3.37c0,0.63,0.17,1.15,0.52,1.51c0.35,0.38,0.85,0.57,1.5,0.57
				c0.47,0,0.94-0.1,1.4-0.29l0.12-0.05v-1.06l-0.27,0.1c-0.38,0.15-0.76,0.23-1.11,0.23c-0.39,0-0.66-0.09-0.8-0.26
				c-0.15-0.18-0.23-0.47-0.23-0.85v-3.27h3.11v5.31h1.15v-6.35h-0.29H151.26z"/>
			<path d="M156.89,65.95c-0.95,0-1.75,0.32-2.38,0.95c-0.63,0.63-0.95,1.43-0.95,2.36c0,0.94,0.32,1.73,0.95,2.36
				c0.63,0.62,1.43,0.94,2.37,0.94c0.94,0,1.74-0.32,2.37-0.95c0.63-0.62,0.95-1.41,0.95-2.35c0-0.94-0.32-1.73-0.95-2.36
				C158.64,66.27,157.84,65.95,156.89,65.95z M159.08,69.26c0,0.64-0.21,1.16-0.63,1.59c-0.42,0.43-0.93,0.64-1.55,0.64
				c-0.63,0-1.14-0.21-1.56-0.64c-0.42-0.43-0.63-0.95-0.63-1.59c0-0.65,0.21-1.17,0.63-1.6c0.42-0.43,0.93-0.64,1.56-0.64
				c0.62,0,1.13,0.21,1.55,0.64C158.88,68.09,159.08,68.62,159.08,69.26z"/>
			<path d="M164.59,65.96c-0.5,0-0.97,0.12-1.41,0.36c-0.26,0.14-0.49,0.33-0.68,0.55v-0.8h-1.12v6.35h1.15v-3.15
				c0-0.64,0.19-1.19,0.56-1.61c0.36-0.42,0.81-0.63,1.36-0.63c0.48,0,0.88,0.17,1.2,0.51c0.33,0.35,0.49,0.77,0.49,1.3v3.58h1.13
				v-3.74c0-0.77-0.25-1.42-0.76-1.94C166,66.23,165.36,65.96,164.59,65.96z"/>
		</g>
		<g>
			<path d="M111.92,34.2h-9.65v22.14h2.7v-7.12h6.76c2.37,0,4.31-0.71,5.76-2.1c1.46-1.4,2.19-3.23,2.19-5.44
				c0-2.19-0.73-4-2.16-5.39C116.09,34.91,114.2,34.2,111.92,34.2z M116.95,41.71c0,1.48-0.48,2.66-1.46,3.62
				c-0.97,0.94-2.29,1.42-3.93,1.42h-6.6V36.68h6.76c1.57,0,2.84,0.48,3.79,1.42C116.48,39.05,116.95,40.24,116.95,41.71z"/>
			<path d="M133.35,44.04c0.83,0.89,1.25,2.03,1.25,3.39v8.92h2.7v-9.4c0-1.93-0.64-3.56-1.92-4.85c-1.27-1.3-2.89-1.95-4.83-1.95
				c-1.2,0-2.36,0.28-3.44,0.84c-0.72,0.37-1.35,0.88-1.88,1.5v-9.37h-2.7v23.23h2.7v-7.83c0-1.67,0.48-3.07,1.44-4.16
				c0.95-1.1,2.11-1.64,3.53-1.64C131.49,42.71,132.52,43.15,133.35,44.04z"/>
			<path d="M144.07,47.61c0-1.51,0.43-2.72,1.26-3.6c0.84-0.89,1.88-1.33,3.19-1.33l5.44-0.03c-1.48,1.55-2.22,3.49-2.22,5.76
				c0,2.35,0.8,4.34,2.38,5.91c1.58,1.57,3.59,2.36,5.96,2.36c2.37,0,4.38-0.8,5.96-2.38c1.58-1.56,2.38-3.55,2.38-5.9
				c0-2.36-0.8-4.35-2.38-5.93c-1.47-1.47-3.32-2.26-5.5-2.36l-11.95-0.03l-0.34,0.02l0,0.02c-1.01,0.07-1.93,0.33-2.72,0.79
				c-0.57,0.32-1.06,0.73-1.49,1.23v-1.73h-2.64v15.91h2.67L144.07,47.61z M154.45,48.42c0-1.65,0.55-3.05,1.63-4.15
				c1.08-1.1,2.4-1.64,4.07-1.65c1.6,0.01,2.9,0.55,3.99,1.65c1.08,1.1,1.63,2.49,1.63,4.14c0,1.65-0.53,3-1.63,4.11l0,0
				c-1.09,1.11-2.4,1.65-4.01,1.65c-1.63,0-2.96-0.54-4.05-1.65C154.98,51.42,154.45,50.07,154.45,48.42z"/>
			<path d="M174.3,48.45c0-1.66,0.48-3.07,1.44-4.17c0.96-1.1,2.11-1.64,3.54-1.64c1.26,0,2.28,0.44,3.13,1.33
				c0.85,0.9,1.27,2.01,1.27,3.39v8.98h2.66v-9.4c0-1.93-0.64-3.56-1.9-4.85c-1.27-1.3-2.88-1.95-4.78-1.95
				c-1.26,0-2.44,0.3-3.53,0.89c-0.73,0.4-1.36,0.93-1.89,1.6v-2.21h-2.64v15.91h2.7V48.45z"/>
			<path d="M206.31,34.2h-2.5l-9.36,22.14h2.93l2.43-5.94h10.39l2.42,5.94h2.93l-9.14-21.9L206.31,34.2z M209.27,47.93h-8.5
				l4.32-10.41L209.27,47.93z"/>
			<rect x="218.14" y="34.2" width="2.73" height="22.14"/>
		</g>
	</g>
</g>
</svg>
