<?xml version="1.0" encoding="utf-8"?>
<!-- Generator: Adobe Illustrator 27.9.0, SVG Export Plug-In . SVG Version: 6.00 Build 0)  -->
<svg version="1.1" id="Vrstva_1" xmlns="http://www.w3.org/2000/svg" xmlns:xlink="http://www.w3.org/1999/xlink" x="0px" y="0px"
	 viewBox="0 0 141.73 105.61" style="enable-background:new 0 0 141.73 105.61;" xml:space="preserve">
<g>
	<g>
		<circle cx="59.43" cy="56.1" r="1.21"/>
		<circle cx="67.1" cy="56.1" r="1.21"/>
		<circle cx="74.72" cy="56.14" r="1.21"/>
		<circle cx="86.24" cy="49.49" r="1.21"/>
		<circle cx="89.94" cy="42.89" r="1.21"/>
		<circle cx="93.77" cy="36.29" r="1.21"/>
		<circle cx="90.01" cy="29.64" r="1.21"/>
		<circle cx="86.22" cy="23.16" r="1.21"/>
		<circle cx="82.39" cy="56.14" r="1.21"/>
		<circle cx="55.63" cy="49.49" r="1.21"/>
		<circle cx="63.3" cy="49.48" r="1.88"/>
		<circle cx="51.8" cy="42.91" r="1.21"/>
		<circle cx="59.47" cy="42.91" r="1.21"/>
		<circle cx="67.09" cy="42.96" r="1.88"/>
		<circle cx="47.97" cy="36.29" r="1.21"/>
		<circle cx="55.63" cy="36.29" r="1.21"/>
		<circle cx="63.25" cy="36.34" r="1.21"/>
		<path d="M69.04,36.34c0,1.03,0.85,1.88,1.88,1.88c1.03,0,1.87-0.85,1.88-1.88c0-1.03-0.85-1.88-1.88-1.88S69.04,35.31,69.04,36.34
			z"/>
		<circle cx="51.8" cy="29.72" r="1.21"/>
		<circle cx="59.47" cy="29.72" r="1.21"/>
		<path d="M67.09,31.65c1.03,0,1.87-0.85,1.88-1.88c0-1.03-0.85-1.88-1.88-1.88s-1.88,0.85-1.88,1.88
			C65.21,30.8,66.06,31.65,67.09,31.65z"/>
		<circle cx="59.37" cy="16.52" r="1.21"/>
		<circle cx="67.03" cy="16.52" r="1.21"/>
		<circle cx="74.64" cy="16.58" r="1.21"/>
		<path d="M78.29,25.67c0.09,0.01,0.19,0.01,0.27,0.01c0.6,0,1.18-0.21,1.66-0.58c0.54-0.44,0.88-1.07,0.96-1.77
			c0.14-1.45-0.91-2.73-2.35-2.89c-0.7-0.08-1.38,0.13-1.93,0.57c-0.54,0.44-0.88,1.07-0.96,1.77
			C75.8,24.23,76.85,25.53,78.29,25.67z"/>
		<path d="M68.57,24.51c0.35,0.62,0.91,1.04,1.59,1.23c0.22,0.05,0.45,0.09,0.68,0.09c0.46,0,0.91-0.12,1.32-0.35
			c0.62-0.35,1.04-0.91,1.23-1.59c0.18-0.68,0.09-1.38-0.26-2c-0.35-0.62-0.91-1.04-1.59-1.23c-0.68-0.18-1.39-0.09-2,0.26
			c-0.62,0.35-1.04,0.91-1.23,1.59C68.13,23.19,68.22,23.89,68.57,24.51z"/>
		<path d="M74.73,32.3c0.44,0,0.89-0.11,1.31-0.35c1.26-0.72,1.69-2.34,0.97-3.59c-0.35-0.62-0.91-1.04-1.59-1.23
			c-0.68-0.18-1.38-0.09-2,0.26c-0.62,0.35-1.04,0.91-1.23,1.59c-0.18,0.68-0.09,1.39,0.26,2C72.94,31.82,73.82,32.3,74.73,32.3z"/>
		<path d="M80.99,27.44c-1.26,0.72-1.69,2.34-0.97,3.59c0.35,0.62,0.91,1.04,1.59,1.23c0.22,0.05,0.45,0.09,0.68,0.09
			c0.45,0,0.9-0.12,1.32-0.35c0.62-0.35,1.04-0.91,1.23-1.59c0.18-0.68,0.09-1.39-0.26-2C83.86,27.15,82.25,26.72,80.99,27.44z"/>
		<path d="M78.47,39.02c0.45,0,0.9-0.12,1.32-0.35c1.26-0.72,1.69-2.34,0.97-3.59c-0.72-1.26-2.33-1.69-3.59-0.97
			c-0.62,0.35-1.04,0.91-1.23,1.59c-0.18,0.68-0.09,1.38,0.26,2c0.35,0.62,0.91,1.04,1.59,1.23C78.01,38.99,78.24,39.02,78.47,39.02
			z"/>
		<path d="M88.41,35.03c-0.35-0.62-0.91-1.04-1.59-1.23c-0.68-0.18-1.39-0.09-2,0.26c-0.62,0.35-1.04,0.91-1.23,1.59
			c-0.18,0.68-0.09,1.39,0.26,2c0.49,0.85,1.37,1.32,2.28,1.32c0.44,0,0.89-0.12,1.31-0.35C88.7,37.9,89.13,36.28,88.41,35.03z"/>
		<path d="M83.03,40.37c-0.68-0.18-1.39-0.09-2,0.26c-0.62,0.35-1.04,0.91-1.23,1.59c-0.18,0.68-0.09,1.39,0.26,2
			c0.49,0.85,1.37,1.32,2.28,1.32c0.45,0,0.9-0.11,1.31-0.35c1.26-0.72,1.69-2.34,0.97-3.59C84.27,40.99,83.71,40.56,83.03,40.37z"
			/>
		<path d="M74.05,45.4c0.22,0.05,0.45,0.09,0.68,0.09c0.45,0,0.9-0.11,1.32-0.35c0.62-0.35,1.04-0.91,1.23-1.59
			c0.18-0.68,0.09-1.39-0.26-2c-0.35-0.62-0.91-1.04-1.59-1.23c-0.68-0.18-1.39-0.09-2,0.26c-0.62,0.35-1.04,0.91-1.23,1.59
			c-0.18,0.68-0.09,1.38,0.26,2C72.81,44.79,73.37,45.21,74.05,45.4z"/>
		<path d="M69.48,47.2c-0.62,0.35-1.04,0.91-1.23,1.59c-0.18,0.68-0.09,1.39,0.26,2c0.49,0.85,1.37,1.32,2.28,1.32
			c0.44,0,0.89-0.11,1.31-0.35c1.26-0.72,1.69-2.34,0.97-3.59C72.35,46.91,70.73,46.48,69.48,47.2z"/>
		<path d="M77.19,47.2c-1.26,0.72-1.69,2.34-0.97,3.59c0.49,0.85,1.37,1.32,2.28,1.32c0.45,0,0.9-0.11,1.31-0.35
			c1.26-0.72,1.69-2.34,0.97-3.59C80.06,46.91,78.44,46.48,77.19,47.2z"/>
		<circle cx="82.32" cy="16.58" r="1.21"/>
		<circle cx="55.63" cy="23.1" r="1.21"/>
		<circle cx="63.3" cy="23.09" r="1.88"/>
	</g>
	<g>
		<polygon points="50.17,90.2 50.9,90.2 50.9,87.73 53.79,87.73 53.79,87.05 50.9,87.05 50.9,85.28 54,85.28 54,84.6 50.17,84.6 		
			"/>
		<path d="M56.38,86.08c-0.6,0-1.11,0.2-1.51,0.61c-0.4,0.4-0.6,0.91-0.6,1.5s0.2,1.1,0.6,1.5c0.4,0.4,0.91,0.6,1.51,0.6
			c0.6,0,1.11-0.2,1.51-0.6c0.4-0.4,0.6-0.9,0.6-1.5c0-0.6-0.2-1.1-0.6-1.5C57.49,86.28,56.98,86.08,56.38,86.08z M56.39,89.61
			c-0.4,0-0.73-0.13-0.99-0.41c-0.27-0.27-0.4-0.61-0.4-1.01c0-0.41,0.13-0.75,0.4-1.02c0.27-0.27,0.59-0.41,0.99-0.41
			c0.4,0,0.72,0.13,0.99,0.41c0.27,0.27,0.4,0.61,0.4,1.02c0,0.41-0.13,0.74-0.4,1.01C57.11,89.47,56.79,89.61,56.39,89.61z"/>
		<path d="M62.19,88.24c0,0.39-0.12,0.71-0.36,0.97c-0.24,0.26-0.52,0.38-0.86,0.38c-0.31,0-0.57-0.11-0.77-0.33
			c-0.21-0.22-0.31-0.49-0.31-0.83v-2.29h-0.72v2.33c0,0.52,0.16,0.95,0.47,1.29c0.31,0.33,0.73,0.5,1.22,0.5
			c0.32,0,0.62-0.08,0.9-0.23c0.17-0.09,0.32-0.21,0.44-0.35v0.5h0.71v-4.04h-0.73V88.24z"/>
		<path d="M66.01,86.09c-0.32,0-0.62,0.08-0.9,0.23c-0.16,0.09-0.31,0.21-0.44,0.35v-0.51h-0.71v4.04h0.73v-2
			c0-0.41,0.12-0.76,0.35-1.03c0.23-0.27,0.52-0.4,0.87-0.4c0.31,0,0.56,0.11,0.77,0.32c0.21,0.22,0.31,0.49,0.31,0.83v2.28h0.72
			v-2.38c0-0.49-0.16-0.91-0.48-1.24C66.9,86.25,66.49,86.09,66.01,86.09z"/>
		<path d="M71.77,86.68c-0.13-0.14-0.29-0.26-0.46-0.36c-0.28-0.16-0.6-0.24-0.95-0.24c-0.56,0-1.04,0.2-1.42,0.6
			c-0.38,0.4-0.57,0.9-0.57,1.5c0,0.59,0.19,1.09,0.56,1.49c0.38,0.4,0.85,0.61,1.4,0.61c0.35,0,0.68-0.08,0.97-0.25
			c0.18-0.1,0.33-0.23,0.47-0.37v0.53h0.72v-5.87h-0.73V86.68z M71.4,87.17c0.26,0.27,0.39,0.6,0.39,1.01
			c0,0.41-0.13,0.75-0.39,1.02c-0.26,0.27-0.58,0.41-0.98,0.41c-0.38,0-0.68-0.13-0.94-0.4c-0.25-0.27-0.38-0.61-0.38-1.01
			c0-0.41,0.12-0.74,0.38-1.02c0.25-0.27,0.56-0.4,0.94-0.4C70.82,86.77,71.14,86.9,71.4,87.17z"/>
		<path d="M76.68,86.71c-0.13-0.15-0.29-0.27-0.46-0.37c-0.29-0.17-0.62-0.26-0.98-0.26c-0.57,0-1.05,0.2-1.43,0.61
			c-0.38,0.4-0.57,0.91-0.57,1.5s0.19,1.1,0.57,1.5c0.38,0.4,0.86,0.6,1.43,0.6c0.36,0,0.69-0.09,0.98-0.26
			c0.17-0.1,0.33-0.23,0.46-0.39v0.56h0.71v-4.04h-0.71V86.71z M76.28,87.16c0.26,0.27,0.39,0.6,0.39,1c0,0.41-0.13,0.75-0.39,1.03
			c-0.26,0.28-0.58,0.41-0.96,0.41s-0.7-0.13-0.96-0.4l0,0c-0.26-0.27-0.39-0.6-0.39-1.02c0-0.41,0.13-0.75,0.39-1.02
			c0.26-0.27,0.58-0.41,0.97-0.41C75.71,86.76,76.02,86.89,76.28,87.16z"/>
		<path d="M81.38,84.9c-0.1,0.09-0.15,0.21-0.15,0.35c0,0.14,0.05,0.26,0.14,0.36c0.1,0.1,0.22,0.15,0.36,0.15
			c0.14,0,0.26-0.05,0.36-0.15l0,0c0.09-0.1,0.14-0.22,0.14-0.36c0-0.14-0.05-0.25-0.15-0.35C81.9,84.71,81.57,84.71,81.38,84.9z"/>
		<path d="M81.37,86.16h-1.98v-1.47h-0.71v1.47h-0.71v0.66h0.71v2.15c0,0.4,0.11,0.73,0.33,0.96c0.22,0.24,0.54,0.36,0.96,0.36
			c0.3,0,0.6-0.06,0.89-0.19l0.08-0.03V89.4l-0.17,0.07c-0.25,0.09-0.48,0.14-0.71,0.14c-0.25,0-0.42-0.05-0.51-0.16
			c-0.1-0.11-0.15-0.3-0.15-0.54v-2.08h1.98v3.38h0.73v-4.04h-0.18H81.37z"/>
		<path d="M84.96,86.08c-0.6,0-1.11,0.2-1.51,0.6c-0.4,0.4-0.6,0.91-0.6,1.5c0,0.6,0.2,1.1,0.61,1.5c0.4,0.4,0.91,0.6,1.51,0.6
			c0.6,0,1.11-0.2,1.51-0.6c0.4-0.4,0.61-0.9,0.61-1.5c0-0.6-0.2-1.1-0.6-1.5C86.07,86.28,85.56,86.08,84.96,86.08z M86.35,88.19
			c0,0.41-0.13,0.74-0.4,1.01c-0.27,0.27-0.59,0.41-0.99,0.41c-0.4,0-0.73-0.13-1-0.41c-0.27-0.27-0.4-0.6-0.4-1.01
			c0-0.41,0.13-0.75,0.4-1.02c0.27-0.27,0.59-0.41,1-0.41c0.39,0,0.72,0.13,0.99,0.41C86.22,87.44,86.35,87.78,86.35,88.19z"/>
		<path d="M89.86,86.09c-0.32,0-0.62,0.08-0.9,0.23c-0.16,0.09-0.31,0.21-0.44,0.35v-0.51h-0.71v4.04h0.73v-2
			c0-0.41,0.12-0.76,0.35-1.03c0.23-0.27,0.52-0.4,0.87-0.4c0.31,0,0.56,0.11,0.77,0.32c0.21,0.22,0.31,0.49,0.31,0.83v2.28h0.72
			v-2.38c0-0.49-0.16-0.91-0.48-1.24C90.76,86.25,90.35,86.09,89.86,86.09z"/>
		<path d="M39.24,64.63H33.1v14.1h1.72V74.2h4.3c1.51,0,2.74-0.45,3.67-1.34c0.93-0.89,1.4-2.06,1.4-3.46
			c0-1.39-0.46-2.55-1.38-3.43C41.9,65.08,40.7,64.63,39.24,64.63z M42.45,69.42c0,0.94-0.3,1.69-0.93,2.3
			c-0.62,0.6-1.46,0.9-2.5,0.9h-4.2v-6.41h4.3c1,0,1.81,0.3,2.42,0.9C42.15,67.72,42.45,68.48,42.45,69.42z"/>
		<path d="M52.89,70.9c0.53,0.57,0.8,1.29,0.8,2.16v5.68h1.72v-5.98c0-1.23-0.41-2.27-1.22-3.09c-0.81-0.83-1.84-1.24-3.07-1.24
			c-0.77,0-1.5,0.18-2.19,0.54c-0.46,0.24-0.86,0.56-1.2,0.96v-5.97h-1.72v14.79h1.72v-4.99c0-1.06,0.31-1.95,0.91-2.65
			c0.61-0.7,1.34-1.04,2.25-1.04C51.71,70.05,52.36,70.33,52.89,70.9z"/>
		<path d="M59.72,73.17c0-0.96,0.27-1.73,0.81-2.29c0.54-0.57,1.2-0.84,2.03-0.85l3.47-0.02c-0.94,0.99-1.42,2.22-1.42,3.67
			c0,1.5,0.51,2.77,1.52,3.76s2.28,1.51,3.79,1.51c1.51,0,2.79-0.51,3.79-1.51c1.01-0.99,1.52-2.26,1.52-3.76
			c0-1.5-0.51-2.77-1.52-3.77c-0.93-0.93-2.11-1.44-3.5-1.5l-7.61-0.02l-0.22,0.01l0,0.01c-0.65,0.04-1.23,0.21-1.73,0.5
			c-0.36,0.21-0.68,0.47-0.95,0.79v-1.1h-1.68v10.14h1.7L59.72,73.17z M66.33,73.69c0-1.05,0.35-1.94,1.04-2.64
			c0.69-0.7,1.53-1.04,2.59-1.05c1.02,0,1.85,0.35,2.54,1.05c0.69,0.7,1.04,1.59,1.04,2.64c0,1.05-0.34,1.91-1.04,2.62l0,0
			c-0.69,0.71-1.53,1.05-2.56,1.05c-1.04,0-1.88-0.34-2.58-1.05C66.67,75.6,66.33,74.74,66.33,73.69z"/>
		<path d="M78.97,73.71c0-1.06,0.31-1.95,0.91-2.65c0.61-0.7,1.34-1.04,2.25-1.04c0.8,0,1.45,0.28,1.99,0.85
			c0.54,0.58,0.81,1.28,0.81,2.16v5.72h1.7v-5.98c0-1.23-0.41-2.27-1.21-3.09c-0.81-0.83-1.83-1.24-3.05-1.24
			c-0.8,0-1.55,0.19-2.25,0.57c-0.46,0.25-0.87,0.59-1.21,1.02V68.6h-1.68v10.14h1.72V73.71z"/>
		<path d="M99.36,64.63h-1.59l-5.96,14.1h1.86l1.55-3.78h6.62l1.54,3.78h1.87l-5.82-13.95L99.36,64.63z M101.24,73.37h-5.42
			l2.75-6.63L101.24,73.37z"/>
		<rect x="106.89" y="64.63" width="1.74" height="14.1"/>
	</g>
</g>
</svg>
