<?xml version="1.0" encoding="utf-8"?>
<!-- Generator: Adobe Illustrator 28.1.0, SVG Export Plug-In . SVG Version: 6.00 Build 0)  -->
<svg version="1.1" id="Vrstva_1" xmlns="http://www.w3.org/2000/svg" xmlns:xlink="http://www.w3.org/1999/xlink" x="0px" y="0px"
	 viewBox="0 0 141.73 141.73" style="enable-background:new 0 0 141.73 141.73;" xml:space="preserve">
<style type="text/css">
	.st0{fill:#303031;}
	.st1{fill:#282525;}
</style>
<g>
	<path class="st0" d="M-639.51,197.03c-0.03-0.01-0.06-0.03-0.1-0.05c-0.04-0.02-0.08-0.04-0.11-0.03c-0.05,0.02-0.06,0.13-0.1,0.2
		c0.07,0.03,0.15,0.1,0.2,0.08c0.03-0.01,0.04-0.04,0.06-0.08C-639.54,197.1-639.53,197.06-639.51,197.03
		C-639.51,197.03-639.51,197.03-639.51,197.03C-639.51,197.03-639.51,197.03-639.51,197.03z"/>
	<path class="st0" d="M-481.74,77.62c-7.63-0.84-15.5-0.08-23.19-0.34c-1.91,0.04-2.4-1.15-1.79-2.73c0.62-2.41,1.69-4.48,4.34-4.28
		c5.98-0.02,11.97,0.01,17.95-0.03c2.19,0.15,5.29-0.86,4.7-3.58c-0.42-1.85-2.43-2.45-4.14-2.46c-5.74-0.09-11.62-0.03-17.37-0.08
		c-1.12,0-2.26-0.3-2.36-1.56c0.3-5.32,0.74-10.87-0.04-16.27c-0.76-5.35-1.89-10.61-3.91-15.59c-0.45-1.15-0.81-2.35-0.83-3.58
		c1.79-16.11,2.04-32.5-1.15-48.38c-0.54-2.86-1.29-5.98-3.42-8.06c-3.15-3.28-8.27-3.54-12.2-1.46
		c-12.53,5.85-23.29,14.18-32.89,23.98c-0.71,0.71-1.57,1.53-2.54,1.66c-1.02,0.2-2.2-0.35-3.19-0.77
		c-7.85-3.43-16.21-5.08-24.92-4.91c-8.57,0.11-16.94,1.88-24.85,5.35c-0.8,0.31-1.57,0.46-2.28,0.3c-0.91-0.17-1.74-0.94-2.42-1.63
		c-10.78-10.54-23.1-20.96-37.66-25.33c-9.37-0.61-10.95,8.55-11.91,15.86c-2.63,14.58-1.98,29.47-0.39,44.11
		c-0.08,1.7-0.77,3.26-1.35,4.84c-1.87,4.95-3,10.18-3.43,15.35c-0.39,4.41-0.25,8.85,0.16,13.34c0.31,1.73-0.87,2.97-2.59,2.86
		c-5.83,0.03-11.66-0.07-17.47,0.01c-2.62-0.22-5.85,2.31-3.53,4.87c1.14,1.1,2.88,1.13,4.4,1.17c5.94,0.05,11.96,0,17.93,0.01
		c2.87-0.21,3.73,2.18,4.34,4.55c0.85,2.3-0.67,2.52-2.55,2.48c-6.82,0.02-13.66-0.04-20.49,0.02c-1.07,0.04-2.21,0.21-3.07,0.83
		c-2.19,1.63-1.13,4.86,1.63,5.01c7.52,0.37,15.04,0.05,22.55,0.15c2.25,0.01,5-0.54,6.35,1.76c4.96,9.04,11.72,17.08,19.89,23.47
		c0.75,0.59,1.67,1.39,1.77,2.29c-0.06,2.49-2.43,4.73-3.32,7.07c-8.94,17.67-9.65,39.14-3.1,57.8c2.89,8.26,7.01,15.91,12.37,22.72
		c2.77,3.47,6.53,8.5,11.65,6.61c3.53-1.17,5.58-5.28,4.37-8.73c-0.89-2.64-3.01-4.54-4.67-6.7c-15.61-18.91-19.01-47.66-6.31-68.87
		c1.03-2.12,2.7-3,4.88-1.82c21.54,9.22,45.96,10.38,68.42,3.94c3.92-1.11,7.75-2.59,11.45-4.25c1.59-0.67,2.81-0.1,3.62,1.29
		c13.57,22.6,9.61,53.56-8.19,72.93c-4.86,4.95-1.99,12.89,5.23,12.56c13.94-0.01,29,1.78,41.46-5.81
		c22.02-13.03,11.13-46.71-14.19-44.25c-1,0.07-1.95-0.33-2.06-1.55c-0.17-3.26-0.04-6.57-0.35-9.83
		c-0.76-10.76-3.89-21.4-9.42-30.65c-1.1-1.61-1.36-3.24,0.37-4.52c7.96-6.17,14.59-13.58,19.52-22.4c0.89-1.99,2.65-3.26,4.87-3.07
		c8.22-0.11,16.48,0.24,24.65-0.15c3.13-0.21,4.02-4.36,0.84-5.45L-481.74,77.62z M-533.32,190.28c2.09-4.37,4.5-8.72,6.17-13.32
		c1.33-4.73,4.92-7.7,9.91-7.73c7.61,0.03,12.28,10.97,6.84,16.29c-5.5,5.56-13.92,5.59-21.24,5.76c-0.65-0.04-1.7-0.05-1.69-0.88
		L-533.32,190.28z M-517.83,61.12c-10.61,67.35-122.03,70.22-139.5,5.9c-3.1-11.84-2-24.67,3.27-35.7c1.11-2.32,0.44-4.84,0.07-7.26
		c-1.93-12.72-1.74-25.5,0.19-38.18c0.38-2.9,2.26-1.57,3.97-0.44c10.12,6.53,19.49,14.35,27.08,23.67
		c1.98,2.64,4.02,3.66,6.99,1.72c16.44-10.02,36.73-10.94,53.4-0.94c1.45,0.81,2.98,1.95,4.66,1.79c1.47-0.11,2.64-1.31,3.57-2.4
		c8.23-9.88,18.15-18.22,29.08-24.94c1.58-0.93,2.3,0.31,2.42,1.89c0.99,7.21,1.47,14.01,1.34,20.97c0.02,6.84-0.62,13.26-1.6,19.65
		c-0.21,1.48-0.13,2.97,0.38,4.37c4.08,9.3,6.38,19.61,4.7,29.72L-517.83,61.12z"/>
	<path class="st0" d="M-599.2,186.34c-1.17-4.78-2.33-9.64-3.51-14.46c-1.4-4.53-1.63-9.57-4.27-13.53
		c-2.27-2.89-6.43-3.67-9.49-1.56c-3.16,1.97-3.77,5.88-2.79,9.27c2.59,10.7,5.24,21.36,7.91,32c0.57,2.53,1.57,5.43,3.96,6.69
		c4.29,2.55,10.71-0.43,10.85-5.73c-0.12-4.26-1.71-8.38-2.61-12.5L-599.2,186.34z"/>
	<path class="st0" d="M-564.53,155.6c-4.98,0.3-6.57,4.72-7.36,8.96c-2.53,11.14-5.33,22.14-7.64,33.28
		c-0.76,6.48,7.38,10.26,12.08,6.02c1.58-1.38,2.3-3.75,2.73-5.79c1.11-5.22,2.48-10.34,3.56-15.55c1.3-5.88,2.7-11.8,4.03-17.7
		c1.52-4.58-2.56-9.6-7.2-9.23L-564.53,155.6z"/>
	<path class="st0" d="M-553.09,51.85c-8.74-0.44-15.42,8.74-12.78,16.96c4.53,14.1,25.29,10.54,25.5-3.88
		c0.06-6.79-5.75-12.91-12.53-13.07L-553.09,51.85z"/>
	<path class="st0" d="M-623.12,51.89c-8.56-0.15-15.17,8.94-12.5,16.99c5.01,14.26,25.86,10.21,25.56-4.6
		c-0.24-6.65-6.21-12.45-12.86-12.39L-623.12,51.89z"/>
	<path class="st0" d="M-583.75,83.4c16.01-12.87,2.15-17.31-11.51-14.61c-4.08,0.67-6.34,4.82-3.79,8.32
		c1.87,2.76,4.49,4.61,6.78,6.89c1.56,1.71,1.22,4.83-0.47,6.29c-1.33,1.3-4.31,1.09-5.76,2.26c-0.82,0.67-1,1.93-0.4,2.8
		c2.31,2.47,6.89,1,9.32-0.64c1.05-0.78,2.25-0.52,3.22,0.26c1.95,1.38,4.3,1.82,6.67,1.51c1.42-0.15,2.74-1.44,2.31-2.92
		c-0.39-1.37-1.92-1.69-3.21-1.97c-3.96-0.37-6.53-5.18-3.29-8.06L-583.75,83.4z"/>
</g>
<g>
	<path class="st1" d="M41.96,123.5c-0.01-0.01-0.03-0.02-0.05-0.02c-0.02-0.01-0.04-0.02-0.05-0.01c-0.02,0.01-0.03,0.06-0.05,0.09
		c0.03,0.01,0.07,0.05,0.1,0.04c0.01,0,0.02-0.02,0.03-0.04C41.95,123.54,41.96,123.52,41.96,123.5
		C41.96,123.5,41.96,123.5,41.96,123.5C41.96,123.5,41.96,123.5,41.96,123.5z"/>
	<path class="st1" d="M117.27,66.51c-3.64-0.4-7.4-0.04-11.07-0.16c-0.91,0.02-1.15-0.55-0.85-1.3c0.3-1.15,0.81-2.14,2.07-2.04
		c2.86-0.01,5.72,0,8.57-0.01c1.04,0.07,2.52-0.41,2.24-1.71c-0.2-0.88-1.16-1.17-1.97-1.18c-2.74-0.04-5.55-0.01-8.29-0.04
		c-0.53,0-1.08-0.14-1.13-0.75c0.14-2.54,0.35-5.19-0.02-7.77c-0.36-2.55-0.9-5.06-1.87-7.44c-0.22-0.55-0.39-1.12-0.4-1.71
		c0.86-7.69,0.98-15.51-0.55-23.09c-0.26-1.37-0.62-2.85-1.63-3.85c-1.5-1.56-3.95-1.69-5.82-0.7c-5.98,2.79-11.12,6.77-15.7,11.44
		c-0.34,0.34-0.75,0.73-1.21,0.79c-0.49,0.09-1.05-0.17-1.52-0.37c-3.75-1.64-7.74-2.42-11.89-2.34c-4.09,0.05-8.09,0.9-11.86,2.55
		c-0.38,0.15-0.75,0.22-1.09,0.14c-0.43-0.08-0.83-0.45-1.15-0.78c-5.14-5.03-11.03-10-17.97-12.09c-4.47-0.29-5.22,4.08-5.69,7.57
		c-1.26,6.96-0.95,14.07-0.18,21.05c-0.04,0.81-0.37,1.56-0.65,2.31c-0.89,2.36-1.43,4.86-1.64,7.33c-0.19,2.11-0.12,4.22,0.08,6.37
		c0.15,0.83-0.42,1.42-1.24,1.36c-2.78,0.01-5.57-0.03-8.34,0c-1.25-0.11-2.79,1.1-1.69,2.32c0.55,0.52,1.38,0.54,2.1,0.56
		c2.84,0.02,5.71,0,8.56,0.01c1.37-0.1,1.78,1.04,2.07,2.17c0.4,1.1-0.32,1.2-1.22,1.18c-3.26,0.01-6.52-0.02-9.78,0.01
		c-0.51,0.02-1.06,0.1-1.46,0.4c-1.05,0.78-0.54,2.32,0.78,2.39c3.59,0.18,7.18,0.02,10.76,0.07c1.08,0,2.39-0.26,3.03,0.84
		c2.37,4.32,5.59,8.15,9.49,11.2c0.36,0.28,0.8,0.67,0.84,1.09c-0.03,1.19-1.16,2.26-1.59,3.37c-4.27,8.43-4.6,18.68-1.48,27.59
		c1.38,3.94,3.35,7.59,5.91,10.84c1.32,1.66,3.12,4.06,5.56,3.15c1.68-0.56,2.66-2.52,2.09-4.16c-0.42-1.26-1.44-2.17-2.23-3.2
		c-7.45-9.03-9.07-22.75-3.01-32.87c0.49-1.01,1.29-1.43,2.33-0.87c10.28,4.4,21.94,4.96,32.66,1.88c1.87-0.53,3.7-1.23,5.46-2.03
		c0.76-0.32,1.34-0.05,1.73,0.62c6.48,10.79,4.59,25.57-3.91,34.81c-2.32,2.36-0.95,6.15,2.5,6c6.66-0.01,13.84,0.85,19.79-2.77
		c10.51-6.22,5.31-22.29-6.77-21.12c-0.48,0.03-0.93-0.16-0.98-0.74c-0.08-1.56-0.02-3.14-0.17-4.69
		c-0.36-5.13-1.86-10.21-4.5-14.63c-0.53-0.77-0.65-1.55,0.18-2.16c3.8-2.95,6.97-6.48,9.32-10.69c0.42-0.95,1.27-1.56,2.32-1.47
		c3.92-0.05,7.86,0.11,11.77-0.07c1.49-0.1,1.92-2.08,0.4-2.6L117.27,66.51z M92.65,120.28c1-2.09,2.15-4.16,2.94-6.36
		c0.63-2.26,2.35-3.68,4.73-3.69c3.63,0.01,5.86,5.24,3.26,7.77c-2.62,2.65-6.64,2.67-10.14,2.75c-0.31-0.02-0.81-0.02-0.8-0.42
		L92.65,120.28z M100.04,58.63c-5.06,32.14-58.25,33.52-66.59,2.82c-1.48-5.65-0.95-11.78,1.56-17.04c0.53-1.11,0.21-2.31,0.03-3.47
		c-0.92-6.07-0.83-12.17,0.09-18.22c0.18-1.39,1.08-0.75,1.9-0.21c4.83,3.12,9.3,6.85,12.92,11.3c0.94,1.26,1.92,1.75,3.34,0.82
		c7.85-4.78,17.53-5.22,25.49-0.45c0.69,0.39,1.42,0.93,2.22,0.85c0.7-0.05,1.26-0.63,1.7-1.15c3.93-4.71,8.66-8.7,13.88-11.9
		c0.75-0.45,1.1,0.15,1.16,0.9c0.47,3.44,0.7,6.69,0.64,10.01c0.01,3.27-0.3,6.33-0.77,9.38c-0.1,0.7-0.06,1.42,0.18,2.09
		c1.95,4.44,3.04,9.36,2.24,14.18L100.04,58.63z"/>
	<path class="st1" d="M61.2,118.4c-0.56-2.28-1.11-4.6-1.67-6.9c-0.67-2.16-0.78-4.57-2.04-6.46c-1.08-1.38-3.07-1.75-4.53-0.74
		c-1.51,0.94-1.8,2.81-1.33,4.42c1.24,5.11,2.5,10.19,3.77,15.27c0.27,1.21,0.75,2.59,1.89,3.19c2.05,1.22,5.11-0.21,5.18-2.74
		c-0.06-2.03-0.82-4-1.25-5.97L61.2,118.4z"/>
	<path class="st1" d="M77.75,103.73c-2.38,0.14-3.14,2.25-3.51,4.28c-1.21,5.32-2.54,10.57-3.65,15.89
		c-0.36,3.09,3.52,4.9,5.77,2.87c0.75-0.66,1.1-1.79,1.3-2.77c0.53-2.49,1.18-4.94,1.7-7.42c0.62-2.8,1.29-5.63,1.92-8.45
		c0.72-2.18-1.22-4.58-3.44-4.4L77.75,103.73z"/>
	<path class="st1" d="M83.21,54.21c-4.17-0.21-7.36,4.17-6.1,8.09c2.16,6.73,12.07,5.03,12.17-1.85c0.03-3.24-2.74-6.16-5.98-6.24
		L83.21,54.21z"/>
	<path class="st1" d="M49.79,54.23c-4.08-0.07-7.24,4.27-5.97,8.11c2.39,6.81,12.35,4.87,12.2-2.2c-0.12-3.17-2.97-5.94-6.14-5.91
		L49.79,54.23z"/>
	<path class="st1" d="M68.58,69.27c7.64-6.14,1.03-8.26-5.49-6.97c-1.95,0.32-3.03,2.3-1.81,3.97c0.89,1.32,2.14,2.2,3.24,3.29
		c0.75,0.82,0.58,2.31-0.23,3c-0.63,0.62-2.06,0.52-2.75,1.08c-0.39,0.32-0.48,0.92-0.19,1.33c1.1,1.18,3.29,0.48,4.45-0.31
		c0.5-0.37,1.07-0.25,1.54,0.13c0.93,0.66,2.05,0.87,3.18,0.72c0.68-0.07,1.31-0.69,1.1-1.39c-0.19-0.66-0.91-0.81-1.53-0.94
		c-1.89-0.18-3.11-2.47-1.57-3.85L68.58,69.27z"/>
</g>
</svg>
