<?xml version="1.0" encoding="utf-8"?>
<!-- Generator: Adobe Illustrator 28.1.0, SVG Export Plug-In . SVG Version: 6.00 Build 0)  -->
<svg version="1.1" id="Vrstva_1" xmlns="http://www.w3.org/2000/svg" xmlns:xlink="http://www.w3.org/1999/xlink" x="0px" y="0px"
	 viewBox="0 0 141.73 141.73" style="enable-background:new 0 0 141.73 141.73;" xml:space="preserve">
<style type="text/css">
	.st0{fill:#282525;}
	.st1{fill:#303031;}
</style>
<g>
	<path class="st0" d="M106.2,50.23c-2.91-18.62-19.01-32.93-38.43-32.93c-21.47,0-38.95,17.47-38.95,38.94
		c0,8.84,3,16.98,7.98,23.53c-2.48,4.1-3.79,8.76-3.79,13.56c0,14.47,11.78,26.25,26.26,26.25c6.8,0,13.15-2.58,18.05-7.23
		c2.74,0.67,5.55,1.03,8.37,1.03c19.25,0,34.91-15.66,34.91-34.91C120.61,67.3,115.23,56.81,106.2,50.23z M85.42,90.92
		c9.4-4.81,16.6-13.3,19.66-23.58c1.94,3.37,2.98,7.2,2.98,11.13c0,12.33-10.03,22.36-22.36,22.36c-0.41,0-0.82-0.03-1.23-0.05
		c0.71-2.42,1.08-4.91,1.08-7.44C85.54,92.53,85.49,91.72,85.42,90.92z M67.76,21.03c19.42,0,35.22,15.8,35.22,35.22
		c0,19.42-15.8,35.22-35.22,35.22s-35.22-15.8-35.22-35.22C32.54,36.83,48.34,21.03,67.76,21.03z M45.36,88.06
		c6.34,4.48,14.06,7.14,22.4,7.14c2.16,0,4.27-0.22,6.33-0.56c-0.14,1.62-0.52,3.18-1.17,4.66c-1.06,2.44-2.79,4.58-5.01,6.18
		c-2.51,1.81-5.5,2.76-8.64,2.76c-8.21,0-14.89-6.68-14.89-14.89C44.38,91.53,44.73,89.74,45.36,88.06z M36.73,93.34
		c0-3.7,0.91-7.29,2.63-10.53c0.94,1.01,1.93,1.97,2.98,2.88c-1.08,2.4-1.68,5.01-1.68,7.65c0,10.26,8.35,18.61,18.61,18.61
		c3.93,0,7.67-1.2,10.82-3.46c2.77-1.99,4.93-4.66,6.25-7.71c0.96-2.19,1.46-4.53,1.52-6.96c1.34-0.36,2.65-0.78,3.92-1.28
		c0.01,0.27,0.03,0.53,0.03,0.8c0,2.88-0.54,5.69-1.61,8.37c-1.1,2.73-2.7,5.19-4.76,7.3c-4.29,4.42-10.03,6.85-16.18,6.85
		C46.84,115.86,36.73,105.76,36.73,93.34z M85.69,109.66c-1.84,0-3.68-0.18-5.49-0.5c1.12-1.47,2.07-3.06,2.86-4.75
		c0.87,0.09,1.75,0.15,2.63,0.15c14.39,0,26.09-11.7,26.09-26.09c0-5.84-2-11.51-5.6-16.09c0.32-2,0.53-4.04,0.53-6.13
		c0-0.29-0.04-0.56-0.04-0.84c6.46,5.88,10.21,14.24,10.21,23.06C116.88,95.67,102.89,109.66,85.69,109.66z"/>
	<path class="st0" d="M67.76,85.29c16.01,0,29.04-13.03,29.04-29.04S83.78,27.21,67.76,27.21S38.73,40.24,38.73,56.25
		S51.75,85.29,67.76,85.29z M67.76,30.94c13.96,0,25.31,11.36,25.31,25.31S81.72,81.56,67.76,81.56S42.45,70.21,42.45,56.25
		S53.81,30.94,67.76,30.94z"/>
	<path class="st0" d="M122.57,23.69c-0.07-0.02-6.81-2.49-6.81-8.12c0-1.03-0.83-1.86-1.86-1.86c-1.03,0-1.86,0.83-1.86,1.86
		c0,5.63-6.74,8.1-6.8,8.12c-0.74,0.26-1.24,0.96-1.24,1.75c0,0.79,0.5,1.49,1.24,1.76c0.07,0.02,6.81,2.49,6.81,8.12
		c0,1.03,0.83,1.86,1.86,1.86c1.03,0,1.86-0.83,1.86-1.86c0-5.61,6.68-8.07,6.81-8.12c0.74-0.26,1.24-0.96,1.24-1.75
		C123.82,24.66,123.32,23.95,122.57,23.69z M113.9,29.28c-1.15-1.69-2.65-2.95-4.01-3.84c1.36-0.89,2.86-2.16,4.01-3.84
		c1.15,1.69,2.65,2.95,4.01,3.84C116.56,26.34,115.05,27.6,113.9,29.28z"/>
	<path class="st0" d="M36.5,114.53c-0.07-0.02-6.81-2.49-6.81-8.12c0-1.03-0.83-1.86-1.86-1.86c-1.03,0-1.86,0.83-1.86,1.86
		c0,5.63-6.74,8.1-6.8,8.12c-0.74,0.26-1.24,0.96-1.24,1.75c0,0.79,0.5,1.49,1.24,1.76c0.07,0.02,6.81,2.49,6.81,8.12
		c0,1.03,0.83,1.86,1.86,1.86c1.03,0,1.86-0.83,1.86-1.86c0-5.63,6.74-8.1,6.81-8.12c0.74-0.26,1.24-0.96,1.24-1.75
		C37.74,115.5,37.24,114.8,36.5,114.53z M27.83,120.13c-1.15-1.69-2.65-2.95-4.01-3.84c1.36-0.89,2.86-2.16,4.01-3.84
		c1.15,1.69,2.65,2.95,4.01,3.84C30.48,117.18,28.97,118.44,27.83,120.13z"/>
	<path class="st0" d="M67.53,78.91c0.08,0.15,0.24,0.25,0.41,0.25s0.33-0.1,0.41-0.25l1.16-2.21c0.04-0.07,0.05-0.14,0.05-0.22
		V35.32c0-0.26-0.21-0.47-0.47-0.47h-2.33c-0.26,0-0.47,0.21-0.47,0.47v41.16c0,0.08,0.02,0.15,0.05,0.22L67.53,78.91z"/>
	<path class="st0" d="M71.01,46.86c3.74,0.99,6.36,4.38,6.36,8.24c0,3.87-2.61,7.26-6.36,8.24c-0.87,0.23-1.39,1.13-1.16,1.99
		c0.19,0.71,0.84,1.21,1.58,1.21c0.14,0,0.28-0.02,0.42-0.05c5.17-1.37,8.78-6.05,8.78-11.4c0-5.34-3.61-10.03-8.78-11.4
		c-0.42-0.11-0.86-0.05-1.24,0.17c-0.38,0.22-0.65,0.57-0.76,0.99c-0.11,0.42-0.05,0.86,0.17,1.24
		C70.24,46.48,70.59,46.75,71.01,46.86z"/>
	<path class="st0" d="M63.88,66.5c0.14,0.04,0.28,0.06,0.42,0.06c0.74,0,1.39-0.5,1.58-1.21c0.23-0.87-0.29-1.76-1.16-1.99
		c-3.74-0.99-6.36-4.38-6.36-8.24c0-3.86,2.61-7.25,6.35-8.24c0.42-0.11,0.77-0.38,0.99-0.76c0.22-0.38,0.28-0.82,0.17-1.24
		c-0.11-0.42-0.38-0.77-0.76-0.99c-0.38-0.22-0.81-0.28-1.24-0.17c-5.17,1.37-8.78,6.05-8.78,11.4
		C55.1,60.45,58.72,65.13,63.88,66.5z"/>
</g>
<g>
	<path class="st1" d="M-639.51,197.03c-0.03-0.01-0.06-0.03-0.1-0.05c-0.04-0.02-0.08-0.04-0.11-0.03c-0.05,0.02-0.06,0.13-0.1,0.2
		c0.07,0.03,0.15,0.1,0.2,0.08c0.03-0.01,0.04-0.04,0.06-0.08C-639.54,197.1-639.53,197.06-639.51,197.03
		C-639.51,197.03-639.51,197.03-639.51,197.03C-639.51,197.03-639.51,197.03-639.51,197.03z"/>
	<path class="st1" d="M-481.74,77.62c-7.63-0.84-15.5-0.08-23.19-0.34c-1.91,0.04-2.4-1.15-1.79-2.73c0.62-2.41,1.69-4.48,4.34-4.28
		c5.98-0.02,11.97,0.01,17.95-0.03c2.19,0.15,5.29-0.86,4.7-3.58c-0.42-1.85-2.43-2.45-4.14-2.46c-5.74-0.09-11.62-0.03-17.37-0.08
		c-1.12,0-2.26-0.3-2.36-1.56c0.3-5.32,0.74-10.87-0.04-16.27c-0.76-5.35-1.89-10.61-3.91-15.59c-0.45-1.15-0.81-2.35-0.83-3.58
		c1.79-16.11,2.04-32.5-1.15-48.38c-0.54-2.86-1.29-5.98-3.42-8.06c-3.15-3.28-8.27-3.54-12.2-1.46
		c-12.53,5.85-23.29,14.18-32.89,23.98c-0.71,0.71-1.57,1.53-2.54,1.66c-1.02,0.2-2.2-0.35-3.19-0.77
		c-7.85-3.43-16.21-5.08-24.92-4.91c-8.57,0.11-16.94,1.88-24.85,5.35c-0.8,0.31-1.57,0.46-2.28,0.3c-0.91-0.17-1.74-0.94-2.42-1.63
		c-10.78-10.54-23.1-20.96-37.66-25.33c-9.37-0.61-10.95,8.55-11.91,15.86c-2.63,14.58-1.98,29.47-0.39,44.11
		c-0.08,1.7-0.77,3.26-1.35,4.84c-1.87,4.95-3,10.18-3.43,15.35c-0.39,4.41-0.25,8.85,0.16,13.34c0.31,1.73-0.87,2.97-2.59,2.86
		c-5.83,0.03-11.66-0.07-17.47,0.01c-2.62-0.22-5.85,2.31-3.53,4.87c1.14,1.1,2.88,1.13,4.4,1.17c5.94,0.05,11.96,0,17.93,0.01
		c2.87-0.21,3.73,2.18,4.34,4.55c0.85,2.3-0.67,2.52-2.55,2.48c-6.82,0.02-13.66-0.04-20.49,0.02c-1.07,0.04-2.21,0.21-3.07,0.83
		c-2.19,1.63-1.13,4.86,1.63,5.01c7.52,0.37,15.04,0.05,22.55,0.15c2.25,0.01,5-0.54,6.35,1.76c4.96,9.04,11.72,17.08,19.89,23.47
		c0.75,0.59,1.67,1.39,1.77,2.29c-0.06,2.49-2.43,4.73-3.32,7.07c-8.94,17.67-9.65,39.14-3.1,57.8c2.89,8.26,7.01,15.91,12.37,22.72
		c2.77,3.47,6.53,8.5,11.65,6.61c3.53-1.17,5.58-5.28,4.37-8.73c-0.89-2.64-3.01-4.54-4.67-6.7c-15.61-18.91-19.01-47.66-6.31-68.87
		c1.03-2.12,2.7-3,4.88-1.82c21.54,9.22,45.96,10.38,68.42,3.94c3.92-1.11,7.75-2.59,11.45-4.25c1.59-0.67,2.81-0.1,3.62,1.29
		c13.57,22.6,9.61,53.56-8.19,72.93c-4.86,4.95-1.99,12.89,5.23,12.56c13.94-0.01,29,1.78,41.46-5.81
		c22.02-13.03,11.13-46.71-14.19-44.25c-1,0.07-1.95-0.33-2.06-1.55c-0.17-3.26-0.04-6.57-0.35-9.83
		c-0.76-10.76-3.89-21.4-9.42-30.65c-1.1-1.61-1.36-3.24,0.37-4.52c7.96-6.17,14.59-13.58,19.52-22.4c0.89-1.99,2.65-3.26,4.87-3.07
		c8.22-0.11,16.48,0.24,24.65-0.15c3.13-0.21,4.02-4.36,0.84-5.45L-481.74,77.62z M-533.32,190.28c2.09-4.37,4.5-8.72,6.17-13.32
		c1.33-4.73,4.92-7.7,9.91-7.73c7.61,0.03,12.28,10.97,6.84,16.29c-5.5,5.56-13.92,5.59-21.24,5.76c-0.65-0.04-1.7-0.05-1.69-0.88
		L-533.32,190.28z M-517.83,61.12c-10.61,67.35-122.03,70.22-139.5,5.9c-3.1-11.84-2-24.67,3.27-35.7c1.11-2.32,0.44-4.84,0.07-7.26
		c-1.93-12.72-1.74-25.5,0.19-38.18c0.38-2.9,2.26-1.57,3.97-0.44c10.12,6.53,19.49,14.35,27.08,23.67
		c1.98,2.64,4.02,3.66,6.99,1.72c16.44-10.02,36.73-10.94,53.4-0.94c1.45,0.81,2.98,1.95,4.66,1.79c1.47-0.11,2.64-1.31,3.57-2.4
		c8.23-9.88,18.15-18.22,29.08-24.94c1.58-0.93,2.3,0.31,2.42,1.89c0.99,7.21,1.47,14.01,1.34,20.97c0.02,6.84-0.62,13.26-1.6,19.65
		c-0.21,1.48-0.13,2.97,0.38,4.37c4.08,9.3,6.38,19.61,4.7,29.72L-517.83,61.12z"/>
	<path class="st1" d="M-599.2,186.34c-1.17-4.78-2.33-9.64-3.51-14.46c-1.4-4.53-1.63-9.57-4.27-13.53
		c-2.27-2.89-6.43-3.67-9.49-1.56c-3.16,1.97-3.77,5.88-2.79,9.27c2.59,10.7,5.24,21.36,7.91,32c0.57,2.53,1.57,5.43,3.96,6.69
		c4.29,2.55,10.71-0.43,10.85-5.73c-0.12-4.26-1.71-8.38-2.61-12.5L-599.2,186.34z"/>
	<path class="st1" d="M-564.53,155.6c-4.98,0.3-6.57,4.72-7.36,8.96c-2.53,11.14-5.33,22.14-7.64,33.28
		c-0.76,6.48,7.38,10.26,12.08,6.02c1.58-1.38,2.3-3.75,2.73-5.79c1.11-5.22,2.48-10.34,3.56-15.55c1.3-5.88,2.7-11.8,4.03-17.7
		c1.52-4.58-2.56-9.6-7.2-9.23L-564.53,155.6z"/>
	<path class="st1" d="M-553.09,51.85c-8.74-0.44-15.42,8.74-12.78,16.96c4.53,14.1,25.29,10.54,25.5-3.88
		c0.06-6.79-5.75-12.91-12.53-13.07L-553.09,51.85z"/>
	<path class="st1" d="M-623.12,51.89c-8.56-0.15-15.17,8.94-12.5,16.99c5.01,14.26,25.86,10.21,25.56-4.6
		c-0.24-6.65-6.21-12.45-12.86-12.39L-623.12,51.89z"/>
	<path class="st1" d="M-583.75,83.4c16.01-12.87,2.15-17.31-11.51-14.61c-4.08,0.67-6.34,4.82-3.79,8.32
		c1.87,2.76,4.49,4.61,6.78,6.89c1.56,1.71,1.22,4.83-0.47,6.29c-1.33,1.3-4.31,1.09-5.76,2.26c-0.82,0.67-1,1.93-0.4,2.8
		c2.31,2.47,6.89,1,9.32-0.64c1.05-0.78,2.25-0.52,3.22,0.26c1.95,1.38,4.3,1.82,6.67,1.51c1.42-0.15,2.74-1.44,2.31-2.92
		c-0.39-1.37-1.92-1.69-3.21-1.97c-3.96-0.37-6.53-5.18-3.29-8.06L-583.75,83.4z"/>
</g>
</svg>
