<svg width="107" height="116" viewBox="0 0 107 116" fill="none" xmlns="http://www.w3.org/2000/svg">
<path d="M89.2003 37.2298C86.2903 18.6098 70.1903 4.2998 50.7703 4.2998C29.3003 4.2998 11.8203 21.7698 11.8203 43.2398C11.8203 52.0798 14.8203 60.2198 19.8003 66.7698C17.3203 70.8698 16.0103 75.5298 16.0103 80.3298C16.0103 94.7998 27.7903 106.58 42.2703 106.58C49.0703 106.58 55.4203 104 60.3203 99.3498C63.0603 100.02 65.8703 100.38 68.6903 100.38C87.9403 100.38 103.6 84.7198 103.6 65.4698C103.61 54.2998 98.2303 43.8098 89.2003 37.2298ZM68.4203 77.9198C77.8203 73.1098 85.0203 64.6198 88.0803 54.3398C90.0203 57.7098 91.0603 61.5398 91.0603 65.4698C91.0603 77.7998 81.0303 87.8298 68.7003 87.8298C68.2903 87.8298 67.8803 87.7998 67.4703 87.7798C68.1803 85.3598 68.5503 82.8698 68.5503 80.3398C68.5403 79.5298 68.4903 78.7198 68.4203 77.9198ZM50.7603 8.02981C70.1803 8.02981 85.9803 23.8298 85.9803 43.2498C85.9803 62.6698 70.1803 78.4698 50.7603 78.4698C31.3403 78.4698 15.5403 62.6698 15.5403 43.2498C15.5403 23.8298 31.3403 8.02981 50.7603 8.02981ZM28.3603 75.0598C34.7003 79.5398 42.4203 82.1998 50.7603 82.1998C52.9203 82.1998 55.0303 81.9798 57.0903 81.6398C56.9503 83.2598 56.5703 84.8198 55.9203 86.2998C54.8603 88.7398 53.1303 90.8798 50.9103 92.4798C48.4003 94.2898 45.4103 95.2398 42.2703 95.2398C34.0603 95.2398 27.3803 88.5598 27.3803 80.3498C27.3803 78.5298 27.7303 76.7398 28.3603 75.0598ZM19.7303 80.3398C19.7303 76.6398 20.6403 73.0498 22.3603 69.8098C23.3003 70.8198 24.2903 71.7798 25.3403 72.6898C24.2603 75.0898 23.6603 77.6998 23.6603 80.3398C23.6603 90.5998 32.0103 98.9498 42.2703 98.9498C46.2003 98.9498 49.9403 97.7498 53.0903 95.4898C55.8603 93.4998 58.0203 90.8298 59.3403 87.7798C60.3003 85.5898 60.8003 83.2498 60.8603 80.8198C62.2003 80.4598 63.5103 80.0398 64.7803 79.5398C64.7903 79.8098 64.8103 80.0698 64.8103 80.3398C64.8103 83.2198 64.2703 86.0298 63.2003 88.7098C62.1003 91.4398 60.5003 93.8998 58.4403 96.0098C54.1503 100.43 48.4103 102.86 42.2603 102.86C29.8403 102.86 19.7303 92.7598 19.7303 80.3398ZM68.6903 96.6598C66.8503 96.6598 65.0103 96.4798 63.2003 96.1598C64.3203 94.6898 65.2703 93.0998 66.0603 91.4098C66.9303 91.4998 67.8103 91.5598 68.6903 91.5598C83.0803 91.5598 94.7803 79.8598 94.7803 65.4698C94.7803 59.6298 92.7803 53.9598 89.1803 49.3798C89.5003 47.3798 89.7103 45.3398 89.7103 43.2498C89.7103 42.9598 89.6703 42.6898 89.6703 42.4098C96.1303 48.2898 99.8803 56.6498 99.8803 65.4698C99.8803 82.6698 85.8903 96.6598 68.6903 96.6598Z" fill="#000"/>
<path d="M50.76 72.29C66.77 72.29 79.8 59.26 79.8 43.25C79.8 27.24 66.78 14.21 50.76 14.21C34.74 14.21 21.73 27.24 21.73 43.25C21.73 59.26 34.75 72.29 50.76 72.29ZM50.76 17.94C64.72 17.94 76.07 29.3 76.07 43.25C76.07 57.2 64.72 68.56 50.76 68.56C36.8 68.56 25.45 57.21 25.45 43.25C25.45 29.29 36.81 17.94 50.76 17.94Z" fill="#000"/>
<path d="M105.57 10.69C105.5 10.67 98.76 8.19996 98.76 2.56996C98.76 1.53996 97.93 0.709961 96.9 0.709961C95.87 0.709961 95.04 1.53996 95.04 2.56996C95.04 8.19996 88.3 10.67 88.24 10.69C87.5 10.95 87 11.65 87 12.44C87 13.23 87.5 13.93 88.24 14.2C88.31 14.22 95.05 16.69 95.05 22.32C95.05 23.35 95.88 24.18 96.91 24.18C97.94 24.18 98.77 23.35 98.77 22.32C98.77 16.71 105.45 14.25 105.58 14.2C106.32 13.94 106.82 13.24 106.82 12.45C106.82 11.66 106.32 10.95 105.57 10.69ZM96.9 16.28C95.75 14.59 94.25 13.33 92.89 12.44C94.25 11.55 95.75 10.28 96.9 8.59996C98.05 10.29 99.55 11.55 100.91 12.44C99.56 13.34 98.05 14.6 96.9 16.28Z" fill="#000"/>
<path d="M19.5002 101.53C19.4302 101.51 12.6902 99.0398 12.6902 93.4098C12.6902 92.3798 11.8602 91.5498 10.8302 91.5498C9.80018 91.5498 8.97017 92.3798 8.97017 93.4098C8.97017 99.0398 2.23018 101.51 2.17018 101.53C1.43018 101.79 0.930176 102.49 0.930176 103.28C0.930176 104.07 1.43018 104.77 2.17018 105.04C2.24018 105.06 8.98018 107.53 8.98018 113.16C8.98018 114.19 9.81018 115.02 10.8402 115.02C11.8702 115.02 12.7002 114.19 12.7002 113.16C12.7002 107.53 19.4402 105.06 19.5102 105.04C20.2502 104.78 20.7502 104.08 20.7502 103.29C20.7402 102.5 20.2402 101.8 19.5002 101.53ZM10.8302 107.13C9.68018 105.44 8.18018 104.18 6.82018 103.29C8.18018 102.4 9.68018 101.13 10.8302 99.4498C11.9802 101.14 13.4802 102.4 14.8402 103.29C13.4802 104.18 11.9702 105.44 10.8302 107.13Z" fill="#000"/>
<path d="M50.53 65.9101C50.61 66.0601 50.77 66.1601 50.94 66.1601C51.11 66.1601 51.27 66.0601 51.35 65.9101L52.51 63.7001C52.55 63.6301 52.56 63.5601 52.56 63.4801V22.3201C52.56 22.0601 52.35 21.8501 52.09 21.8501H49.76C49.5 21.8501 49.29 22.0601 49.29 22.3201V63.4801C49.29 63.5601 49.31 63.6301 49.34 63.7001L50.53 65.9101Z" fill="#000"/>
<path d="M54.0103 33.86C57.7503 34.85 60.3703 38.24 60.3703 42.1C60.3703 45.97 57.7603 49.36 54.0103 50.34C53.1403 50.57 52.6203 51.47 52.8503 52.33C53.0403 53.04 53.6903 53.54 54.4303 53.54C54.5703 53.54 54.7103 53.52 54.8503 53.49C60.0203 52.12 63.6303 47.44 63.6303 42.09C63.6303 36.75 60.0203 32.06 54.8503 30.69C54.4303 30.58 53.9903 30.64 53.6103 30.86C53.2303 31.08 52.9603 31.43 52.8503 31.85C52.7403 32.27 52.8003 32.71 53.0203 33.09C53.2403 33.48 53.5903 33.75 54.0103 33.86Z" fill="#000"/>
<path d="M46.8803 53.4997C47.0203 53.5397 47.1603 53.5597 47.3003 53.5597C48.0403 53.5597 48.6903 53.0597 48.8803 52.3497C49.1103 51.4797 48.5903 50.5897 47.7203 50.3597C43.9803 49.3697 41.3603 45.9797 41.3603 42.1197C41.3603 38.2597 43.9703 34.8697 47.7103 33.8797C48.1303 33.7697 48.4803 33.4997 48.7003 33.1197C48.9203 32.7397 48.9803 32.2997 48.8703 31.8797C48.7603 31.4597 48.4903 31.1097 48.1103 30.8897C47.7303 30.6697 47.3003 30.6097 46.8703 30.7197C41.7003 32.0897 38.0903 36.7697 38.0903 42.1197C38.1003 47.4497 41.7203 52.1297 46.8803 53.4997Z" fill="#000"/>
</svg>
