<svg width="107" height="116" fill="none" xmlns="http://www.w3.org/2000/svg">
    <path
        d="M89.2 37.23C86.29 18.61 70.19 4.3 50.77 4.3c-21.47 0-38.95 17.47-38.95 38.94 0 8.84 3 16.98 7.98 23.53-2.48 4.1-3.79 8.76-3.79 13.56 0 14.47 11.78 26.25 26.26 26.25 6.8 0 13.15-2.58 18.05-7.23 2.74.67 5.55 1.03 8.37 1.03 19.25 0 34.91-15.66 34.91-34.91.01-11.17-5.37-21.66-14.4-28.24zM68.42 77.92c9.4-4.81 16.6-13.3 19.66-23.58 1.94 3.37 2.98 7.2 2.98 11.13 0 12.33-10.03 22.36-22.36 22.36-.41 0-.82-.03-1.23-.05.71-2.42 1.08-4.91 1.08-7.44-.01-.81-.06-1.62-.13-2.42zM50.76 8.03c19.42 0 35.22 15.8 35.22 35.22 0 19.42-15.8 35.22-35.22 35.22-19.42 0-35.22-15.8-35.22-35.22 0-19.42 15.8-35.22 35.22-35.22zm-22.4 67.03c6.34 4.48 14.06 7.14 22.4 7.14 2.16 0 4.27-.22 6.33-.56-.14 1.62-.52 3.18-1.17 4.66a15.02 15.02 0 01-5.01 6.18c-2.51 1.81-5.5 2.76-8.64 2.76-8.21 0-14.89-6.68-14.89-14.89 0-1.82.35-3.61.98-5.29zm-8.63 5.28c0-3.7.91-7.29 2.63-10.53.94 1.01 1.93 1.97 2.98 2.88-1.08 2.4-1.68 5.01-1.68 7.65 0 10.26 8.35 18.61 18.61 18.61 3.93 0 7.67-1.2 10.82-3.46 2.77-1.99 4.93-4.66 6.25-7.71.96-2.19 1.46-4.53 1.52-6.96 1.34-.36 2.65-.78 3.92-1.28.01.27.03.53.03.8a22.367 22.367 0 01-6.37 15.67c-4.29 4.42-10.03 6.85-16.18 6.85-12.42 0-22.53-10.1-22.53-22.52zm48.96 16.32c-1.84 0-3.68-.18-5.49-.5 1.12-1.47 2.07-3.06 2.86-4.75.87.09 1.75.15 2.63.15 14.39 0 26.09-11.7 26.09-26.09 0-5.84-2-11.51-5.6-16.09.32-2 .53-4.04.53-6.13 0-.29-.04-.56-.04-.84a31.202 31.202 0 0110.21 23.06c0 17.2-13.99 31.19-31.19 31.19z"
        fill="#321b7a" />
    <path
        d="M50.76 72.29c16.01 0 29.04-13.03 29.04-29.04 0-16.01-13.02-29.04-29.04-29.04S21.73 27.24 21.73 43.25c0 16.01 13.02 29.04 29.03 29.04zm0-54.35c13.96 0 25.31 11.36 25.31 25.31S64.72 68.56 50.76 68.56c-13.96 0-25.31-11.35-25.31-25.31 0-13.96 11.36-25.31 25.31-25.31zm54.81-7.25c-.07-.02-6.81-2.49-6.81-8.12 0-1.03-.83-1.86-1.86-1.86-1.03 0-1.86.83-1.86 1.86 0 5.63-6.74 8.1-6.8 8.12-.74.26-1.24.96-1.24 1.75s.5 1.49 1.24 1.76c.07.02 6.81 2.49 6.81 8.12 0 1.03.83 1.86 1.86 1.86 1.03 0 1.86-.83 1.86-1.86 0-5.61 6.68-8.07 6.81-8.12.74-.26 1.24-.96 1.24-1.75s-.5-1.5-1.25-1.76zm-8.67 5.59c-1.15-1.69-2.65-2.95-4.01-3.84 1.36-.89 2.86-2.16 4.01-3.84 1.15 1.69 2.65 2.95 4.01 3.84-1.35.9-2.86 2.16-4.01 3.84zm-77.4 85.25c-.07-.02-6.81-2.49-6.81-8.12 0-1.03-.83-1.86-1.86-1.86-1.03 0-1.86.83-1.86 1.86 0 5.63-6.74 8.1-6.8 8.12-.74.26-1.24.96-1.24 1.75s.5 1.49 1.24 1.76c.07.02 6.81 2.49 6.81 8.12 0 1.03.83 1.86 1.86 1.86 1.03 0 1.86-.83 1.86-1.86 0-5.63 6.74-8.1 6.81-8.12.74-.26 1.24-.96 1.24-1.75-.01-.79-.51-1.49-1.25-1.76zm-8.67 5.6c-1.15-1.69-2.65-2.95-4.01-3.84 1.36-.89 2.86-2.16 4.01-3.84 1.15 1.69 2.65 2.95 4.01 3.84-1.36.89-2.87 2.15-4.01 3.84z"
        fill="#321b7a" />
    <path
        d="M50.53 65.91c.08.15.24.25.41.25.17 0 .33-.1.41-.25l1.16-2.21a.42.42 0 00.05-.22V22.32a.47.47 0 00-.47-.47h-2.33a.47.47 0 00-.47.47v41.16c0 .08.02.15.05.22l1.19 2.21zm3.48-32.05c3.74.99 6.36 4.38 6.36 8.24 0 3.87-2.61 7.26-6.36 8.24-.87.23-1.39 1.13-1.16 1.99.19.71.84 1.21 1.58 1.21.14 0 .28-.02.42-.05 5.17-1.37 8.78-6.05 8.78-11.4 0-5.34-3.61-10.03-8.78-11.4-.42-.11-.86-.05-1.24.17-.38.22-.65.57-.76.99-.11.42-.05.86.17 1.24.22.39.57.66.99.77zM46.88 53.5c.14.04.28.06.42.06.74 0 1.39-.5 1.58-1.21.23-.87-.29-1.76-1.16-1.99-3.74-.99-6.36-4.38-6.36-8.24 0-3.86 2.61-7.25 6.35-8.24.42-.11.77-.38.99-.76.22-.38.28-.82.17-1.24-.11-.42-.38-.77-.76-.99-.38-.22-.81-.28-1.24-.17a11.801 11.801 0 00-8.78 11.4c.01 5.33 3.63 10.01 8.79 11.38z"
        fill="#321b7a" />
</svg>