<svg width="225" height="39" viewBox="0 0 225 39" fill="none" xmlns="http://www.w3.org/2000/svg">
<path d="M12.18 37.07C11.85 37.07 11.58 37.34 11.58 37.67C11.58 38 11.85 38.27 12.18 38.27C12.51 38.27 12.78 38 12.78 37.67C12.78 37.34 12.51 37.07 12.18 37.07Z" fill="white"/>
<path d="M12.18 38.77C11.57 38.77 11.08 38.28 11.08 37.67C11.08 37.06 11.57 36.57 12.18 36.57C12.79 36.57 13.28 37.06 13.28 37.67C13.28 38.28 12.79 38.77 12.18 38.77ZM12.18 37.57C12.13 37.57 12.08 37.61 12.08 37.67C12.08 37.78 12.28 37.78 12.28 37.67C12.28 37.62 12.23 37.57 12.18 37.57Z" fill="white"/>
<path d="M19.16 37.07C18.83 37.07 18.56 37.34 18.56 37.67C18.56 38 18.83 38.27 19.16 38.27C19.49 38.27 19.76 38 19.76 37.67C19.76 37.34 19.49 37.07 19.16 37.07Z" fill="white"/>
<path d="M19.16 38.77C18.55 38.77 18.06 38.28 18.06 37.67C18.06 37.06 18.55 36.57 19.16 36.57C19.77 36.57 20.26 37.06 20.26 37.67C20.26 38.28 19.77 38.77 19.16 38.77ZM19.16 37.57C19.11 37.57 19.06 37.61 19.06 37.67C19.06 37.78 19.26 37.78 19.26 37.67C19.26 37.62 19.22 37.57 19.16 37.57Z" fill="white"/>
<path d="M26.1 37.12C25.77 37.12 25.5 37.39 25.5 37.72C25.5 38.05 25.77 38.32 26.1 38.32C26.43 38.32 26.7 38.05 26.7 37.72C26.7 37.39 26.43 37.12 26.1 37.12Z" fill="white"/>
<path d="M26.1 38.81C25.49 38.81 25 38.32 25 37.71C25 37.1 25.49 36.61 26.1 36.61C26.71 36.61 27.2 37.1 27.2 37.71C27.2 38.32 26.7 38.81 26.1 38.81ZM26.1 37.62C26.05 37.62 26 37.66 26 37.72C26 37.83 26.2 37.83 26.2 37.72C26.2 37.66 26.15 37.62 26.1 37.62Z" fill="white"/>
<path d="M36.59 31.05C36.26 31.05 35.99 31.32 35.99 31.65C35.99 31.98 36.26 32.25 36.59 32.25C36.92 32.25 37.19 31.98 37.19 31.65C37.19 31.32 36.92 31.05 36.59 31.05Z" fill="white"/>
<path d="M36.59 32.75C35.98 32.75 35.49 32.26 35.49 31.65C35.49 31.04 35.98 30.55 36.59 30.55C37.2 30.55 37.69 31.04 37.69 31.65C37.69 32.26 37.2 32.75 36.59 32.75ZM36.59 31.55C36.54 31.55 36.49 31.59 36.49 31.65C36.49 31.76 36.69 31.76 36.69 31.65C36.69 31.59 36.65 31.55 36.59 31.55Z" fill="white"/>
<path d="M39.96 25.05C39.63 25.05 39.36 25.32 39.36 25.65C39.36 25.98 39.63 26.25 39.96 26.25C40.29 26.25 40.56 25.98 40.56 25.65C40.55 25.31 40.29 25.05 39.96 25.05Z" fill="white"/>
<path d="M39.96 26.74C39.35 26.74 38.86 26.25 38.86 25.64C38.86 25.03 39.35 24.54 39.96 24.54C40.57 24.54 41.06 25.03 41.06 25.64C41.06 26.25 40.56 26.74 39.96 26.74ZM39.96 25.55C39.91 25.55 39.86 25.59 39.86 25.65C39.86 25.76 40.06 25.76 40.06 25.65C40.05 25.59 40.01 25.55 39.96 25.55Z" fill="white"/>
<path d="M43.44 19.04C43.11 19.04 42.84 19.31 42.84 19.64C42.84 19.97 43.11 20.24 43.44 20.24C43.77 20.24 44.04 19.97 44.04 19.64C44.04 19.31 43.77 19.04 43.44 19.04Z" fill="white"/>
<path d="M43.44 20.74C42.83 20.74 42.34 20.25 42.34 19.64C42.34 19.03 42.83 18.54 43.44 18.54C44.05 18.54 44.54 19.03 44.54 19.64C44.54 20.25 44.05 20.74 43.44 20.74ZM43.44 19.54C43.39 19.54 43.34 19.58 43.34 19.64C43.34 19.75 43.54 19.75 43.54 19.64C43.54 19.59 43.5 19.54 43.44 19.54Z" fill="white"/>
<path d="M40.02 12.99C39.69 12.99 39.42 13.26 39.42 13.59C39.42 13.92 39.69 14.19 40.02 14.19C40.35 14.19 40.62 13.92 40.62 13.59C40.62 13.25 40.35 12.99 40.02 12.99Z" fill="white"/>
<path d="M40.02 14.68C39.41 14.68 38.92 14.19 38.92 13.58C38.92 12.97 39.41 12.48 40.02 12.48C40.63 12.48 41.12 12.97 41.12 13.58C41.12 14.19 40.62 14.68 40.02 14.68ZM40.02 13.49C39.97 13.49 39.92 13.53 39.92 13.59C39.92 13.7 40.12 13.7 40.12 13.59C40.12 13.53 40.07 13.49 40.02 13.49Z" fill="white"/>
<path d="M36.57 8.28C36.9 8.28 37.17 8.01 37.17 7.68C37.17 7.35 36.9 7.08 36.57 7.08C36.24 7.08 35.97 7.35 35.97 7.68C35.97 8.01 36.24 8.28 36.57 8.28Z" fill="white"/>
<path d="M36.57 8.78C35.96 8.78 35.47 8.29 35.47 7.68C35.47 7.07 35.96 6.58 36.57 6.58C37.18 6.58 37.67 7.07 37.67 7.68C37.67 8.29 37.17 8.78 36.57 8.78ZM36.57 7.58C36.52 7.58 36.47 7.62 36.47 7.68C36.47 7.79 36.67 7.79 36.67 7.68C36.67 7.62 36.62 7.58 36.57 7.58Z" fill="white"/>
<path d="M33.08 37.12C32.75 37.12 32.48 37.39 32.48 37.72C32.48 38.05 32.75 38.32 33.08 38.32C33.41 38.32 33.68 38.05 33.68 37.72C33.68 37.39 33.41 37.12 33.08 37.12Z" fill="white"/>
<path d="M33.08 38.81C32.47 38.81 31.98 38.32 31.98 37.71C31.98 37.1 32.47 36.61 33.08 36.61C33.69 36.61 34.18 37.1 34.18 37.71C34.18 38.32 33.69 38.81 33.08 38.81ZM33.08 37.62C33.03 37.62 32.98 37.66 32.98 37.72C32.98 37.83 33.18 37.83 33.18 37.72C33.18 37.66 33.13 37.62 33.08 37.62Z" fill="white"/>
<path d="M8.72003 31.05C8.39003 31.05 8.12003 31.32 8.12003 31.65C8.12003 31.98 8.39003 32.25 8.72003 32.25C9.05003 32.25 9.32003 31.98 9.32003 31.65C9.32003 31.32 9.05003 31.05 8.72003 31.05Z" fill="white"/>
<path d="M8.72003 32.75C8.11003 32.75 7.62003 32.26 7.62003 31.65C7.62003 31.04 8.11003 30.55 8.72003 30.55C9.33003 30.55 9.82002 31.04 9.82002 31.65C9.82002 32.26 9.32003 32.75 8.72003 32.75ZM8.72003 31.55C8.67003 31.55 8.62002 31.59 8.62002 31.65C8.62002 31.76 8.82002 31.76 8.82002 31.65C8.82002 31.59 8.77003 31.55 8.72003 31.55Z" fill="white"/>
<path d="M15.7 30.44C15.03 30.44 14.49 30.98 14.49 31.65C14.49 32.32 15.03 32.86 15.7 32.86C16.37 32.86 16.91 32.32 16.91 31.65C16.91 30.98 16.37 30.44 15.7 30.44Z" fill="white"/>
<path d="M15.7 33.35C14.76 33.35 13.99 32.58 13.99 31.64C13.99 30.7 14.76 29.93 15.7 29.93C16.64 29.93 17.41 30.7 17.41 31.64C17.41 32.59 16.64 33.35 15.7 33.35ZM15.7 30.94C15.31 30.94 14.99 31.26 14.99 31.65C14.99 32.04 15.31 32.36 15.7 32.36C16.09 32.36 16.41 32.04 16.41 31.65C16.41 31.26 16.09 30.94 15.7 30.94Z" fill="white"/>
<path d="M5.23001 25.07C4.90001 25.07 4.63 25.34 4.63 25.67C4.63 26 4.90001 26.27 5.23001 26.27C5.56001 26.27 5.83001 26 5.83001 25.67C5.83001 25.33 5.56001 25.07 5.23001 25.07Z" fill="white"/>
<path d="M5.23001 26.76C4.62001 26.76 4.13 26.27 4.13 25.66C4.13 25.05 4.62001 24.56 5.23001 24.56C5.84001 24.56 6.33001 25.05 6.33001 25.66C6.33001 26.27 5.83001 26.76 5.23001 26.76ZM5.23001 25.57C5.18001 25.57 5.13 25.61 5.13 25.67C5.13 25.78 5.33001 25.78 5.33001 25.67C5.33001 25.61 5.28001 25.57 5.23001 25.57Z" fill="white"/>
<path d="M12.21 25.07C11.88 25.07 11.61 25.34 11.61 25.67C11.61 26 11.88 26.27 12.21 26.27C12.54 26.27 12.81 26 12.81 25.67C12.81 25.33 12.54 25.07 12.21 25.07Z" fill="white"/>
<path d="M12.21 26.76C11.6 26.76 11.11 26.27 11.11 25.66C11.11 25.05 11.6 24.56 12.21 24.56C12.82 24.56 13.31 25.05 13.31 25.66C13.31 26.27 12.81 26.76 12.21 26.76ZM12.21 25.57C12.16 25.57 12.11 25.61 12.11 25.67C12.11 25.78 12.31 25.78 12.31 25.67C12.31 25.61 12.26 25.57 12.21 25.57Z" fill="white"/>
<path d="M19.15 24.5C18.48 24.5 17.94 25.04 17.94 25.71C17.94 26.37 18.48 26.92 19.15 26.92C19.82 26.92 20.36 26.38 20.36 25.71C20.35 25.04 19.81 24.5 19.15 24.5Z" fill="white"/>
<path d="M19.15 27.42C18.21 27.42 17.44 26.65 17.44 25.71C17.44 24.77 18.2 24 19.15 24C20.1 24 20.86 24.77 20.86 25.71C20.86 26.65 20.09 27.42 19.15 27.42ZM19.15 25C18.76 25 18.44 25.32 18.44 25.71C18.44 26.1 18.76 26.42 19.15 26.42C19.54 26.42 19.86 26.1 19.86 25.71C19.86 25.32 19.53 25 19.15 25Z" fill="white"/>
<path d="M1.74002 19.04C1.41002 19.04 1.14001 19.31 1.14001 19.64C1.14001 19.97 1.41002 20.24 1.74002 20.24C2.07002 20.24 2.34002 19.97 2.34002 19.64C2.34002 19.31 2.07002 19.04 1.74002 19.04Z" fill="white"/>
<path d="M1.74002 20.74C1.13002 20.74 0.640015 20.25 0.640015 19.64C0.640015 19.03 1.13002 18.54 1.74002 18.54C2.35002 18.54 2.84002 19.03 2.84002 19.64C2.84002 20.25 2.34002 20.74 1.74002 20.74ZM1.74002 19.54C1.69002 19.54 1.64001 19.58 1.64001 19.64C1.64001 19.75 1.84002 19.75 1.84002 19.64C1.84002 19.58 1.79002 19.54 1.74002 19.54Z" fill="white"/>
<path d="M8.72003 19.04C8.39003 19.04 8.12003 19.31 8.12003 19.64C8.12003 19.97 8.39003 20.24 8.72003 20.24C9.05003 20.24 9.32003 19.97 9.32003 19.64C9.32003 19.31 9.05003 19.04 8.72003 19.04Z" fill="white"/>
<path d="M8.72003 20.74C8.11003 20.74 7.62003 20.25 7.62003 19.64C7.62003 19.03 8.11003 18.54 8.72003 18.54C9.33003 18.54 9.82002 19.03 9.82002 19.64C9.82002 20.25 9.32003 20.74 8.72003 20.74ZM8.72003 19.54C8.67003 19.54 8.62002 19.58 8.62002 19.64C8.62002 19.75 8.82002 19.75 8.82002 19.64C8.82002 19.58 8.77003 19.54 8.72003 19.54Z" fill="white"/>
<path d="M15.06 19.68C15.06 20.01 15.33 20.28 15.66 20.28C15.99 20.28 16.26 20.01 16.26 19.68C16.26 19.35 15.99 19.08 15.66 19.08C15.32 19.08 15.06 19.35 15.06 19.68Z" fill="white"/>
<path d="M15.66 20.78C15.05 20.78 14.56 20.29 14.56 19.68C14.56 19.07 15.05 18.58 15.66 18.58C16.27 18.58 16.76 19.07 16.76 19.68C16.76 20.29 16.26 20.78 15.66 20.78ZM15.66 19.58C15.61 19.58 15.56 19.62 15.56 19.68C15.56 19.79 15.76 19.79 15.76 19.68C15.75 19.63 15.71 19.58 15.66 19.58Z" fill="white"/>
<path d="M22.64 18.48C21.97 18.48 21.43 19.02 21.43 19.69C21.43 20.36 21.97 20.9 22.64 20.9C23.31 20.9 23.85 20.36 23.85 19.69C23.84 19.02 23.3 18.48 22.64 18.48Z" fill="white"/>
<path d="M22.64 21.39C21.7 21.39 20.93 20.62 20.93 19.68C20.93 18.74 21.7 17.97 22.64 17.97C23.58 17.97 24.35 18.74 24.35 19.68C24.34 20.62 23.58 21.39 22.64 21.39ZM22.64 18.98C22.25 18.98 21.93 19.3 21.93 19.69C21.93 20.08 22.25 20.4 22.64 20.4C23.03 20.4 23.35 20.08 23.35 19.69C23.35 19.3 23.03 18.98 22.64 18.98Z" fill="white"/>
<path d="M5.23001 13.06C4.90001 13.06 4.63 13.33 4.63 13.66C4.63 13.99 4.90001 14.26 5.23001 14.26C5.56001 14.26 5.83001 13.99 5.83001 13.66C5.83001 13.32 5.56001 13.06 5.23001 13.06Z" fill="white"/>
<path d="M5.23001 14.75C4.62001 14.75 4.13 14.26 4.13 13.65C4.13 13.04 4.62001 12.55 5.23001 12.55C5.84001 12.55 6.33001 13.04 6.33001 13.65C6.33001 14.26 5.83001 14.75 5.23001 14.75ZM5.23001 13.56C5.18001 13.56 5.13 13.6 5.13 13.66C5.13 13.77 5.33001 13.77 5.33001 13.66C5.33001 13.6 5.28001 13.56 5.23001 13.56Z" fill="white"/>
<path d="M12.21 13.06C11.88 13.06 11.61 13.33 11.61 13.66C11.61 13.99 11.88 14.26 12.21 14.26C12.54 14.26 12.81 13.99 12.81 13.66C12.81 13.32 12.54 13.06 12.21 13.06Z" fill="white"/>
<path d="M12.21 14.75C11.6 14.75 11.11 14.26 11.11 13.65C11.11 13.04 11.6 12.55 12.21 12.55C12.82 12.55 13.31 13.04 13.31 13.65C13.31 14.26 12.81 14.75 12.21 14.75ZM12.21 13.56C12.16 13.56 12.11 13.6 12.11 13.66C12.11 13.77 12.31 13.77 12.31 13.66C12.31 13.6 12.26 13.56 12.21 13.56Z" fill="white"/>
<path d="M19.15 14.91C19.8183 14.91 20.36 14.3683 20.36 13.7C20.36 13.0317 19.8183 12.49 19.15 12.49C18.4817 12.49 17.94 13.0317 17.94 13.7C17.94 14.3683 18.4817 14.91 19.15 14.91Z" fill="white"/>
<path d="M19.15 15.41C18.21 15.41 17.44 14.64 17.44 13.7C17.44 12.76 18.21 11.99 19.15 11.99C20.09 11.99 20.86 12.76 20.86 13.7C20.85 14.64 20.09 15.41 19.15 15.41ZM19.15 12.99C18.76 12.99 18.44 13.31 18.44 13.7C18.44 14.09 18.76 14.41 19.15 14.41C19.54 14.41 19.86 14.09 19.86 13.7C19.86 13.31 19.53 12.99 19.15 12.99Z" fill="white"/>
<path d="M12.12 2.24C12.45 2.24 12.72 1.97 12.72 1.64C12.72 1.31 12.45 1.04 12.12 1.04C11.79 1.04 11.52 1.31 11.52 1.64C11.52 1.97 11.79 2.24 12.12 2.24Z" fill="white"/>
<path d="M12.12 2.74C11.51 2.74 11.02 2.25 11.02 1.64C11.02 1.03 11.51 0.540001 12.12 0.540001C12.73 0.540001 13.22 1.03 13.22 1.64C13.22 2.25 12.72 2.74 12.12 2.74ZM12.12 1.55C12.07 1.55 12.02 1.59 12.02 1.65C12.02 1.76 12.22 1.76 12.22 1.65C12.21 1.59 12.17 1.55 12.12 1.55Z" fill="white"/>
<path d="M19.1 2.24C19.43 2.24 19.7 1.97 19.7 1.64C19.7 1.31 19.43 1.04 19.1 1.04C18.77 1.04 18.5 1.31 18.5 1.64C18.5 1.97 18.77 2.24 19.1 2.24Z" fill="white"/>
<path d="M19.1 2.74C18.49 2.74 18 2.25 18 1.64C18 1.03 18.49 0.540001 19.1 0.540001C19.71 0.540001 20.2 1.03 20.2 1.64C20.2 2.25 19.7 2.74 19.1 2.74ZM19.1 1.55C19.05 1.55 19 1.59 19 1.65C19 1.76 19.2 1.76 19.2 1.65C19.2 1.59 19.15 1.55 19.1 1.55Z" fill="white"/>
<path d="M26.03 2.29C26.36 2.29 26.63 2.02 26.63 1.69C26.63 1.36 26.36 1.09 26.03 1.09C25.7 1.09 25.43 1.36 25.43 1.69C25.44 2.02 25.7 2.29 26.03 2.29Z" fill="white"/>
<path d="M26.03 2.79C25.42 2.79 24.93 2.3 24.93 1.69C24.93 1.08 25.42 0.589996 26.03 0.589996C26.64 0.589996 27.13 1.08 27.13 1.69C27.13 2.3 26.64 2.79 26.03 2.79ZM26.03 1.59C25.98 1.59 25.93 1.63 25.93 1.69C25.93 1.8 26.13 1.8 26.13 1.69C26.13 1.63 26.09 1.59 26.03 1.59Z" fill="white"/>
<path d="M29.4 9.47C30.44 9.58 31.37 8.82 31.48 7.78C31.59 6.74 30.83 5.81 29.79 5.7C28.75 5.59 27.82 6.35 27.71 7.39C27.6 8.43 28.36 9.36 29.4 9.47Z" fill="white"/>
<path d="M29.6 9.98C29.52 9.98 29.43 9.98 29.35 9.97C28.04 9.84 27.08 8.66 27.21 7.34C27.28 6.7 27.59 6.13 28.08 5.73C28.58 5.33 29.2 5.14 29.84 5.21C31.15 5.35 32.11 6.52 31.98 7.84C31.91 8.48 31.6 9.05 31.11 9.45C30.67 9.79 30.15 9.98 29.6 9.98ZM29.59 6.19C29.27 6.19 28.96 6.3 28.71 6.5C28.42 6.74 28.24 7.07 28.2 7.44C28.12 8.2 28.68 8.89 29.44 8.97C29.81 9.01 30.17 8.9 30.46 8.66C30.75 8.43 30.93 8.09 30.97 7.72C31.05 6.96 30.49 6.27 29.73 6.19C29.69 6.19 29.64 6.19 29.59 6.19Z" fill="white"/>
<path d="M23.52 9.36C24.43 8.84 24.74 7.68 24.21 6.77C23.69 5.86 22.53 5.55 21.62 6.08C20.71 6.6 20.4 7.76 20.93 8.67C21.45 9.57 22.61 9.88 23.52 9.36Z" fill="white"/>
<path d="M22.57 10.11C22.36 10.11 22.15 10.08 21.95 10.03C21.33 9.86 20.82 9.47 20.5 8.91C20.18 8.35 20.1 7.71 20.26 7.09C20.43 6.47 20.82 5.96 21.38 5.64C21.93 5.32 22.58 5.24 23.2 5.4C23.82 5.57 24.33 5.96 24.65 6.52C24.97 7.08 25.05 7.72 24.89 8.34C24.72 8.96 24.33 9.47 23.77 9.79C23.4 10 22.99 10.11 22.57 10.11ZM22.57 6.32C22.33 6.32 22.09 6.38 21.88 6.51C21.56 6.7 21.33 7 21.23 7.36C21.13 7.72 21.18 8.1 21.37 8.42C21.56 8.74 21.86 8.97 22.22 9.07C22.58 9.16 22.95 9.12 23.28 8.93C23.6 8.74 23.83 8.44 23.93 8.08C24.03 7.72 23.98 7.34 23.79 7.02C23.6 6.7 23.3 6.47 22.94 6.37C22.81 6.34 22.69 6.32 22.57 6.32Z" fill="white"/>
<path d="M24.46 14.56C24.98 15.47 26.14 15.78 27.05 15.25C27.96 14.73 28.27 13.57 27.74 12.66C27.22 11.75 26.06 11.44 25.15 11.97C24.25 12.49 23.94 13.65 24.46 14.56Z" fill="white"/>
<path d="M26.11 16C25.28 16 24.48 15.57 24.03 14.8C23.71 14.25 23.63 13.6 23.79 12.98C23.96 12.36 24.35 11.85 24.91 11.53C25.47 11.21 26.11 11.13 26.73 11.29C27.35 11.46 27.86 11.85 28.18 12.41C28.84 13.55 28.45 15.02 27.3 15.68C26.92 15.9 26.51 16 26.11 16ZM24.9 14.31C25.28 14.98 26.14 15.21 26.8 14.82C27.47 14.44 27.69 13.58 27.31 12.92C27.12 12.6 26.82 12.37 26.46 12.27C26.1 12.17 25.72 12.22 25.4 12.41C25.08 12.6 24.85 12.9 24.75 13.26C24.66 13.61 24.71 13.98 24.9 14.31Z" fill="white"/>
<path d="M31.35 14.6C31.87 15.51 33.03 15.82 33.94 15.29C34.85 14.77 35.16 13.61 34.63 12.7C34.1 11.79 32.95 11.48 32.04 12.01C31.14 12.54 30.83 13.7 31.35 14.6Z" fill="white"/>
<path d="M33 16.05C32.79 16.05 32.58 16.02 32.38 15.97C31.76 15.8 31.25 15.41 30.93 14.85C30.27 13.71 30.66 12.24 31.81 11.58C32.95 10.92 34.42 11.31 35.08 12.46C35.4 13.01 35.48 13.66 35.32 14.28C35.15 14.9 34.76 15.41 34.2 15.73C33.82 15.94 33.41 16.05 33 16.05ZM32.99 12.26C32.75 12.26 32.51 12.32 32.3 12.45C31.63 12.83 31.41 13.69 31.79 14.35C31.98 14.67 32.28 14.9 32.64 15C33 15.1 33.38 15.05 33.7 14.86C34.02 14.67 34.25 14.37 34.35 14.01C34.45 13.65 34.4 13.27 34.21 12.95C33.94 12.51 33.47 12.26 32.99 12.26Z" fill="white"/>
<path d="M28.56 18.09C27.65 18.61 27.34 19.77 27.87 20.68C28.39 21.59 29.55 21.9 30.46 21.37C31.37 20.85 31.68 19.69 31.15 18.78C30.62 17.88 29.46 17.57 28.56 18.09Z" fill="white"/>
<path d="M29.51 22.12C29.3 22.12 29.09 22.09 28.89 22.04C28.27 21.87 27.76 21.48 27.44 20.92C27.12 20.36 27.04 19.72 27.2 19.1C27.37 18.48 27.76 17.97 28.32 17.65C29.47 16.99 30.93 17.38 31.59 18.53C32.25 19.67 31.86 21.14 30.71 21.8C30.33 22.01 29.92 22.12 29.51 22.12ZM28.81 18.52C28.49 18.71 28.26 19.01 28.16 19.37C28.06 19.73 28.11 20.11 28.3 20.43C28.49 20.75 28.79 20.98 29.15 21.08C29.51 21.18 29.88 21.13 30.21 20.94C30.88 20.56 31.1 19.7 30.72 19.04C30.53 18.72 30.23 18.49 29.87 18.39C29.5 18.29 29.13 18.34 28.81 18.52Z" fill="white"/>
<path d="M35.54 18.04C34.63 18.56 34.32 19.72 34.85 20.63C35.37 21.54 36.53 21.85 37.44 21.32C38.35 20.8 38.66 19.64 38.13 18.73C37.6 17.83 36.44 17.52 35.54 18.04Z" fill="white"/>
<path d="M36.49 22.08C35.66 22.08 34.86 21.65 34.41 20.88C34.09 20.33 34.01 19.68 34.17 19.06C34.34 18.44 34.73 17.93 35.29 17.61C35.84 17.29 36.49 17.21 37.11 17.37C37.73 17.54 38.24 17.93 38.56 18.49C39.22 19.63 38.83 21.1 37.68 21.76C37.3 21.97 36.89 22.08 36.49 22.08ZM36.48 18.29C36.24 18.29 36 18.35 35.79 18.48C35.47 18.67 35.24 18.97 35.14 19.33C35.04 19.69 35.09 20.07 35.28 20.39C35.66 21.06 36.52 21.29 37.18 20.9C37.85 20.52 38.07 19.66 37.69 19C37.5 18.68 37.2 18.45 36.84 18.35C36.72 18.3 36.6 18.29 36.48 18.29Z" fill="white"/>
<path d="M32.09 24.03C31.18 24.55 30.87 25.71 31.4 26.62C31.92 27.53 33.08 27.84 33.99 27.31C34.9 26.79 35.21 25.63 34.68 24.72C34.15 23.81 33 23.5 32.09 24.03Z" fill="white"/>
<path d="M33.04 28.06C32.21 28.06 31.41 27.63 30.96 26.86C30.64 26.31 30.56 25.66 30.72 25.04C30.89 24.42 31.28 23.91 31.84 23.59C32.39 23.27 33.04 23.19 33.66 23.35C34.28 23.52 34.79 23.91 35.11 24.47C35.77 25.61 35.38 27.08 34.23 27.74C33.86 27.96 33.45 28.06 33.04 28.06ZM33.04 24.27C32.8 24.27 32.56 24.33 32.35 24.46C32.03 24.65 31.8 24.95 31.7 25.31C31.6 25.67 31.65 26.05 31.84 26.37C32.22 27.03 33.08 27.27 33.74 26.88C34.41 26.5 34.63 25.64 34.25 24.98C34.06 24.66 33.76 24.43 33.4 24.33C33.28 24.29 33.16 24.27 33.04 24.27Z" fill="white"/>
<path d="M27.74 24.67C27.22 23.76 26.06 23.45 25.15 23.98C24.24 24.5 23.93 25.66 24.46 26.57C24.99 27.48 26.14 27.79 27.05 27.26C27.96 26.74 28.27 25.58 27.74 24.67Z" fill="white"/>
<path d="M26.11 28.01C25.9 28.01 25.69 27.98 25.49 27.93C24.87 27.76 24.36 27.37 24.04 26.81C23.72 26.25 23.64 25.61 23.8 24.99C23.97 24.37 24.36 23.86 24.92 23.54C25.47 23.22 26.12 23.14 26.74 23.3C27.36 23.47 27.87 23.86 28.19 24.42C28.51 24.97 28.59 25.62 28.43 26.24C28.26 26.86 27.87 27.37 27.31 27.69C26.93 27.91 26.52 28.01 26.11 28.01ZM26.1 24.23C25.86 24.23 25.62 24.29 25.41 24.42C25.09 24.61 24.86 24.91 24.76 25.27C24.66 25.63 24.71 26.01 24.9 26.33C25.09 26.65 25.39 26.88 25.75 26.98C26.11 27.07 26.48 27.03 26.81 26.84C27.13 26.65 27.36 26.35 27.46 25.99C27.56 25.63 27.51 25.25 27.32 24.93C27.13 24.61 26.83 24.38 26.47 24.28C26.34 24.24 26.22 24.23 26.1 24.23Z" fill="white"/>
<path d="M21.58 30.01C20.67 30.53 20.36 31.69 20.89 32.6C21.42 33.51 22.57 33.82 23.48 33.29C24.39 32.77 24.7 31.61 24.17 30.7C23.64 29.79 22.48 29.48 21.58 30.01Z" fill="white"/>
<path d="M22.53 34.04C21.7 34.04 20.9 33.61 20.45 32.84C20.13 32.29 20.05 31.64 20.21 31.02C20.38 30.4 20.77 29.89 21.33 29.57C22.47 28.91 23.94 29.3 24.6 30.45C25.26 31.59 24.87 33.06 23.72 33.72C23.34 33.94 22.93 34.04 22.53 34.04ZM21.83 30.44C21.51 30.63 21.28 30.93 21.18 31.29C21.08 31.65 21.13 32.03 21.32 32.35C21.7 33.01 22.56 33.25 23.22 32.86C23.89 32.48 24.11 31.62 23.73 30.96C23.35 30.29 22.49 30.06 21.83 30.44Z" fill="white"/>
<path d="M28.6 30.01C27.69 30.53 27.38 31.69 27.91 32.6C28.44 33.51 29.59 33.82 30.5 33.29C31.41 32.77 31.72 31.61 31.19 30.7C30.67 29.8 29.51 29.48 28.6 30.01Z" fill="white"/>
<path d="M29.55 34.04C28.72 34.04 27.92 33.61 27.47 32.84C26.81 31.7 27.2 30.23 28.35 29.57C29.49 28.91 30.96 29.3 31.62 30.45C32.28 31.59 31.89 33.06 30.74 33.72C30.37 33.94 29.96 34.04 29.55 34.04ZM28.85 30.44C28.18 30.82 27.96 31.68 28.34 32.34C28.72 33 29.58 33.24 30.24 32.85C30.91 32.47 31.13 31.61 30.75 30.95C30.37 30.29 29.52 30.06 28.85 30.44Z" fill="white"/>
<path d="M33.02 2.29C33.35 2.29 33.62 2.02 33.62 1.69C33.62 1.36 33.35 1.09 33.02 1.09C32.69 1.09 32.42 1.36 32.42 1.69C32.42 2.02 32.68 2.29 33.02 2.29Z" fill="white"/>
<path d="M33.02 2.79C32.41 2.79 31.92 2.3 31.92 1.69C31.92 1.08 32.41 0.589996 33.02 0.589996C33.63 0.589996 34.12 1.08 34.12 1.69C34.12 2.3 33.62 2.79 33.02 2.79ZM33.02 1.59C32.97 1.59 32.92 1.63 32.92 1.69C32.92 1.8 33.12 1.8 33.12 1.69C33.11 1.63 33.07 1.59 33.02 1.59Z" fill="white"/>
<path d="M8.72003 8.23C9.05003 8.23 9.32003 7.96 9.32003 7.63C9.32003 7.3 9.05003 7.03 8.72003 7.03C8.39003 7.03 8.12003 7.3 8.12003 7.63C8.12003 7.96 8.39003 8.23 8.72003 8.23Z" fill="white"/>
<path d="M8.72003 8.73C8.11003 8.73 7.62003 8.24 7.62003 7.63C7.62003 7.02 8.11003 6.53 8.72003 6.53C9.33003 6.53 9.82002 7.02 9.82002 7.63C9.82002 8.24 9.32003 8.73 8.72003 8.73ZM8.72003 7.53C8.67003 7.53 8.62002 7.57 8.62002 7.63C8.62002 7.74 8.82002 7.74 8.82002 7.63C8.82002 7.57 8.77003 7.53 8.72003 7.53Z" fill="white"/>
<path d="M15.7 8.83C16.37 8.83 16.91 8.29 16.91 7.62C16.91 6.95 16.37 6.41 15.7 6.41C15.03 6.41 14.49 6.95 14.49 7.62C14.49 8.29 15.03 8.83 15.7 8.83Z" fill="white"/>
<path d="M15.7 9.33C14.76 9.33 13.99 8.56 13.99 7.62C13.99 6.68 14.76 5.91 15.7 5.91C16.64 5.91 17.41 6.68 17.41 7.62C17.41 8.56 16.64 9.33 15.7 9.33ZM15.7 6.92C15.31 6.92 14.99 7.24 14.99 7.63C14.99 8.02 15.31 8.34 15.7 8.34C16.09 8.34 16.41 8.02 16.41 7.63C16.41 7.24 16.09 6.92 15.7 6.92Z" fill="white"/>
<path d="M67.56 6.98H56.1V33.26H59.37V24.83H67.33C70.15 24.83 72.45 23.99 74.18 22.33C75.91 20.66 76.79 18.49 76.79 15.87C76.79 13.27 75.93 11.12 74.22 9.46C72.52 7.81 70.28 6.98 67.56 6.98ZM71.76 20.15C70.62 21.26 69.06 21.82 67.14 21.82H59.37V9.98H67.33C69.2 9.98 70.66 10.53 71.8 11.65C72.93 12.77 73.48 14.16 73.48 15.9C73.48 17.64 72.92 19.03 71.76 20.15Z" fill="white"/>
<path d="M89.63 14C88.2 14 86.82 14.34 85.54 15C84.71 15.43 83.98 16.01 83.36 16.72V5.69H80.09V33.25H83.36V23.95C83.36 21.99 83.93 20.34 85.05 19.04C86.17 17.75 87.53 17.12 89.21 17.12C90.72 17.12 91.92 17.63 92.91 18.68C93.9 19.74 94.38 21.04 94.38 22.67V33.26H97.65V22.1C97.65 19.81 96.88 17.87 95.37 16.33C93.85 14.79 91.92 14 89.63 14Z" fill="white"/>
<path d="M147.74 14C146.25 14 144.84 14.36 143.55 15.06C142.72 15.52 141.98 16.13 141.36 16.89V14.34H138.17V33.25H141.44V23.87C141.44 21.91 142.01 20.26 143.13 18.96C144.25 17.67 145.61 17.04 147.29 17.04C148.77 17.04 149.98 17.55 150.97 18.6C151.97 19.66 152.46 20.96 152.46 22.58V33.25H155.69V22.1C155.69 19.81 154.93 17.87 153.43 16.33C151.92 14.79 150.01 14 147.74 14Z" fill="white"/>
<path d="M168.9 14C166.08 14 163.7 14.94 161.84 16.79C159.97 18.64 159.03 21.01 159.03 23.83C159.03 26.65 159.97 29.02 161.82 30.87C163.67 32.72 166.03 33.66 168.82 33.66C170.74 33.66 172.5 33.21 174.06 32.33C175.63 31.44 176.79 30.23 177.51 28.73L177.73 28.28L175.04 27L174.81 27.42C174.25 28.44 173.44 29.27 172.41 29.87C171.37 30.48 170.19 30.78 168.9 30.78C167.07 30.78 165.58 30.22 164.35 29.06C163.26 28.04 162.58 26.75 162.33 25.24H178.26L178.31 24.8C178.36 24.38 178.39 23.92 178.39 23.45C178.39 20.73 177.49 18.45 175.71 16.67C173.94 14.9 171.64 14 168.9 14ZM162.32 22.43C162.55 20.9 163.22 19.63 164.35 18.57C165.61 17.39 167.09 16.82 168.86 16.82C170.6 16.82 172.03 17.39 173.23 18.57C174.31 19.63 174.94 20.9 175.14 22.44H162.32V22.43Z" fill="white"/>
<path d="M194.69 23.63C193.86 23.25 193.03 22.97 192.23 22.79C191.45 22.61 190.41 22.42 189.16 22.22C188.38 22.09 187.82 22 187.47 21.94C187.14 21.88 186.68 21.77 186.12 21.61C185.48 21.43 185.17 21.26 185.02 21.15C184.81 20.99 184.6 20.76 184.42 20.47C184.26 20.21 184.18 19.91 184.18 19.55C184.18 18.72 184.55 18.09 185.32 17.61C186.15 17.09 187.37 16.83 188.93 16.83C190.99 16.83 193.08 17.3 195.15 18.22L195.65 18.44L196.62 15.69L196.2 15.5C193.95 14.47 191.53 13.94 189 13.94C186.59 13.94 184.65 14.43 183.24 15.41C181.77 16.42 181.02 17.84 181.02 19.62C181.02 20.43 181.19 21.16 181.54 21.77C181.87 22.37 182.27 22.85 182.72 23.22C183.17 23.59 183.79 23.91 184.57 24.17C185.31 24.43 185.96 24.62 186.5 24.73C187.03 24.85 187.72 24.97 188.55 25.09C189.37 25.21 189.92 25.3 190.2 25.35C190.47 25.4 190.92 25.49 191.54 25.63C192.27 25.79 192.58 25.91 192.72 25.98C192.95 26.1 193.22 26.27 193.55 26.48C193.8 26.65 193.97 26.83 194.04 27.03C194.13 27.28 194.18 27.57 194.18 27.91C194.18 28.78 193.76 29.43 192.89 29.91C191.94 30.43 190.69 30.7 189.2 30.7C186.54 30.7 184.1 29.98 181.96 28.55L181.49 28.24L180.13 30.91L180.5 31.16C182.94 32.8 185.81 33.63 189.02 33.63C191.4 33.63 193.38 33.15 194.91 32.19C196.52 31.19 197.34 29.71 197.34 27.8C197.34 26.83 197.13 25.98 196.7 25.29C196.25 24.59 195.58 24.03 194.69 23.63Z" fill="white"/>
<path d="M200.8 8.36C200.36 8.78 200.14 9.31 200.14 9.93C200.14 10.57 200.36 11.11 200.79 11.56C201.23 12.01 201.77 12.24 202.42 12.24C203.06 12.24 203.61 12.01 204.07 11.55C204.49 11.1 204.69 10.56 204.69 9.93C204.69 9.31 204.47 8.78 204.03 8.36C203.16 7.52 201.68 7.52 200.8 8.36Z" fill="white"/>
<path d="M204.05 14.34H200.78V33.25H204.05V14.34Z" fill="white"/>
<path d="M223.85 25.3C223.42 24.6 222.75 24.04 221.85 23.63C221.01 23.25 220.19 22.97 219.39 22.79C218.61 22.61 217.57 22.42 216.32 22.22C215.54 22.09 214.98 22 214.63 21.94C214.3 21.88 213.84 21.77 213.28 21.61C212.64 21.43 212.33 21.26 212.18 21.15C211.96 20.99 211.76 20.76 211.58 20.47C211.42 20.21 211.34 19.91 211.34 19.55C211.34 18.72 211.71 18.09 212.48 17.61C213.31 17.09 214.53 16.83 216.09 16.83C218.15 16.83 220.24 17.3 222.31 18.22L222.8 18.44L223.78 15.69L223.36 15.5C221.11 14.47 218.69 13.94 216.16 13.94C213.75 13.94 211.81 14.43 210.4 15.41C208.93 16.42 208.18 17.84 208.18 19.62C208.18 20.43 208.35 21.16 208.7 21.77C209.03 22.37 209.43 22.85 209.88 23.22C210.33 23.58 210.95 23.91 211.73 24.17C212.47 24.43 213.12 24.62 213.66 24.73C214.19 24.85 214.88 24.97 215.71 25.09C216.54 25.21 217.08 25.3 217.36 25.35C217.63 25.4 218.08 25.49 218.7 25.63C219.43 25.79 219.74 25.91 219.88 25.98C220.11 26.1 220.38 26.27 220.71 26.48C220.96 26.65 221.12 26.83 221.2 27.03C221.29 27.28 221.34 27.57 221.34 27.91C221.34 28.78 220.92 29.43 220.05 29.91C219.1 30.43 217.86 30.7 216.36 30.7C213.7 30.7 211.26 29.98 209.12 28.55L208.65 28.24L207.29 30.91L207.66 31.16C210.1 32.8 212.97 33.63 216.18 33.63C218.56 33.63 220.54 33.15 222.07 32.19C223.68 31.19 224.5 29.71 224.5 27.8C224.49 26.83 224.28 25.99 223.85 25.3Z" fill="white"/>
<path d="M124.84 13.98L124.58 13.97H111.13L111.02 13.98C109.65 14 108.41 14.33 107.32 14.94C106.67 15.31 106.1 15.78 105.61 16.33V14.35H102.42V33.26H105.65V22.89C105.65 21.12 106.15 19.69 107.14 18.64C107.71 18.04 108.38 17.61 109.21 17.33L109.33 17.29C109.44 17.26 109.59 17.22 109.83 17.17C110.08 17.12 110.45 17.07 110.91 17.08H111.02H117.2C115.51 18.91 114.65 21.18 114.65 23.83C114.65 26.63 115.6 28.99 117.48 30.85C119.36 32.71 121.74 33.66 124.56 33.66C127.38 33.66 129.76 32.71 131.64 30.83C133.52 28.98 134.47 26.62 134.47 23.82C134.47 21.03 133.52 18.66 131.64 16.78C129.84 14.98 127.55 14.04 124.84 13.98ZM129.34 28.68C128.05 29.99 126.51 30.63 124.61 30.63C122.69 30.63 121.13 29.99 119.85 28.68C118.56 27.37 117.93 25.78 117.93 23.84C117.93 21.87 118.56 20.27 119.85 18.96C121.14 17.65 122.7 17.01 124.61 17.01C126.5 17.01 128.05 17.65 129.34 18.96C130.63 20.27 131.26 21.87 131.26 23.84C131.26 25.79 130.63 27.37 129.34 28.68Z" fill="white"/>
</svg>
