<svg width="76" height="75" viewBox="0 0 76 75" fill="none" xmlns="http://www.w3.org/2000/svg">
<path d="M26.33 42C26.9983 42 27.54 41.4583 27.54 40.79C27.54 40.1217 26.9983 39.58 26.33 39.58C25.6617 39.58 25.12 40.1217 25.12 40.79C25.12 41.4583 25.6617 42 26.33 42Z" fill="white"/>
<path d="M34 42C34.6683 42 35.21 41.4583 35.21 40.79C35.21 40.1217 34.6683 39.58 34 39.58C33.3317 39.58 32.79 40.1217 32.79 40.79C32.79 41.4583 33.3317 42 34 42Z" fill="white"/>
<path d="M41.62 42.04C42.2883 42.04 42.83 41.4983 42.83 40.83C42.83 40.1617 42.2883 39.62 41.62 39.62C40.9517 39.62 40.41 40.1617 40.41 40.83C40.41 41.4983 40.9517 42.04 41.62 42.04Z" fill="white"/>
<path d="M53.14 35.39C53.8083 35.39 54.35 34.8483 54.35 34.18C54.35 33.5117 53.8083 32.97 53.14 32.97C52.4717 32.97 51.93 33.5117 51.93 34.18C51.93 34.8483 52.4717 35.39 53.14 35.39Z" fill="white"/>
<path d="M56.84 28.79C57.5083 28.79 58.05 28.2483 58.05 27.58C58.05 26.9117 57.5083 26.37 56.84 26.37C56.1717 26.37 55.63 26.9117 55.63 27.58C55.63 28.2483 56.1717 28.79 56.84 28.79Z" fill="white"/>
<path d="M60.67 22.19C61.3383 22.19 61.88 21.6483 61.88 20.98C61.88 20.3117 61.3383 19.77 60.67 19.77C60.0017 19.77 59.46 20.3117 59.46 20.98C59.46 21.6483 60.0017 22.19 60.67 22.19Z" fill="white"/>
<path d="M56.91 15.54C57.5783 15.54 58.12 14.9983 58.12 14.33C58.12 13.6617 57.5783 13.12 56.91 13.12C56.2417 13.12 55.7 13.6617 55.7 14.33C55.7 14.9983 56.2417 15.54 56.91 15.54Z" fill="white"/>
<path d="M53.12 9.06001C53.7883 9.06001 54.33 8.51828 54.33 7.85001C54.33 7.18175 53.7883 6.64001 53.12 6.64001C52.4517 6.64001 51.91 7.18175 51.91 7.85001C51.91 8.51828 52.4517 9.06001 53.12 9.06001Z" fill="white"/>
<path d="M49.29 42.04C49.9583 42.04 50.5 41.4983 50.5 40.83C50.5 40.1617 49.9583 39.62 49.29 39.62C48.6217 39.62 48.08 40.1617 48.08 40.83C48.08 41.4983 48.6217 42.04 49.29 42.04Z" fill="white"/>
<path d="M22.53 35.39C23.1983 35.39 23.74 34.8483 23.74 34.18C23.74 33.5117 23.1983 32.97 22.53 32.97C21.8617 32.97 21.32 33.5117 21.32 34.18C21.32 34.8483 21.8617 35.39 22.53 35.39Z" fill="white"/>
<path d="M30.2 36.05C31.2383 36.05 32.08 35.2083 32.08 34.17C32.08 33.1317 31.2383 32.29 30.2 32.29C29.1617 32.29 28.32 33.1317 28.32 34.17C28.32 35.2083 29.1617 36.05 30.2 36.05Z" fill="white"/>
<path d="M18.7 28.81C19.3683 28.81 19.91 28.2683 19.91 27.6C19.91 26.9317 19.3683 26.39 18.7 26.39C18.0317 26.39 17.49 26.9317 17.49 27.6C17.49 28.2683 18.0317 28.81 18.7 28.81Z" fill="white"/>
<path d="M26.37 28.81C27.0383 28.81 27.58 28.2683 27.58 27.6C27.58 26.9317 27.0383 26.39 26.37 26.39C25.7017 26.39 25.16 26.9317 25.16 27.6C25.16 28.2683 25.7017 28.81 26.37 28.81Z" fill="white"/>
<path d="M33.99 29.53C35.0283 29.53 35.87 28.6883 35.87 27.65C35.87 26.6117 35.0283 25.77 33.99 25.77C32.9517 25.77 32.11 26.6117 32.11 27.65C32.11 28.6883 32.9517 29.53 33.99 29.53Z" fill="white"/>
<path d="M14.87 22.19C15.5383 22.19 16.08 21.6483 16.08 20.98C16.08 20.3117 15.5383 19.77 14.87 19.77C14.2017 19.77 13.66 20.3117 13.66 20.98C13.66 21.6483 14.2017 22.19 14.87 22.19Z" fill="white"/>
<path d="M22.53 22.19C23.1983 22.19 23.74 21.6483 23.74 20.98C23.74 20.3117 23.1983 19.77 22.53 19.77C21.8617 19.77 21.32 20.3117 21.32 20.98C21.32 21.6483 21.8617 22.19 22.53 22.19Z" fill="white"/>
<path d="M30.15 22.24C30.8183 22.24 31.36 21.6983 31.36 21.03C31.36 20.3617 30.8183 19.82 30.15 19.82C29.4817 19.82 28.94 20.3617 28.94 21.03C28.94 21.6983 29.4817 22.24 30.15 22.24Z" fill="white"/>
<path d="M35.94 21.03C35.94 22.06 36.79 22.91 37.82 22.91C38.85 22.91 39.69 22.06 39.7 21.03C39.7 20 38.85 19.15 37.82 19.15C36.79 19.15 35.94 20 35.94 21.03Z" fill="white"/>
<path d="M18.7 15.62C19.3683 15.62 19.91 15.0783 19.91 14.41C19.91 13.7417 19.3683 13.2 18.7 13.2C18.0317 13.2 17.49 13.7417 17.49 14.41C17.49 15.0783 18.0317 15.62 18.7 15.62Z" fill="white"/>
<path d="M26.37 15.62C27.0383 15.62 27.58 15.0783 27.58 14.41C27.58 13.7417 27.0383 13.2 26.37 13.2C25.7017 13.2 25.16 13.7417 25.16 14.41C25.16 15.0783 25.7017 15.62 26.37 15.62Z" fill="white"/>
<path d="M33.99 16.34C35.02 16.34 35.86 15.49 35.87 14.46C35.87 13.43 35.02 12.58 33.99 12.58C32.96 12.58 32.11 13.43 32.11 14.46C32.11 15.49 32.96 16.34 33.99 16.34Z" fill="white"/>
<path d="M26.27 2.42C26.9383 2.42 27.48 1.87826 27.48 1.21C27.48 0.541735 26.9383 0 26.27 0C25.6017 0 25.06 0.541735 25.06 1.21C25.06 1.87826 25.6017 2.42 26.27 2.42Z" fill="white"/>
<path d="M33.93 2.42C34.5983 2.42 35.14 1.87826 35.14 1.21C35.14 0.541735 34.5983 0 33.93 0C33.2617 0 32.72 0.541735 32.72 1.21C32.72 1.87826 33.2617 2.42 33.93 2.42Z" fill="white"/>
<path d="M41.54 2.48C42.2083 2.48 42.75 1.93826 42.75 1.27C42.75 0.601733 42.2083 0.0599976 41.54 0.0599976C40.8717 0.0599976 40.33 0.601733 40.33 1.27C40.33 1.93826 40.8717 2.48 41.54 2.48Z" fill="white"/>
<path d="M45.19 10.36C45.28 10.37 45.38 10.37 45.46 10.37C46.06 10.37 46.64 10.16 47.12 9.78999C47.66 9.34999 48 8.71999 48.08 8.01999C48.22 6.56999 47.17 5.28999 45.73 5.12999C45.03 5.04999 44.35 5.25999 43.8 5.69999C43.26 6.13999 42.92 6.76999 42.84 7.46999C42.7 8.91999 43.75 10.22 45.19 10.36Z" fill="white"/>
<path d="M35.47 9.19999C35.82 9.81999 36.38 10.24 37.06 10.43C37.28 10.48 37.51 10.52 37.74 10.52C38.2 10.52 38.65 10.4 39.06 10.17C39.68 9.81999 40.1 9.25999 40.29 8.57999C40.47 7.89999 40.38 7.19999 40.03 6.57999C39.68 5.95999 39.12 5.53999 38.44 5.34999C37.76 5.16999 37.05 5.25999 36.44 5.60999C35.82 5.95999 35.4 6.51999 35.21 7.19999C35.03 7.87999 35.12 8.57999 35.47 9.19999Z" fill="white"/>
<path d="M41.63 16.99C42.07 16.99 42.52 16.88 42.94 16.64C44.2 15.92 44.63 14.3 43.91 13.05C43.56 12.43 43 12.01 42.32 11.82C41.64 11.64 40.94 11.73 40.32 12.08C39.7 12.43 39.28 12.99 39.09 13.67C38.91 14.35 39 15.06 39.35 15.67C39.84 16.51 40.72 16.99 41.63 16.99Z" fill="white"/>
<path d="M47.89 12.13C46.63 12.85 46.2 14.47 46.92 15.72C47.27 16.34 47.83 16.76 48.51 16.95C48.73 17 48.96 17.04 49.19 17.04C49.64 17.04 50.09 16.92 50.51 16.69C51.13 16.34 51.55 15.78 51.74 15.1C51.92 14.42 51.83 13.71 51.48 13.1C50.76 11.84 49.15 11.41 47.89 12.13Z" fill="white"/>
<path d="M45.37 23.71C45.82 23.71 46.27 23.59 46.69 23.36C47.95 22.64 48.38 21.02 47.66 19.77C46.94 18.51 45.33 18.08 44.07 18.8C43.45 19.15 43.03 19.71 42.84 20.39C42.66 21.07 42.75 21.77 43.1 22.39C43.45 23.01 44.01 23.43 44.69 23.62C44.91 23.68 45.14 23.71 45.37 23.71Z" fill="white"/>
<path d="M55.31 19.72C54.96 19.1 54.4 18.68 53.72 18.49C53.04 18.31 52.33 18.4 51.72 18.75C51.1 19.1 50.68 19.66 50.49 20.34C50.31 21.02 50.4 21.73 50.75 22.34C51.24 23.19 52.12 23.66 53.03 23.66C53.47 23.66 53.92 23.54 54.34 23.31C55.6 22.59 56.03 20.97 55.31 19.72Z" fill="white"/>
<path d="M49.93 25.06C49.25 24.88 48.54 24.97 47.93 25.32C47.31 25.67 46.89 26.23 46.7 26.91C46.52 27.59 46.61 28.3 46.96 28.91C47.45 29.76 48.33 30.23 49.24 30.23C49.69 30.23 50.14 30.12 50.55 29.88C51.81 29.16 52.24 27.54 51.52 26.29C51.17 25.68 50.61 25.25 49.93 25.06Z" fill="white"/>
<path d="M40.95 30.09C41.17 30.14 41.4 30.18 41.63 30.18C42.08 30.18 42.53 30.07 42.95 29.83C43.57 29.48 43.99 28.92 44.18 28.24C44.36 27.56 44.27 26.85 43.92 26.24C43.57 25.62 43.01 25.2 42.33 25.01C41.65 24.83 40.94 24.92 40.33 25.27C39.71 25.62 39.29 26.18 39.1 26.86C38.92 27.54 39.01 28.24 39.36 28.86C39.71 29.48 40.27 29.9 40.95 30.09Z" fill="white"/>
<path d="M36.38 31.89C35.76 32.24 35.34 32.8 35.15 33.48C34.97 34.16 35.06 34.87 35.41 35.48C35.9 36.33 36.78 36.8 37.69 36.8C38.13 36.8 38.58 36.69 39 36.45C40.26 35.73 40.69 34.11 39.97 32.86C39.25 31.6 37.63 31.17 36.38 31.89Z" fill="white"/>
<path d="M44.09 31.89C42.83 32.61 42.4 34.23 43.12 35.48C43.61 36.33 44.49 36.8 45.4 36.8C45.85 36.8 46.3 36.69 46.71 36.45C47.97 35.73 48.4 34.11 47.68 32.86C46.96 31.6 45.34 31.17 44.09 31.89Z" fill="white"/>
<path d="M49.22 2.48C49.8883 2.48 50.43 1.93826 50.43 1.27C50.43 0.601733 49.8883 0.0599976 49.22 0.0599976C48.5517 0.0599976 48.01 0.601733 48.01 1.27C48.01 1.93826 48.5517 2.48 49.22 2.48Z" fill="white"/>
<path d="M22.53 8.99999C23.1983 8.99999 23.74 8.45825 23.74 7.78999C23.74 7.12172 23.1983 6.57999 22.53 6.57999C21.8617 6.57999 21.32 7.12172 21.32 7.78999C21.32 8.45825 21.8617 8.99999 22.53 8.99999Z" fill="white"/>
<path d="M30.2 9.65999C31.2383 9.65999 32.08 8.81829 32.08 7.77999C32.08 6.7417 31.2383 5.89999 30.2 5.89999C29.1617 5.89999 28.32 6.7417 28.32 7.77999C28.32 8.81829 29.1617 9.65999 30.2 9.65999Z" fill="white"/>
<path d="M17.07 74.89H17.8V72.42H20.69V71.74H17.8V69.97H20.9V69.29H17.07V74.89Z" fill="white"/>
<path d="M23.28 70.77C22.68 70.77 22.17 70.97 21.77 71.38C21.37 71.78 21.17 72.29 21.17 72.88C21.17 73.47 21.37 73.98 21.77 74.38C22.17 74.78 22.68 74.98 23.28 74.98C23.88 74.98 24.39 74.78 24.79 74.38C25.19 73.98 25.39 73.48 25.39 72.88C25.39 72.28 25.19 71.78 24.79 71.38C24.39 70.97 23.88 70.77 23.28 70.77ZM23.29 74.3C22.89 74.3 22.56 74.17 22.3 73.89C22.03 73.62 21.9 73.28 21.9 72.88C21.9 72.47 22.03 72.13 22.3 71.86C22.57 71.59 22.89 71.45 23.29 71.45C23.69 71.45 24.01 71.58 24.28 71.86C24.55 72.13 24.68 72.47 24.68 72.88C24.68 73.29 24.55 73.62 24.28 73.89C24.01 74.16 23.69 74.3 23.29 74.3Z" fill="white"/>
<path d="M29.09 72.93C29.09 73.32 28.97 73.64 28.73 73.9C28.49 74.16 28.21 74.28 27.87 74.28C27.56 74.28 27.3 74.17 27.1 73.95C26.89 73.73 26.79 73.46 26.79 73.12V70.83H26.07V73.16C26.07 73.68 26.23 74.11 26.54 74.45C26.85 74.78 27.27 74.95 27.76 74.95C28.08 74.95 28.38 74.87 28.66 74.72C28.83 74.63 28.98 74.51 29.1 74.37V74.87H29.81V70.83H29.08V72.93H29.09Z" fill="white"/>
<path d="M32.91 70.78C32.59 70.78 32.29 70.86 32.01 71.01C31.85 71.1 31.7 71.22 31.57 71.36V70.85H30.86V74.89H31.59V72.89C31.59 72.48 31.71 72.13 31.94 71.86C32.17 71.59 32.46 71.46 32.81 71.46C33.12 71.46 33.37 71.57 33.58 71.78C33.79 72 33.89 72.27 33.89 72.61V74.89H34.61V72.51C34.61 72.02 34.45 71.6 34.13 71.27C33.8 70.94 33.39 70.78 32.91 70.78Z" fill="white"/>
<path d="M38.67 71.37C38.54 71.23 38.38 71.11 38.21 71.01C37.93 70.85 37.61 70.77 37.26 70.77C36.7 70.77 36.22 70.97 35.84 71.37C35.46 71.77 35.27 72.27 35.27 72.87C35.27 73.46 35.46 73.96 35.83 74.36C36.21 74.76 36.68 74.97 37.23 74.97C37.58 74.97 37.91 74.89 38.2 74.72C38.38 74.62 38.53 74.49 38.67 74.35V74.88H39.39V69.01H38.66V71.37H38.67ZM38.3 71.86C38.56 72.13 38.69 72.46 38.69 72.87C38.69 73.28 38.56 73.62 38.3 73.89C38.04 74.16 37.72 74.3 37.32 74.3C36.94 74.3 36.64 74.17 36.38 73.9C36.13 73.63 36 73.29 36 72.89C36 72.48 36.12 72.15 36.38 71.87C36.63 71.6 36.94 71.47 37.32 71.47C37.72 71.46 38.04 71.59 38.3 71.86Z" fill="white"/>
<path d="M43.58 71.4C43.45 71.25 43.29 71.13 43.12 71.03C42.83 70.86 42.5 70.77 42.14 70.77C41.57 70.77 41.09 70.97 40.71 71.38C40.33 71.78 40.14 72.29 40.14 72.88C40.14 73.47 40.33 73.98 40.71 74.38C41.09 74.78 41.57 74.98 42.14 74.98C42.5 74.98 42.83 74.89 43.12 74.72C43.29 74.62 43.45 74.49 43.58 74.33V74.89H44.29V70.85H43.58V71.4ZM43.18 71.85C43.44 72.12 43.57 72.45 43.57 72.85C43.57 73.26 43.44 73.6 43.18 73.88C42.92 74.16 42.6 74.29 42.22 74.29C41.84 74.29 41.52 74.16 41.26 73.89C41 73.62 40.87 73.29 40.87 72.87C40.87 72.46 41 72.12 41.26 71.85C41.52 71.58 41.84 71.44 42.23 71.44C42.61 71.45 42.92 71.58 43.18 71.85Z" fill="white"/>
<path d="M48.28 69.59C48.18 69.68 48.13 69.8 48.13 69.94C48.13 70.08 48.18 70.2 48.27 70.3C48.37 70.4 48.49 70.45 48.63 70.45C48.77 70.45 48.89 70.4 48.99 70.3C49.08 70.2 49.13 70.08 49.13 69.94C49.13 69.8 49.08 69.69 48.98 69.59C48.8 69.4 48.47 69.4 48.28 69.59Z" fill="white"/>
<path d="M48.27 70.85H46.29V69.38H45.58V70.85H44.87V71.51H45.58V73.66C45.58 74.06 45.69 74.39 45.91 74.62C46.13 74.86 46.45 74.98 46.87 74.98C47.17 74.98 47.47 74.92 47.76 74.79L47.84 74.76V74.09L47.67 74.16C47.42 74.25 47.19 74.3 46.96 74.3C46.71 74.3 46.54 74.25 46.45 74.14C46.35 74.03 46.3 73.84 46.3 73.6V71.52H48.28V74.9H49.01V70.86H48.83H48.27V70.85Z" fill="white"/>
<path d="M51.86 70.77C51.26 70.77 50.75 70.97 50.35 71.37C49.95 71.77 49.75 72.28 49.75 72.87C49.75 73.47 49.95 73.97 50.36 74.37C50.76 74.77 51.27 74.97 51.87 74.97C52.47 74.97 52.98 74.77 53.38 74.37C53.78 73.97 53.99 73.47 53.99 72.87C53.99 72.27 53.79 71.77 53.39 71.37C52.97 70.97 52.46 70.77 51.86 70.77ZM53.25 72.88C53.25 73.29 53.12 73.62 52.85 73.89C52.58 74.16 52.26 74.3 51.86 74.3C51.46 74.3 51.13 74.17 50.86 73.89C50.59 73.62 50.46 73.29 50.46 72.88C50.46 72.47 50.59 72.13 50.86 71.86C51.13 71.59 51.45 71.45 51.86 71.45C52.25 71.45 52.58 71.58 52.85 71.86C53.12 72.13 53.25 72.47 53.25 72.88Z" fill="white"/>
<path d="M56.76 70.78C56.44 70.78 56.14 70.86 55.86 71.01C55.7 71.1 55.55 71.22 55.42 71.36V70.85H54.71V74.89H55.44V72.89C55.44 72.48 55.56 72.13 55.79 71.86C56.02 71.59 56.31 71.46 56.66 71.46C56.97 71.46 57.22 71.57 57.43 71.78C57.64 72 57.74 72.27 57.74 72.61V74.89H58.46V72.51C58.46 72.02 58.3 71.6 57.98 71.27C57.66 70.94 57.25 70.78 56.76 70.78Z" fill="white"/>
<path d="M6.14 49.32H0V63.42H1.72V58.89H6.02C7.53 58.89 8.76 58.44 9.69 57.55C10.62 56.66 11.09 55.49 11.09 54.09C11.09 52.7 10.63 51.54 9.71 50.66C8.8 49.77 7.6 49.32 6.14 49.32ZM9.35 54.11C9.35 55.05 9.05 55.8 8.42 56.41C7.8 57.01 6.96 57.31 5.92 57.31H1.72V50.9H6.02C7.02 50.9 7.83 51.2 8.44 51.8C9.05 52.41 9.35 53.17 9.35 54.11Z" fill="white"/>
<path d="M19.79 55.59C20.32 56.16 20.59 56.88 20.59 57.75V63.43H22.31V57.45C22.31 56.22 21.9 55.18 21.09 54.36C20.28 53.53 19.25 53.12 18.02 53.12C17.25 53.12 16.52 53.3 15.83 53.66C15.37 53.9 14.97 54.22 14.63 54.62V48.65H12.91V63.44H14.63V58.45C14.63 57.39 14.94 56.5 15.54 55.8C16.15 55.1 16.88 54.76 17.79 54.76C18.61 54.74 19.26 55.02 19.79 55.59Z" fill="white"/>
<path d="M26.62 57.86C26.62 56.9 26.89 56.13 27.43 55.57C27.97 55 28.63 54.73 29.46 54.72L32.93 54.7C31.99 55.69 31.51 56.92 31.51 58.37C31.51 59.87 32.02 61.14 33.03 62.13C34.04 63.12 35.31 63.64 36.82 63.64C38.33 63.64 39.61 63.13 40.61 62.13C41.62 61.14 42.13 59.87 42.13 58.37C42.13 56.87 41.62 55.6 40.61 54.6C39.68 53.67 38.5 53.16 37.11 53.1L29.5 53.08L29.28 53.09V53.1C28.63 53.14 28.05 53.31 27.55 53.6C27.19 53.81 26.87 54.07 26.6 54.39V53.29H24.92V63.43H26.62V57.86ZM33.23 58.38C33.23 57.33 33.58 56.44 34.27 55.74C34.96 55.04 35.8 54.7 36.86 54.69C37.88 54.69 38.71 55.04 39.4 55.74C40.09 56.44 40.44 57.33 40.44 58.38C40.44 59.43 40.1 60.29 39.4 61C38.71 61.71 37.87 62.05 36.84 62.05C35.8 62.05 34.96 61.71 34.26 61C33.57 60.29 33.23 59.43 33.23 58.38Z" fill="white"/>
<path d="M45.87 58.4C45.87 57.34 46.18 56.45 46.78 55.75C47.39 55.05 48.12 54.71 49.03 54.71C49.83 54.71 50.48 54.99 51.02 55.56C51.56 56.14 51.83 56.84 51.83 57.72V63.44H53.53V57.46C53.53 56.23 53.12 55.19 52.32 54.37C51.51 53.54 50.49 53.13 49.27 53.13C48.47 53.13 47.72 53.32 47.02 53.7C46.56 53.95 46.15 54.29 45.81 54.72V53.29H44.13V63.43H45.85V58.4H45.87Z" fill="white"/>
<path d="M66.26 49.32H64.67L58.71 63.42H60.57L62.12 59.64H68.74L70.28 63.42H72.15L66.33 49.47L66.26 49.32ZM68.14 58.06H62.72L65.47 51.43L68.14 58.06Z" fill="white"/>
<path d="M75.53 49.32H73.79V63.42H75.53V49.32Z" fill="white"/>
</svg>
