<svg width="105" height="114" fill="none" xmlns="http://www.w3.org/2000/svg">
    <path
        d="M27.96 109.5a.076.076 0 00-.05-.02c-.02-.01-.04-.02-.05-.01-.02.01-.03.06-.05.09.03.01.07.05.1.04.01 0 .02-.02.03-.04.01-.02.02-.04.02-.06zM103.27 52.51c-3.64-.4-7.4-.04-11.07-.16-.91.02-1.15-.55-.85-1.3.3-1.15.81-2.14 2.07-2.04 2.86-.01 5.72 0 8.57-.01 1.04.07 2.52-.41 2.24-1.71-.2-.88-1.16-1.17-1.97-1.18-2.74-.04-5.55-.01-8.29-.04-.53 0-1.08-.14-1.13-.75.14-2.54.35-5.19-.02-7.77-.36-2.55-.9-5.06-1.87-7.44-.22-.55-.39-1.12-.4-1.71.86-7.69.98-15.51-.55-23.09-.26-1.37-.62-2.85-1.63-3.85-1.5-1.56-3.95-1.69-5.82-.7-5.98 2.79-11.12 6.77-15.7 11.44-.34.34-.75.73-1.21.79-.49.09-1.05-.17-1.52-.37-3.75-1.64-7.74-2.42-11.89-2.34-4.09.05-8.09.9-11.86 2.55-.38.15-.75.22-1.09.14-.43-.08-.83-.45-1.15-.78C32.99 7.16 27.1 2.19 20.16.1c-4.47-.29-5.22 4.08-5.69 7.57-1.26 6.96-.95 14.07-.18 21.05-.04.81-.37 1.56-.65 2.31-.89 2.36-1.43 4.86-1.64 7.33-.19 2.11-.12 4.22.08 6.37.15.83-.42 1.42-1.24 1.36-2.78.01-5.57-.03-8.34 0-1.25-.11-2.79 1.1-1.69 2.32.55.52 1.38.54 2.1.56 2.84.02 5.71 0 8.56.01 1.37-.1 1.78 1.04 2.07 2.17.4 1.1-.32 1.2-1.22 1.18-3.26.01-6.52-.02-9.78.01-.51.02-1.06.1-1.46.4-1.05.78-.54 2.32.78 2.39 3.59.18 7.18.02 10.76.07 1.08 0 2.39-.26 3.03.84a36.5 36.5 0 009.49 11.2c.36.28.8.67.84 1.09-.03 1.19-1.16 2.26-1.59 3.37-4.27 8.43-4.6 18.68-1.48 27.59 1.38 3.94 3.35 7.59 5.91 10.84 1.32 1.66 3.12 4.06 5.56 3.15 1.68-.56 2.66-2.52 2.09-4.16-.42-1.26-1.44-2.17-2.23-3.2-7.45-9.03-9.07-22.75-3.01-32.87.49-1.01 1.29-1.43 2.33-.87 10.28 4.4 21.94 4.96 32.66 1.88 1.87-.53 3.7-1.23 5.46-2.03.76-.32 1.34-.05 1.73.62 6.48 10.79 4.59 25.57-3.91 34.81-2.32 2.36-.95 6.15 2.5 6 6.66-.01 13.84.85 19.79-2.77 10.51-6.22 5.31-22.29-6.77-21.12-.48.03-.93-.16-.98-.74-.08-1.56-.02-3.14-.17-4.69-.36-5.13-1.86-10.21-4.5-14.63-.53-.77-.65-1.55.18-2.16 3.8-2.95 6.97-6.48 9.32-10.69.42-.95 1.27-1.56 2.32-1.47 3.92-.05 7.86.11 11.77-.07 1.49-.1 1.92-2.08.4-2.6l-.09-.01zm-24.62 53.77c1-2.09 2.15-4.16 2.94-6.36.63-2.26 2.35-3.68 4.73-3.69 3.63.01 5.86 5.24 3.26 7.77-2.62 2.65-6.64 2.67-10.14 2.75-.31-.02-.81-.02-.8-.42l.01-.05zm7.39-61.65c-5.06 32.14-58.25 33.52-66.59 2.82-1.48-5.65-.95-11.78 1.56-17.04.53-1.11.21-2.31.03-3.47-.92-6.07-.83-12.17.09-18.22.18-1.39 1.08-.75 1.9-.21 4.83 3.12 9.3 6.85 12.92 11.3.94 1.26 1.92 1.75 3.34.82 7.85-4.78 17.53-5.22 25.49-.45.69.39 1.42.93 2.22.85.7-.05 1.26-.63 1.7-1.15 3.93-4.71 8.66-8.7 13.88-11.9.75-.45 1.1.15 1.16.9.47 3.44.7 6.69.64 10.01.01 3.27-.3 6.33-.77 9.38-.1.7-.06 1.42.18 2.09 1.95 4.44 3.04 9.36 2.24 14.18l.01.09z"
        fill="#321b7a" />
    <path
        d="M47.2 104.4c-.56-2.28-1.11-4.6-1.67-6.9-.67-2.16-.78-4.57-2.04-6.46-1.08-1.38-3.07-1.75-4.53-.74-1.51.94-1.8 2.81-1.33 4.42 1.24 5.11 2.5 10.19 3.77 15.27.27 1.21.75 2.59 1.89 3.19 2.05 1.22 5.11-.21 5.18-2.74-.06-2.03-.82-4-1.25-5.97l-.02-.07zM63.75 89.73c-2.38.14-3.14 2.25-3.51 4.28-1.21 5.32-2.54 10.569-3.65 15.889-.36 3.09 3.52 4.9 5.77 2.87.75-.66 1.1-1.79 1.3-2.77.53-2.49 1.18-4.94 1.7-7.42.62-2.8 1.29-5.63 1.92-8.45.72-2.18-1.22-4.58-3.44-4.4h-.09zM69.21 40.21c-4.17-.21-7.36 4.17-6.1 8.09 2.16 6.73 12.07 5.03 12.17-1.85.03-3.24-2.74-6.16-5.98-6.24h-.09zM35.79 40.23c-4.08-.07-7.24 4.27-5.97 8.11 2.39 6.81 12.35 4.87 12.2-2.2-.12-3.17-2.97-5.94-6.14-5.91h-.09zM54.58 55.27c7.64-6.14 1.03-8.26-5.49-6.97-1.95.32-3.03 2.3-1.81 3.97.89 1.32 2.14 2.2 3.24 3.29.75.82.58 2.31-.23 3-.63.62-2.06.52-2.75 1.08-.39.32-.48.92-.19 1.33 1.1 1.18 3.29.48 4.45-.31.5-.37 1.07-.25 1.54.13.93.66 2.05.87 3.18.72.68-.07 1.31-.69 1.1-1.39-.19-.66-.91-.81-1.53-.94-1.89-.18-3.11-2.47-1.57-3.85l.06-.06z"
        fill="#321b7a" />
</svg>