<?xml version="1.0" encoding="utf-8"?>
<!-- Generator: Adobe Illustrator 28.1.0, SVG Export Plug-In . SVG Version: 6.00 Build 0)  -->
<svg version="1.1" id="Vrstva_1" xmlns="http://www.w3.org/2000/svg" xmlns:xlink="http://www.w3.org/1999/xlink" x="0px" y="0px"
	 viewBox="0 0 410.23 128.89" style="enable-background:new 0 0 410.23 128.89;" xml:space="preserve">
<g>
	<g>
		<path d="M76.45,99.71"/>
		<path d="M78.31,96.17c0.02-0.04,0.03-0.09,0.03-0.13V29.72c0-0.3-0.24-0.54-0.54-0.54h-0.55h-1.61H75.1
			c-0.3,0-0.54,0.24-0.54,0.54v66.33c0,0.05,0.01,0.09,0.03,0.13l1.86,3.53"/>
	</g>
	<g>
		<g>
			<path d="M81.5,79.21c-0.84,0-1.61-0.56-1.83-1.41c-0.27-1.01,0.34-2.05,1.35-2.32c6.42-1.69,10.9-7.51,10.9-14.14
				c0-6.63-4.48-12.44-10.9-14.13c-1.01-0.27-1.62-1.3-1.35-2.32c0.27-1.01,1.31-1.62,2.32-1.35C90.06,45.68,95.7,53,95.7,61.34
				c0,8.35-5.64,15.67-13.72,17.8C81.82,79.19,81.66,79.21,81.5,79.21z"/>
		</g>
	</g>
	<g>
		<g>
			<path d="M70.83,79.21c-0.16,0-0.32-0.02-0.48-0.06c-8.08-2.13-13.72-9.45-13.72-17.8c0-8.35,5.64-15.67,13.72-17.8
				c1.01-0.27,2.05,0.34,2.32,1.35c0.27,1.01-0.34,2.05-1.35,2.32c-6.42,1.69-10.9,7.51-10.9,14.13c0,6.63,4.48,12.44,10.9,14.14
				c1.01,0.27,1.62,1.3,1.35,2.32C72.44,78.64,71.67,79.21,70.83,79.21z"/>
		</g>
	</g>
</g>
<g>
	<path d="M166.67,51.51c-2.01-1.8-4.67-2.7-7.97-2.7h-13.75v32.56h2.48V68.2h11.28c3.3,0,5.96-0.9,7.97-2.7
		c2.01-1.8,3.01-4.14,3.01-7.02C169.69,55.63,168.68,53.3,166.67,51.51z M164.88,63.87c-1.56,1.39-3.61,2.09-6.17,2.09h-11.28V51.04
		h11.28c2.56,0,4.62,0.69,6.17,2.07c1.56,1.38,2.33,3.17,2.33,5.37C167.21,60.68,166.43,62.48,164.88,63.87z"/>
	<path d="M188.35,57.02c-4.57,0-7.82,1.88-9.77,5.64V46.38h-2.38v34.99h2.38V69.46c0-3.14,0.86-5.63,2.58-7.46
		c1.72-1.83,4.02-2.75,6.9-2.75c2.24,0,4.04,0.76,5.42,2.28c1.38,1.52,2.07,3.53,2.07,6.03v13.8h2.38V67.23
		c0-3.05-0.88-5.51-2.65-7.39C193.51,57.96,191.2,57.02,188.35,57.02z"/>
	<path d="M267.42,57.02c-4.57,0-7.82,1.88-9.77,5.64v-5.05h-2.38v23.77h2.38V69.46c0-3.14,0.86-5.63,2.58-7.46
		c1.72-1.83,4.02-2.75,6.9-2.75c2.24,0,4.04,0.76,5.42,2.28c1.38,1.52,2.07,3.53,2.07,6.03v13.8H277V67.23
		c0-3.05-0.88-5.51-2.65-7.39C272.58,57.96,270.27,57.02,267.42,57.02z"/>
	<path d="M244.63,60.59c-2.4-2.35-5.36-3.52-8.89-3.52H219.5c-0.3,0-0.59,0.02-0.88,0.05c-1.96,0.21-3.85,1.08-5.36,2.16
		c-1.73,1.25-3.1,2.91-4.11,4.98v-6.66h-2.38v23.77h2.38v-9.91c0-3.34,0.9-6.13,2.7-8.38c0.4-0.5,0.85-0.96,1.34-1.38l0,0
		c0,0,0.67-0.83,2.47-1.55c0.77-0.33,1.59-0.56,2.45-0.69c0.82-0.15,1.76-0.26,2.83-0.3l0,0h0.03c0.54-0.02,1.12-0.02,1.74,0h5.89
		c-0.61,0.42-1.2,0.89-1.75,1.43c-2.4,2.35-3.6,5.31-3.6,8.87s1.2,6.53,3.6,8.89c2.4,2.37,5.36,3.55,8.89,3.55
		c3.53,0,6.5-1.18,8.89-3.55c2.4-2.37,3.6-5.33,3.6-8.89S247.03,62.94,244.63,60.59z M242.95,76.83c-1.96,1.96-4.37,2.94-7.22,2.94
		c-2.85,0-5.26-0.98-7.22-2.94c-1.96-1.96-2.94-4.41-2.94-7.36c0-2.98,0.97-5.44,2.92-7.39c1.94-1.94,4.36-2.92,7.24-2.92
		c2.88,0,5.3,0.97,7.24,2.92c1.94,1.94,2.92,4.41,2.92,7.39C245.89,72.41,244.91,74.87,242.95,76.83z"/>
</g>
<g>
	<path d="M307.72,81.14h-24.46v-1.55l21.22-28.71h-20.59v-2.13h23.78v1.69l-20.98,28.57h21.03V81.14z"/>
	<path d="M335.7,69.54h-21.41c0.03,3.03,1.01,5.46,2.95,7.3c1.93,1.84,4.16,2.75,6.67,2.75c4.51,0,7.57-2.01,9.18-6.04l2.08,0.48
		c-0.9,2.48-2.32,4.37-4.25,5.68c-1.93,1.3-4.27,1.96-7.01,1.96c-3.19,0-5.98-1.13-8.36-3.38c-2.38-2.26-3.58-5.22-3.58-8.89
		c0-3.71,1.21-6.71,3.63-9.01c2.42-2.3,5.28-3.46,8.6-3.46c3.25,0,5.95,1.09,8.1,3.26c2.14,2.18,3.28,5,3.41,8.48V69.54z
		 M317.74,61.42c-1.92,1.58-3.04,3.67-3.36,6.28h18.95c-0.29-2.71-1.27-4.83-2.95-6.36c-1.67-1.53-3.74-2.3-6.19-2.3
		C321.81,59.05,319.66,59.84,317.74,61.42z"/>
</g>
<path d="M380.56,60.3c-2.4-2.35-5.36-3.52-8.89-3.52h-16.24c-0.3,0-0.59,0.02-0.88,0.05c-1.96,0.21-3.85,1.08-5.36,2.16
	c-1.73,1.25-3.1,2.91-4.11,4.98v-6.66h-2.38v23.77h2.38v-9.91c0-3.34,0.9-6.13,2.7-8.38c0.4-0.5,0.85-0.96,1.34-1.38l0,0
	c0,0,0.67-0.83,2.47-1.55c0.77-0.33,1.59-0.56,2.45-0.69c0.82-0.15,1.76-0.26,2.83-0.3l0,0h0.03c0.54-0.02,1.12-0.02,1.74,0h5.89
	c-0.61,0.42-1.2,0.89-1.75,1.43c-2.4,2.35-3.6,5.31-3.6,8.87c0,3.56,1.2,6.53,3.6,8.89c2.4,2.37,5.36,3.55,8.89,3.55
	c3.53,0,6.5-1.18,8.89-3.55c2.4-2.37,3.6-5.33,3.6-8.89C384.16,65.61,382.96,62.65,380.56,60.3z M378.89,76.54
	c-1.96,1.96-4.37,2.94-7.22,2.94c-2.85,0-5.26-0.98-7.22-2.94c-1.96-1.96-2.94-4.41-2.94-7.36c0-2.98,0.97-5.44,2.92-7.39
	c1.94-1.94,4.36-2.92,7.24-2.92s5.3,0.97,7.24,2.92c1.94,1.94,2.92,4.41,2.92,7.39C381.83,72.12,380.85,74.57,378.89,76.54z"/>
<g>
	<path d="M76.16,19.07c25.02,0,45.38,20.36,45.38,45.38s-20.36,45.38-45.38,45.38S30.78,89.47,30.78,64.44S51.14,19.07,76.16,19.07
		 M76.16,14.63c-27.51,0-49.81,22.3-49.81,49.81s22.3,49.81,49.81,49.81s49.81-22.3,49.81-49.81S103.67,14.63,76.16,14.63
		L76.16,14.63z"/>
</g>
</svg>
