<svg width="105" height="114" viewBox="0 0 105 114" fill="none" xmlns="http://www.w3.org/2000/svg">
<path d="M27.9601 109.5C27.9501 109.49 27.9301 109.48 27.9101 109.48C27.8901 109.47 27.8701 109.46 27.8601 109.47C27.8401 109.48 27.8301 109.53 27.8101 109.56C27.8401 109.57 27.8801 109.61 27.9101 109.6C27.9201 109.6 27.9301 109.58 27.9401 109.56C27.9501 109.54 27.9601 109.52 27.9601 109.5Z" fill="#000"/>
<path d="M103.27 52.5096C99.6299 52.1096 95.8699 52.4696 92.1999 52.3496C91.2899 52.3696 91.0499 51.7996 91.3499 51.0496C91.6499 49.8996 92.1599 48.9096 93.4199 49.0096C96.2799 48.9996 99.1399 49.0096 101.99 48.9996C103.03 49.0696 104.51 48.5896 104.23 47.2896C104.03 46.4096 103.07 46.1196 102.26 46.1096C99.5199 46.0696 96.7099 46.0996 93.9699 46.0696C93.4399 46.0696 92.8899 45.9296 92.8399 45.3196C92.9799 42.7796 93.1899 40.1296 92.8199 37.5496C92.4599 34.9996 91.9199 32.4896 90.9499 30.1096C90.7299 29.5596 90.5599 28.9896 90.5499 28.3996C91.4099 20.7096 91.5299 12.8896 89.9999 5.30964C89.7399 3.93964 89.3799 2.45964 88.3699 1.45964C86.8699 -0.100356 84.4199 -0.230356 82.5499 0.759644C76.5699 3.54964 71.4299 7.52964 66.8499 12.1996C66.5099 12.5396 66.0999 12.9296 65.6399 12.9896C65.1499 13.0796 64.5899 12.8196 64.1199 12.6196C60.3699 10.9796 56.3799 10.1996 52.2299 10.2796C48.1399 10.3296 44.1399 11.1796 40.3699 12.8296C39.9899 12.9796 39.6199 13.0496 39.2799 12.9696C38.8499 12.8896 38.4499 12.5196 38.1299 12.1896C32.9899 7.15964 27.0999 2.18964 20.1599 0.0996446C15.6899 -0.190355 14.9399 4.17964 14.4699 7.66964C13.2099 14.6296 13.5199 21.7396 14.2899 28.7196C14.2499 29.5296 13.9199 30.2796 13.6399 31.0296C12.7499 33.3896 12.2099 35.8896 11.9999 38.3596C11.8099 40.4696 11.8799 42.5796 12.0799 44.7296C12.2299 45.5596 11.6599 46.1496 10.8399 46.0896C8.05991 46.0996 5.26991 46.0596 2.49991 46.0896C1.24991 45.9796 -0.290093 47.1896 0.809907 48.4096C1.35991 48.9296 2.18991 48.9496 2.90991 48.9696C5.74991 48.9896 8.61991 48.9696 11.4699 48.9796C12.8399 48.8796 13.2499 50.0196 13.5399 51.1496C13.9399 52.2496 13.2199 52.3496 12.3199 52.3296C9.05991 52.3396 5.79991 52.3096 2.53991 52.3396C2.02991 52.3596 1.47991 52.4396 1.07991 52.7396C0.0299066 53.5196 0.539906 55.0596 1.85991 55.1296C5.44991 55.3096 9.03991 55.1496 12.6199 55.1996C13.6999 55.1996 15.0099 54.9396 15.6499 56.0396C18.0199 60.3596 21.2399 64.1896 25.1399 67.2396C25.4999 67.5196 25.9399 67.9096 25.9799 68.3296C25.9499 69.5196 24.8199 70.5896 24.3899 71.6996C20.1199 80.1296 19.7899 90.3796 22.9099 99.2896C24.2899 103.23 26.2599 106.88 28.8199 110.13C30.1399 111.79 31.9399 114.19 34.3799 113.28C36.0599 112.72 37.0399 110.76 36.4699 109.12C36.0499 107.86 35.0299 106.95 34.2399 105.92C26.7899 96.8896 25.1699 83.1696 31.2299 73.0496C31.7199 72.0396 32.5199 71.6196 33.5599 72.1796C43.8399 76.5796 55.4999 77.1396 66.2199 74.0596C68.0899 73.5296 69.9199 72.8296 71.6799 72.0296C72.4399 71.7096 73.0199 71.9796 73.4099 72.6496C79.8899 83.4396 77.9999 98.2196 69.4999 107.46C67.1799 109.82 68.5499 113.61 71.9999 113.46C78.6599 113.45 85.8399 114.31 91.7899 110.69C102.3 104.47 97.0999 88.3996 85.0199 89.5696C84.5399 89.5996 84.0899 89.4096 84.0399 88.8296C83.9599 87.2696 84.0199 85.6896 83.8699 84.1396C83.5099 79.0096 82.0099 73.9296 79.3699 69.5096C78.8399 68.7396 78.7199 67.9596 79.5499 67.3496C83.3499 64.3996 86.5199 60.8696 88.8699 56.6596C89.2899 55.7096 90.1399 55.0996 91.1899 55.1896C95.1099 55.1396 99.0499 55.2996 102.96 55.1196C104.45 55.0196 104.88 53.0396 103.36 52.5196L103.27 52.5096ZM78.6499 106.28C79.6499 104.19 80.7999 102.12 81.5899 99.9196C82.2199 97.6596 83.9399 96.2396 86.3199 96.2296C89.9499 96.2396 92.1799 101.47 89.5799 104C86.9599 106.65 82.9399 106.67 79.4399 106.75C79.1299 106.73 78.6299 106.73 78.6399 106.33L78.6499 106.28ZM86.0399 44.6296C80.9799 76.7696 27.7899 78.1496 19.4499 47.4496C17.9699 41.7996 18.4999 35.6696 21.0099 30.4096C21.5399 29.2996 21.2199 28.0996 21.0399 26.9396C20.1199 20.8696 20.2099 14.7696 21.1299 8.71964C21.3099 7.32964 22.2099 7.96964 23.0299 8.50964C27.8599 11.6296 32.3299 15.3596 35.9499 19.8096C36.8899 21.0696 37.8699 21.5596 39.2899 20.6296C47.1399 15.8496 56.8199 15.4096 64.7799 20.1796C65.4699 20.5696 66.1999 21.1096 66.9999 21.0296C67.6999 20.9796 68.2599 20.3996 68.6999 19.8796C72.6299 15.1696 77.3599 11.1796 82.5799 7.97964C83.3299 7.52964 83.6799 8.12964 83.7399 8.87964C84.2099 12.3196 84.4399 15.5696 84.3799 18.8896C84.3899 22.1596 84.0799 25.2196 83.6099 28.2696C83.5099 28.9696 83.5499 29.6896 83.7899 30.3596C85.7399 34.7996 86.8299 39.7196 86.0299 44.5396L86.0399 44.6296Z" fill="#000"/>
<path d="M47.1998 104.4C46.6398 102.12 46.0898 99.7996 45.5298 97.4996C44.8598 95.3396 44.7498 92.9296 43.4898 91.0396C42.4098 89.6596 40.4198 89.2896 38.9598 90.2996C37.4498 91.2396 37.1598 93.1096 37.6298 94.7196C38.8698 99.8296 40.1298 104.91 41.3998 109.99C41.6698 111.2 42.1498 112.58 43.2898 113.18C45.3398 114.4 48.3998 112.97 48.4698 110.44C48.4098 108.41 47.6498 106.44 47.2198 104.47L47.1998 104.4Z" fill="#000"/>
<path d="M63.7498 89.7293C61.3698 89.8693 60.6098 91.9793 60.2398 94.0093C59.0298 99.3293 57.6998 104.579 56.5898 109.899C56.2298 112.989 60.1098 114.799 62.3598 112.769C63.1098 112.109 63.4598 110.979 63.6598 109.999C64.1898 107.509 64.8398 105.059 65.3598 102.579C65.9798 99.7793 66.6498 96.9493 67.2798 94.1293C67.9998 91.9493 66.0598 89.5493 63.8398 89.7293H63.7498Z" fill="#000"/>
<path d="M69.2099 40.2094C65.0399 39.9994 61.8499 44.3794 63.1099 48.2994C65.2699 55.0294 75.1799 53.3294 75.2799 46.4494C75.3099 43.2094 72.5399 40.2894 69.2999 40.2094H69.2099Z" fill="#000"/>
<path d="M35.79 40.2294C31.71 40.1594 28.55 44.4994 29.82 48.3394C32.21 55.1494 42.17 53.2094 42.02 46.1394C41.9 42.9694 39.05 40.1994 35.88 40.2294H35.79Z" fill="#000"/>
<path d="M54.5797 55.2695C62.2197 49.1295 55.6097 47.0095 49.0897 48.2995C47.1397 48.6195 46.0597 50.5995 47.2797 52.2695C48.1697 53.5895 49.4197 54.4695 50.5197 55.5595C51.2697 56.3795 51.0997 57.8695 50.2897 58.5595C49.6597 59.1795 48.2297 59.0795 47.5397 59.6395C47.1497 59.9595 47.0597 60.5595 47.3497 60.9695C48.4497 62.1495 50.6397 61.4495 51.7997 60.6595C52.2997 60.2895 52.8697 60.4095 53.3397 60.7895C54.2697 61.4495 55.3897 61.6595 56.5197 61.5095C57.1997 61.4395 57.8297 60.8195 57.6197 60.1195C57.4297 59.4595 56.7097 59.3095 56.0897 59.1795C54.1997 58.9995 52.9797 56.7095 54.5197 55.3295L54.5797 55.2695Z" fill="#000"/>
</svg>
