<svg width="182" height="45" viewBox="0 0 182 45" fill="none" xmlns="http://www.w3.org/2000/svg">
<path d="M13.41 44.41C14.1169 44.41 14.69 43.8369 14.69 43.13C14.69 42.423 14.1169 41.85 13.41 41.85C12.7031 41.85 12.13 42.423 12.13 43.13C12.13 43.8369 12.7031 44.41 13.41 44.41Z" fill="black"/>
<path d="M21.51 44.41C22.2169 44.41 22.79 43.8369 22.79 43.13C22.79 42.423 22.2169 41.85 21.51 41.85C20.8031 41.85 20.23 42.423 20.23 43.13C20.23 43.8369 20.8031 44.41 21.51 44.41Z" fill="black"/>
<path d="M29.58 44.46C30.2869 44.46 30.86 43.8869 30.86 43.18C30.86 42.4731 30.2869 41.9 29.58 41.9C28.8731 41.9 28.3 42.4731 28.3 43.18C28.3 43.8869 28.8731 44.46 29.58 44.46Z" fill="black"/>
<path d="M41.76 37.42C42.4669 37.42 43.04 36.8469 43.04 36.14C43.04 35.4331 42.4669 34.86 41.76 34.86C41.0531 34.86 40.48 35.4331 40.48 36.14C40.48 36.8469 41.0531 37.42 41.76 37.42Z" fill="black"/>
<path d="M45.68 30.44C46.3869 30.44 46.96 29.8669 46.96 29.16C46.96 28.4531 46.3869 27.88 45.68 27.88C44.9731 27.88 44.4 28.4531 44.4 29.16C44.4 29.8669 44.9731 30.44 45.68 30.44Z" fill="black"/>
<path d="M49.72 23.47C50.4269 23.47 51 22.8969 51 22.19C51 21.483 50.4269 20.91 49.72 20.91C49.0131 20.91 48.44 21.483 48.44 22.19C48.44 22.8969 49.0131 23.47 49.72 23.47Z" fill="black"/>
<path d="M45.75 16.43C46.4569 16.43 47.03 15.8569 47.03 15.15C47.03 14.4431 46.4569 13.87 45.75 13.87C45.0431 13.87 44.47 14.4431 44.47 15.15C44.47 15.8569 45.0431 16.43 45.75 16.43Z" fill="black"/>
<path d="M41.74 9.58002C42.4469 9.58002 43.02 9.00694 43.02 8.30002C43.02 7.59309 42.4469 7.02002 41.74 7.02002C41.0331 7.02002 40.46 7.59309 40.46 8.30002C40.46 9.00694 41.0331 9.58002 41.74 9.58002Z" fill="black"/>
<path d="M37.68 44.46C38.3869 44.46 38.96 43.8869 38.96 43.18C38.96 42.4731 38.3869 41.9 37.68 41.9C36.9731 41.9 36.4 42.4731 36.4 43.18C36.4 43.8869 36.9731 44.46 37.68 44.46Z" fill="black"/>
<path d="M9.38998 37.42C10.0969 37.42 10.67 36.8469 10.67 36.14C10.67 35.4331 10.0969 34.86 9.38998 34.86C8.68306 34.86 8.10999 35.4331 8.10999 36.14C8.10999 36.8469 8.68306 37.42 9.38998 37.42Z" fill="black"/>
<path d="M17.49 38.12C18.589 38.12 19.48 37.2291 19.48 36.13C19.48 35.031 18.589 34.14 17.49 34.14C16.391 34.14 15.5 35.031 15.5 36.13C15.5 37.2291 16.391 38.12 17.49 38.12Z" fill="black"/>
<path d="M5.32999 30.46C6.03691 30.46 6.60999 29.887 6.60999 29.18C6.60999 28.4731 6.03691 27.9 5.32999 27.9C4.62307 27.9 4.04999 28.4731 4.04999 29.18C4.04999 29.887 4.62307 30.46 5.32999 30.46Z" fill="black"/>
<path d="M13.44 30.46C14.1469 30.46 14.72 29.887 14.72 29.18C14.72 28.4731 14.1469 27.9 13.44 27.9C12.7331 27.9 12.16 28.4731 12.16 29.18C12.16 29.887 12.7331 30.46 13.44 30.46Z" fill="black"/>
<path d="M21.5 31.23C22.5991 31.23 23.49 30.339 23.49 29.24C23.49 28.141 22.5991 27.25 21.5 27.25C20.401 27.25 19.51 28.141 19.51 29.24C19.51 30.339 20.401 31.23 21.5 31.23Z" fill="black"/>
<path d="M1.28 23.47C1.98692 23.47 2.56 22.8969 2.56 22.19C2.56 21.483 1.98692 20.91 1.28 20.91C0.573074 20.91 0 21.483 0 22.19C0 22.8969 0.573074 23.47 1.28 23.47Z" fill="black"/>
<path d="M9.38998 23.47C10.0969 23.47 10.67 22.8969 10.67 22.19C10.67 21.483 10.0969 20.91 9.38998 20.91C8.68306 20.91 8.10999 21.483 8.10999 22.19C8.10999 22.8969 8.68306 23.47 9.38998 23.47Z" fill="black"/>
<path d="M17.45 23.52C18.1569 23.52 18.73 22.9469 18.73 22.24C18.73 21.5331 18.1569 20.96 17.45 20.96C16.7431 20.96 16.17 21.5331 16.17 22.24C16.17 22.9469 16.7431 23.52 17.45 23.52Z" fill="black"/>
<path d="M23.57 22.24C23.57 23.33 24.46 24.23 25.56 24.23C26.65 24.23 27.53 23.34 27.55 22.24C27.55 21.15 26.66 20.25 25.56 20.25C24.46 20.25 23.57 21.14 23.57 22.24Z" fill="black"/>
<path d="M5.32999 16.51C6.03691 16.51 6.60999 15.9369 6.60999 15.23C6.60999 14.5231 6.03691 13.95 5.32999 13.95C4.62307 13.95 4.04999 14.5231 4.04999 15.23C4.04999 15.9369 4.62307 16.51 5.32999 16.51Z" fill="black"/>
<path d="M13.44 16.51C14.1469 16.51 14.72 15.9369 14.72 15.23C14.72 14.5231 14.1469 13.95 13.44 13.95C12.7331 13.95 12.16 14.5231 12.16 15.23C12.16 15.9369 12.7331 16.51 13.44 16.51Z" fill="black"/>
<path d="M21.5 17.28C22.59 17.28 23.47 16.39 23.49 15.29C23.49 14.2 22.6 13.3 21.5 13.3C20.41 13.3 19.51 14.19 19.51 15.29C19.51 16.39 20.41 17.28 21.5 17.28Z" fill="black"/>
<path d="M13.34 2.56C14.0469 2.56 14.62 1.98692 14.62 1.28C14.62 0.573074 14.0469 0 13.34 0C12.6331 0 12.06 0.573074 12.06 1.28C12.06 1.98692 12.6331 2.56 13.34 2.56Z" fill="black"/>
<path d="M21.44 2.56C22.1469 2.56 22.72 1.98692 22.72 1.28C22.72 0.573074 22.1469 0 21.44 0C20.7331 0 20.16 0.573074 20.16 1.28C20.16 1.98692 20.7331 2.56 21.44 2.56Z" fill="black"/>
<path d="M29.49 2.62C30.1969 2.62 30.77 2.04692 30.77 1.34C30.77 0.633074 30.1969 0.0599976 29.49 0.0599976C28.7831 0.0599976 28.21 0.633074 28.21 1.34C28.21 2.04692 28.7831 2.62 29.49 2.62Z" fill="black"/>
<path d="M33.35 10.96C33.44 10.97 33.55 10.97 33.64 10.97C34.28 10.97 34.88 10.75 35.39 10.35C35.96 9.89002 36.32 9.22002 36.4 8.48002C36.55 6.95002 35.44 5.59001 33.91 5.42001C33.17 5.34001 32.45 5.56002 31.87 6.02002C31.3 6.48002 30.94 7.15002 30.86 7.89002C30.71 9.44002 31.83 10.81 33.35 10.96Z" fill="black"/>
<path d="M23.07 9.73C23.44 10.38 24.03 10.83 24.75 11.03C24.98 11.09 25.23 11.12 25.47 11.12C25.96 11.12 26.43 10.99 26.86 10.75C27.51 10.38 27.96 9.79 28.16 9.07C28.35 8.35 28.25 7.60999 27.88 6.95999C27.51 6.30999 26.92 5.86 26.2 5.66C25.48 5.47 24.72 5.56999 24.09 5.93999C23.44 6.30999 22.99 6.89999 22.79 7.61999C22.61 8.32999 22.7 9.07 23.07 9.73Z" fill="black"/>
<path d="M29.59 17.96C30.05 17.96 30.53 17.84 30.97 17.59C32.31 16.82 32.76 15.12 31.99 13.79C31.62 13.14 31.03 12.69 30.31 12.49C29.59 12.3 28.85 12.4 28.2 12.77C27.55 13.14 27.1 13.73 26.9 14.45C26.71 15.17 26.81 15.93 27.18 16.56C27.69 17.46 28.62 17.96 29.59 17.96Z" fill="black"/>
<path d="M36.21 12.83C34.87 13.6 34.42 15.3 35.19 16.63C35.56 17.28 36.15 17.73 36.87 17.93C37.1 17.99 37.35 18.02 37.59 18.02C38.07 18.02 38.54 17.89 38.98 17.65C39.63 17.28 40.08 16.69 40.28 15.97C40.47 15.25 40.37 14.49 40 13.86C39.24 12.51 37.53 12.06 36.21 12.83Z" fill="black"/>
<path d="M33.54 25.07C34.02 25.07 34.49 24.94 34.93 24.7C36.27 23.93 36.72 22.23 35.95 20.9C35.18 19.56 33.49 19.11 32.15 19.88C31.5 20.25 31.05 20.84 30.85 21.56C30.66 22.28 30.76 23.02 31.13 23.67C31.5 24.32 32.09 24.77 32.81 24.97C33.05 25.04 33.29 25.07 33.54 25.07Z" fill="black"/>
<path d="M44.05 20.85C43.68 20.2 43.09 19.75 42.37 19.55C41.65 19.36 40.89 19.46 40.26 19.83C39.61 20.2 39.16 20.79 38.96 21.51C38.77 22.23 38.87 22.99 39.24 23.62C39.76 24.51 40.69 25.01 41.66 25.01C42.12 25.01 42.6 24.88 43.04 24.64C44.36 23.89 44.82 22.18 44.05 20.85Z" fill="black"/>
<path d="M38.36 26.5C37.64 26.31 36.88 26.41 36.25 26.78C35.6 27.15 35.15 27.74 34.95 28.46C34.76 29.18 34.86 29.94 35.23 30.57C35.75 31.46 36.68 31.96 37.65 31.96C38.13 31.96 38.6 31.84 39.03 31.59C40.37 30.82 40.82 29.12 40.05 27.79C39.67 27.15 39.08 26.7 38.36 26.5Z" fill="black"/>
<path d="M28.87 31.82C29.1 31.88 29.35 31.91 29.59 31.91C30.07 31.91 30.54 31.79 30.98 31.54C31.63 31.17 32.08 30.58 32.28 29.86C32.47 29.14 32.37 28.38 32 27.75C31.63 27.1 31.04 26.65 30.32 26.45C29.6 26.26 28.84 26.36 28.21 26.73C27.56 27.1 27.11 27.69 26.91 28.41C26.72 29.13 26.82 29.87 27.19 30.52C27.56 31.17 28.15 31.62 28.87 31.82Z" fill="black"/>
<path d="M24.03 33.72C23.38 34.09 22.93 34.68 22.73 35.4C22.54 36.12 22.64 36.88 23.01 37.51C23.53 38.4 24.46 38.9 25.43 38.9C25.89 38.9 26.37 38.78 26.81 38.53C28.15 37.76 28.6 36.06 27.83 34.73C27.07 33.41 25.36 32.96 24.03 33.72Z" fill="black"/>
<path d="M32.19 33.72C30.85 34.49 30.4 36.19 31.17 37.52C31.69 38.41 32.62 38.91 33.59 38.91C34.07 38.91 34.54 38.79 34.97 38.54C36.31 37.77 36.76 36.07 35.99 34.74C35.22 33.41 33.51 32.96 32.19 33.72Z" fill="black"/>
<path d="M37.61 2.62C38.3169 2.62 38.89 2.04692 38.89 1.34C38.89 0.633074 38.3169 0.0599976 37.61 0.0599976C36.9031 0.0599976 36.33 0.633074 36.33 1.34C36.33 2.04692 36.9031 2.62 37.61 2.62Z" fill="black"/>
<path d="M9.38998 9.52002C10.0969 9.52002 10.67 8.94695 10.67 8.24002C10.67 7.5331 10.0969 6.96002 9.38998 6.96002C8.68306 6.96002 8.10999 7.5331 8.10999 8.24002C8.10999 8.94695 8.68306 9.52002 9.38998 9.52002Z" fill="black"/>
<path d="M17.49 10.22C18.589 10.22 19.48 9.32904 19.48 8.22999C19.48 7.13095 18.589 6.23999 17.49 6.23999C16.391 6.23999 15.5 7.13095 15.5 8.22999C15.5 9.32904 16.391 10.22 17.49 10.22Z" fill="black"/>
<path d="M62.54 41.81H63.69V37.93H68.22V36.87H63.69V34.09H68.56V33.02H62.54V41.81Z" fill="black"/>
<path d="M72.29 35.34C71.34 35.34 70.55 35.66 69.91 36.29C69.28 36.92 68.96 37.71 68.96 38.65C68.96 39.59 69.28 40.38 69.91 41.01C70.54 41.63 71.34 41.95 72.28 41.95C73.22 41.95 74.02 41.63 74.65 41C75.28 40.38 75.6 39.59 75.6 38.65C75.6 37.71 75.28 36.92 74.65 36.29C74.04 35.66 73.24 35.34 72.29 35.34ZM72.31 40.88C71.68 40.88 71.17 40.67 70.75 40.24C70.33 39.81 70.12 39.29 70.12 38.65C70.12 38 70.33 37.48 70.75 37.05C71.17 36.62 71.68 36.41 72.31 36.41C72.93 36.41 73.44 36.62 73.86 37.05C74.28 37.48 74.49 38 74.49 38.65C74.49 39.29 74.28 39.81 73.86 40.24C73.43 40.67 72.93 40.88 72.31 40.88Z" fill="black"/>
<path d="M81.42 38.74C81.42 39.36 81.24 39.85 80.86 40.26C80.49 40.67 80.04 40.86 79.51 40.86C79.02 40.86 78.62 40.69 78.3 40.35C77.97 40 77.81 39.58 77.81 39.05V35.46H76.68V39.12C76.68 39.94 76.93 40.62 77.42 41.14C77.91 41.66 78.56 41.93 79.34 41.93C79.84 41.93 80.31 41.81 80.76 41.57C81.02 41.43 81.26 41.24 81.46 41.01V41.8H82.58V35.45H81.43V38.74H81.42Z" fill="black"/>
<path d="M87.4 35.35C86.9 35.35 86.43 35.47 85.99 35.71C85.73 35.85 85.5 36.04 85.31 36.26V35.46H84.19V41.81H85.34V38.66C85.34 38.02 85.53 37.47 85.9 37.05C86.26 36.63 86.71 36.42 87.26 36.42C87.74 36.42 88.14 36.59 88.46 36.93C88.79 37.28 88.95 37.7 88.95 38.23V41.81H90.08V38.07C90.08 37.3 89.82 36.65 89.32 36.13C88.81 35.62 88.17 35.35 87.4 35.35Z" fill="black"/>
<path d="M96.45 36.29C96.24 36.06 96 35.88 95.72 35.73C95.28 35.48 94.78 35.36 94.23 35.36C93.35 35.36 92.6 35.68 92.01 36.31C91.42 36.94 91.12 37.73 91.12 38.66C91.12 39.59 91.42 40.38 92 41C92.59 41.63 93.33 41.96 94.2 41.96C94.75 41.96 95.26 41.83 95.72 41.57C96 41.41 96.25 41.22 96.46 40.98V41.82H97.59V32.61H96.44V36.29H96.45ZM95.87 37.06C96.28 37.49 96.49 38.01 96.49 38.64C96.49 39.29 96.29 39.81 95.87 40.24C95.46 40.67 94.95 40.88 94.33 40.88C93.74 40.88 93.26 40.67 92.86 40.25C92.46 39.82 92.27 39.3 92.27 38.66C92.27 38.02 92.46 37.5 92.86 37.07C93.26 36.64 93.74 36.44 94.33 36.44C94.96 36.43 95.46 36.63 95.87 37.06Z" fill="black"/>
<path d="M104.17 36.33C103.96 36.1 103.72 35.9 103.45 35.74C103 35.47 102.48 35.34 101.92 35.34C101.02 35.34 100.26 35.66 99.67 36.29C99.08 36.92 98.77 37.71 98.77 38.65C98.77 39.59 99.07 40.38 99.67 41C100.27 41.63 101.02 41.95 101.91 41.95C102.48 41.95 103 41.81 103.45 41.54C103.72 41.38 103.97 41.17 104.18 40.93V41.81H105.29V35.46H104.18V36.33H104.17ZM103.54 37.04C103.95 37.47 104.15 37.98 104.15 38.61C104.15 39.26 103.95 39.79 103.54 40.23C103.13 40.67 102.64 40.88 102.03 40.88C101.42 40.88 100.93 40.67 100.53 40.25C100.12 39.83 99.92 39.3 99.92 38.65C99.92 38 100.12 37.48 100.53 37.04C100.94 36.61 101.43 36.4 102.05 36.4C102.64 36.41 103.13 36.62 103.54 37.04Z" fill="black"/>
<path d="M111.54 33.49C111.39 33.64 111.31 33.82 111.31 34.03C111.31 34.25 111.39 34.44 111.54 34.59C111.69 34.75 111.88 34.82 112.1 34.82C112.32 34.82 112.51 34.74 112.67 34.59L112.68 34.58C112.82 34.43 112.89 34.24 112.89 34.02C112.89 33.81 112.81 33.62 112.66 33.48C112.36 33.2 111.85 33.2 111.54 33.49Z" fill="black"/>
<path d="M111.53 35.47H108.42V33.16H107.3V35.47H106.18V36.5H107.3V39.87C107.3 40.5 107.47 41.02 107.82 41.38C108.17 41.76 108.67 41.95 109.32 41.95C109.79 41.95 110.26 41.85 110.72 41.66L110.84 41.61V40.55L110.57 40.65C110.19 40.8 109.81 40.88 109.46 40.88C109.07 40.88 108.8 40.79 108.66 40.62C108.51 40.44 108.43 40.15 108.43 39.77V36.5H111.54V41.81H112.69V35.46H112.4H111.53V35.47Z" fill="black"/>
<path d="M117.16 35.34C116.21 35.34 115.41 35.66 114.78 36.29C114.15 36.92 113.83 37.72 113.83 38.65C113.83 39.59 114.15 40.38 114.78 41.01C115.41 41.63 116.21 41.95 117.15 41.95C118.09 41.95 118.89 41.63 119.52 41C120.15 40.38 120.47 39.59 120.47 38.65C120.47 37.71 120.15 36.92 119.52 36.29C118.91 35.66 118.11 35.34 117.16 35.34ZM119.35 38.65C119.35 39.29 119.14 39.81 118.72 40.24C118.3 40.67 117.79 40.88 117.17 40.88C116.54 40.88 116.03 40.67 115.61 40.24C115.19 39.81 114.98 39.29 114.98 38.65C114.98 38 115.19 37.48 115.61 37.05C116.03 36.62 116.54 36.41 117.17 36.41C117.79 36.41 118.3 36.62 118.72 37.05C119.15 37.48 119.35 38.01 119.35 38.65Z" fill="black"/>
<path d="M124.86 35.35C124.36 35.35 123.89 35.47 123.45 35.71C123.19 35.85 122.96 36.04 122.77 36.26V35.46H121.65V41.81H122.8V38.66C122.8 38.02 122.99 37.47 123.36 37.05C123.72 36.63 124.17 36.42 124.72 36.42C125.2 36.42 125.6 36.59 125.92 36.93C126.25 37.28 126.41 37.7 126.41 38.23V41.81H127.54V38.07C127.54 37.3 127.29 36.65 126.78 36.13C126.27 35.62 125.63 35.35 124.86 35.35Z" fill="black"/>
<path d="M72.19 3.59003H62.54V25.73H65.24V18.61H72C74.37 18.61 76.31 17.9 77.76 16.51C79.22 15.11 79.95 13.28 79.95 11.07C79.95 8.88003 79.22 7.07003 77.79 5.68003C76.36 4.30003 74.47 3.59003 72.19 3.59003ZM77.22 11.1C77.22 12.58 76.74 13.76 75.76 14.72C74.79 15.66 73.47 16.14 71.83 16.14H65.23V6.07003H71.99C73.56 6.07003 74.83 6.55002 75.78 7.49002C76.75 8.44002 77.22 9.63003 77.22 11.1Z" fill="black"/>
<path d="M93.62 13.43C94.45 14.32 94.87 15.46 94.87 16.82V25.74H97.57V16.34C97.57 14.41 96.93 12.78 95.65 11.49C94.38 10.19 92.76 9.54001 90.82 9.54001C89.62 9.54001 88.46 9.82001 87.38 10.38C86.66 10.75 86.03 11.26 85.5 11.88V2.51001H82.8V25.74H85.5V17.91C85.5 16.24 85.98 14.84 86.94 13.75C87.89 12.65 89.05 12.11 90.47 12.11C91.76 12.1 92.79 12.54 93.62 13.43Z" fill="black"/>
<path d="M104.34 17C104.34 15.49 104.77 14.28 105.6 13.4C106.44 12.51 107.48 12.07 108.79 12.07L114.23 12.04C112.75 13.59 112.01 15.53 112.01 17.8C112.01 20.15 112.81 22.14 114.39 23.71C115.97 25.28 117.98 26.07 120.35 26.07C122.72 26.07 124.73 25.27 126.31 23.69C127.89 22.13 128.69 20.14 128.69 17.79C128.69 15.43 127.89 13.44 126.31 11.86C124.84 10.39 122.99 9.60003 120.81 9.50003L108.86 9.47003L108.52 9.49003V9.51003C107.51 9.58003 106.59 9.84003 105.8 10.3C105.23 10.62 104.74 11.03 104.31 11.53V9.80003H101.67V25.71H104.34V17ZM114.72 17.81C114.72 16.16 115.27 14.76 116.35 13.66C117.43 12.56 118.75 12.02 120.42 12.01C122.02 12.02 123.32 12.56 124.41 13.66C125.49 14.76 126.04 16.15 126.04 17.8C126.04 19.45 125.51 20.8 124.41 21.91C123.32 23.02 122.01 23.56 120.4 23.56C118.77 23.56 117.44 23.02 116.35 21.91C115.25 20.81 114.72 19.46 114.72 17.81Z" fill="black"/>
<path d="M134.57 17.84C134.57 16.18 135.05 14.77 136.01 13.67C136.97 12.57 138.12 12.03 139.55 12.03C140.81 12.03 141.83 12.47 142.68 13.36C143.53 14.26 143.95 15.37 143.95 16.75V25.73H146.61V16.33C146.61 14.4 145.97 12.77 144.71 11.48C143.44 10.18 141.83 9.53003 139.93 9.53003C138.67 9.53003 137.49 9.83003 136.4 10.42C135.67 10.82 135.04 11.35 134.51 12.02V9.81003H131.87V25.72H134.57V17.84Z" fill="black"/>
<path d="M166.58 3.59003H164.08L154.72 25.73H157.65L160.08 19.79H170.47L172.89 25.73H175.82L166.68 3.83002L166.58 3.59003ZM169.54 17.32H161.04L165.36 6.91003L169.54 17.32Z" fill="black"/>
<path d="M181.14 3.59003H178.41V25.73H181.14V3.59003Z" fill="black"/>
</svg>
