<svg width="80" height="80" viewBox="0 0 80 80" fill="none" xmlns="http://www.w3.org/2000/svg">
<path d="M78.2 42.8C77.8 43.4 77.3 43.7 76.6 43.8H76.1C74.9 43.8 73.8 43.2 73.2 42.3L73.1 42.2C72.3 41.2 71.2 40.5 69.9 40.2C71.2 39.9 72.3 39.2 73.1 38.2L73.2 38C73.9 37.1 74.9 36.6 76.1 36.6C78.7 36.6 78.9 39.4 78.9 40.2C78.9 41.3 78.7 42.2 78.2 42.8ZM75.4 47.9C77.9 48.7 77.2 51.4 77 52.2C76.7 53.2 76.2 54 75.5 54.5C74.8 55 74 55.1 73.2 54.8C72.1 54.4 71.2 53.6 70.9 52.5V52.3C70.5 51.1 69.7 50.1 68.5 49.4C69 49.5 69.5 49.4 69.9 49.4C70.7 49.3 71.4 49 72.1 48.5L72.3 48.4C73.2 47.8 74.3 47.6 75.4 47.9ZM69.6 55.3C69.1 56.3 68.6 57 67.8 57.3H67.7C67.5 57.4 67.3 57.4 67.1 57.4C66.2 57.5 65.2 57.4 64.4 57C62.3 55.9 61.4 53.5 62.4 51.6C63.4 49.7 65.9 49 68 50C69.1 50.5 69.9 51.4 70.2 52.5L70.3 52.7C70.3 53.6 70.1 54.3 69.6 55.3ZM71.3 58.5C73.4 60 72 62.4 71.5 63.1C70.9 64 70.2 64.5 69.4 64.8C69.3 64.8 69.1 64.9 69 64.9C68.3 65 67.7 64.8 67.1 64.4C66.2 63.7 65.6 62.6 65.6 61.5V61.3C65.6 60 65.1 58.8 64.2 57.8C65.4 58.3 66.7 58.4 67.9 58L68.1 57.9C69.2 57.7 70.4 57.9 71.3 58.5ZM64.7 61.3V61.5C64.7 62.3 64.2 63 63.4 63.8C62.7 64.5 62.1 65 61.4 65.1H61C59.9 65.1 58.8 64.6 57.9 63.8C56.2 62.1 56.1 59.6 57.7 58C59.2 56.5 61.8 56.6 63.5 58.2C64.3 59 64.7 60.1 64.7 61.3ZM64.1 67.3C65.6 69.4 63.5 71.2 62.8 71.7C62.1 72.2 61.4 72.5 60.7 72.6H60.2C59.4 72.6 58.7 72.2 58.1 71.5C57.4 70.6 57.2 69.3 57.6 68.2L57.7 68C58.1 66.8 58 65.5 57.5 64.3C58.5 65.2 59.7 65.7 61 65.7H61.2C62.4 65.9 63.4 66.4 64.1 67.3ZM57 67.9L56.9 68.1C56.6 68.9 55.9 69.4 55 69.9C54.4 70.2 53.9 70.4 53.4 70.5C53.1 70.6 52.7 70.5 52.4 70.4H52.3C51.2 70 50.3 69.3 49.8 68.2C48.7 66.1 49.4 63.6 51.4 62.6C53.3 61.6 55.8 62.5 56.8 64.6C57.2 65.6 57.3 66.8 57 67.9ZM54.5 73.5C55.3 76 52.7 77.1 51.9 77.3C51.6 77.4 51.3 77.5 51 77.5C50.4 77.6 49.8 77.6 49.2 77.4C48.4 77.1 47.8 76.6 47.6 75.7C47.2 74.6 47.4 73.4 48.1 72.4L48.2 72.3C48.9 71.3 49.3 70 49.1 68.7C49.7 69.8 50.8 70.7 52 71.1L52.2 71.2C53.3 71.5 54.2 72.4 54.5 73.5ZM45.1 73.1C44 73.3 43.2 73.3 42.4 72.8L42.3 72.7C41.4 72 40.8 71 40.6 69.8C40.2 67.5 41.7 65.3 43.8 65C45.9 64.7 48 66.3 48.3 68.6C48.5 69.8 48.2 70.9 47.6 71.9L47.5 72C47 72.6 46.2 72.9 45.1 73.1ZM40.8 79.1C40.4 79.2 40.1 79.2 39.9 79.2C38.8 79.2 37.9 79 37.3 78.5C36.6 78 36.3 77.3 36.3 76.4C36.3 75.2 36.9 74.1 37.8 73.5L37.9 73.4C38.9 72.6 39.6 71.5 39.9 70.3C40.2 71.6 40.9 72.7 41.9 73.5L42.1 73.6C43 74.3 43.5 75.3 43.5 76.5C43.5 78.3 41.9 78.9 40.8 79.1ZM34.6 73.1C33.5 72.9 32.7 72.7 32.2 72C32.2 72 32.2 71.9 32.1 71.9C31.4 71 31.2 69.8 31.4 68.6C31.8 66.3 33.8 64.7 35.9 65C38 65.3 39.5 67.5 39.1 69.8C38.9 71 38.3 72 37.4 72.7L37.3 72.8C37 73 36.7 73.1 36.4 73.2C35.8 73.2 35.3 73.2 34.6 73.1ZM32.1 75.7C31.7 76.9 30.9 77.4 30 77.5C29.1 77.6 28.2 77.4 27.7 77.3C26.7 77 25.9 76.5 25.4 75.8C24.9 75.1 24.8 74.3 25.1 73.5C25.5 72.4 26.3 71.5 27.4 71.2L27.6 71.1C28.8 70.7 29.8 69.9 30.5 68.7C30.4 70 30.7 71.3 31.4 72.3L31.5 72.5C32.3 73.5 32.5 74.6 32.1 75.7ZM24.7 69.9C23.7 69.4 23 68.9 22.7 68.1V68C22.4 66.9 22.5 65.7 23 64.7C24.1 62.6 26.5 61.7 28.4 62.7C30.3 63.7 31 66.2 30 68.3C29.5 69.4 28.6 70.1 27.5 70.5C27.5 70.5 27.2 70.6 27.1 70.6C26.3 70.6 25.6 70.3 24.7 69.9ZM22 68.2L22.1 68.4C22.4 69.5 22.2 70.7 21.6 71.6C20.1 73.7 17.7 72.3 17 71.8C16.1 71.2 15.6 70.5 15.3 69.7C15 68.9 15.2 68.1 15.7 67.4C16.4 66.5 17.5 65.9 18.6 65.9H18.8C19.1 65.9 19.3 65.9 19.6 65.8C20.6 65.6 21.5 65.2 22.3 64.5C21.7 65.7 21.6 67 22 68.2ZM16.3 63.7C15.5 62.9 15 62.2 15 61.4V61.3C15 60.2 15.5 59.1 16.3 58.2C18 56.5 20.6 56.4 22.1 58C23.6 59.5 23.5 62.1 21.9 63.8C21.2 64.5 20.4 64.9 19.5 65.1C19.2 65 19 65 18.7 65H18.5C17.7 65 17.1 64.5 16.3 63.7ZM14.2 61.3V61.5C14.2 62.6 13.6 63.7 12.7 64.4C12.3 64.7 11.9 64.9 11.5 64.9C9.9 65.2 8.7 63.7 8.3 63.1C7.7 62.2 7.3 61.4 7.3 60.6C7.3 59.8 7.7 59.1 8.4 58.5C9.3 57.8 10.6 57.6 11.7 58L11.9 58.1C13.1 58.5 14.4 58.4 15.6 57.9C14.7 58.8 14.2 60 14.2 61.3ZM10.2 55.3C9.7 54.3 9.4 53.5 9.7 52.7V52.6C10.1 51.5 10.8 50.6 11.9 50.1C14 49 16.5 49.7 17.5 51.7C18.5 53.6 17.6 56 15.5 57.1C15.1 57.3 14.6 57.5 14.1 57.5C13.4 57.6 12.8 57.6 12.1 57.4H12C11.1 57 10.7 56.3 10.2 55.3ZM8.9 52.4L8.8 52.6C8.4 53.7 7.6 54.5 6.5 54.9C6.3 54.9 6.2 54.9 6 55C3.9 55.3 2.9 53.1 2.7 52.3C2.4 51.3 2.3 50.4 2.6 49.6C2.9 48.8 3.4 48.2 4.3 48C5.4 47.6 6.6 47.8 7.6 48.5L7.7 48.6C8.7 49.3 10 49.7 11.3 49.5C10.2 50.1 9.3 51.1 8.9 52.4ZM6.5 42.4C5.9 43.2 5.1 43.6 4.2 43.8H3.6C1 43.8 0.8 41 0.8 40.2C0.8 39.1 1 38.2 1.5 37.6C2 36.9 2.7 36.6 3.6 36.6C4.8 36.6 5.9 37.2 6.5 38.1L6.6 38.2C7.4 39.2 8.5 39.9 9.8 40.2C8.5 40.5 7.4 41.2 6.6 42.2C6.6 42.3 6.5 42.4 6.5 42.4ZM6 32.6C5.4 32.7 4.9 32.6 4.3 32.5C1.8 31.7 2.5 29 2.7 28.2C3 27.2 3.5 26.4 4.2 25.9C4.9 25.4 5.7 25.3 6.5 25.6C7.6 26 8.5 26.8 8.8 27.9L8.9 28.1C9.3 29.3 10.1 30.3 11.3 31C10 30.9 8.7 31.2 7.7 31.9L7.5 32C7 32.4 6.5 32.6 6 32.6ZM10.2 25.1C10.7 24.1 11.2 23.4 12 23.1H12.1C13.2 22.8 14.4 22.9 15.4 23.4C17.5 24.5 18.4 26.9 17.4 28.8C16.8 29.9 15.8 30.6 14.6 30.8C13.7 30.9 12.8 30.8 11.9 30.4C10.8 29.9 10 29 9.7 27.9L9.6 27.7C9.4 26.9 9.6 26.1 10.2 25.1ZM8.4 21.9C6.3 20.4 7.7 18 8.2 17.3C8.8 16.4 9.5 15.9 10.3 15.6C11.1 15.3 11.9 15.5 12.6 16C13.5 16.7 14.1 17.8 14.1 18.9V19.1C14.1 20.4 14.6 21.6 15.5 22.6C14.3 22.1 13 22 11.8 22.4C11.8 22.4 11.3 22.6 11.1 22.6C10.2 22.7 9.2 22.5 8.4 21.9ZM15 19.2V19C15 18.2 15.5 17.5 16.3 16.7C17.1 15.9 17.8 15.4 18.6 15.4H18.7C19.8 15.4 20.9 15.9 21.8 16.7C23.5 18.4 23.6 20.9 22 22.5C20.5 24 17.9 23.9 16.2 22.3C15.4 21.4 15 20.3 15 19.2ZM15.6 13.1C14 11 16.2 9.2 16.9 8.7C17.8 8.1 18.6 7.7 19.4 7.7C20.2 7.7 20.9 8.1 21.5 8.8C22.2 9.7 22.4 11 22 12.1L21.9 12.3C21.5 13.5 21.6 14.8 22.1 16C21.1 15.1 19.9 14.6 18.6 14.6H18.4C17.3 14.6 16.3 14 15.6 13.1ZM22.7 12.5L22.8 12.3C23.1 11.5 23.8 11 24.8 10.5C25.8 10 26.6 9.7 27.4 10H27.5C28.6 10.4 29.5 11.1 30 12.2C31.1 14.3 30.4 16.8 28.4 17.8C26.5 18.8 24 17.9 23 15.8C22.5 14.8 22.4 13.6 22.7 12.5ZM25.2 7C24.4 4.5 27 3.4 27.8 3.2C28.8 2.9 29.7 2.8 30.5 3.1C31.3 3.4 31.9 3.9 32.1 4.8C32.5 5.9 32.3 7.1 31.6 8.1L31.5 8.2C30.8 9.2 30.4 10.5 30.6 11.8C30 10.7 28.9 9.8 27.7 9.4L27.5 9.3C26.4 8.9 25.6 8.1 25.2 7ZM34.6 7.4C35.7 7.2 36.5 7.2 37.3 7.7C37.3 7.7 37.4 7.7 37.4 7.8C38.3 8.5 38.9 9.5 39.1 10.7C39.5 13 38 15.2 35.9 15.5C33.8 15.8 31.7 14.2 31.4 11.9C31.2 10.7 31.5 9.6 32.1 8.6L32.2 8.5C32.8 7.8 33.5 7.6 34.6 7.4ZM39.9 1.3C41 1.3 41.9 1.5 42.5 2C43.2 2.5 43.5 3.2 43.5 4.1C43.5 5.3 42.9 6.4 42 7L41.8 7.1C40.8 7.9 40.1 9 39.8 10.2C39.5 8.9 38.8 7.8 37.8 7L37.6 6.9C36.7 6.2 36.2 5.2 36.2 4C36.2 1.5 39 1.3 39.9 1.3ZM45.1 7.4C46.2 7.6 47 7.8 47.5 8.5L47.6 8.6C48.3 9.5 48.5 10.7 48.3 11.9C47.9 14.2 45.9 15.8 43.8 15.5C41.7 15.2 40.2 13 40.6 10.7C40.8 9.5 41.4 8.5 42.3 7.8L42.4 7.7C43.1 7.2 44 7.2 45.1 7.4ZM47.6 4.7C48.4 2.2 51.1 2.9 51.9 3.1C52.9 3.4 53.7 3.9 54.2 4.6C54.7 5.3 54.8 6.1 54.5 6.9C54.1 8 53.3 8.9 52.2 9.2L52 9.3C50.8 9.7 49.8 10.5 49.1 11.7C49.2 10.4 48.9 9.1 48.2 8.1L48.1 7.9C47.4 7 47.2 5.8 47.6 4.7ZM55 10.6C56 11.1 56.7 11.6 57 12.4V12.5C57.3 13.6 57.2 14.8 56.7 15.8C55.6 17.9 53.2 18.8 51.3 17.8C49.4 16.8 48.7 14.3 49.7 12.2C50.2 11.1 51.1 10.4 52.2 10L52.4 9.9C53.2 9.8 54 10.1 55 10.6ZM57.7 12.3L57.6 12.1C57.3 11 57.5 9.8 58.1 8.9C59.6 6.8 62 8.2 62.7 8.7C63.6 9.3 64.1 10 64.4 10.8C64.7 11.6 64.5 12.4 64 13.1C63.3 14 62.2 14.6 61.1 14.6H60.9C59.6 14.6 58.4 15.1 57.4 16C58 14.8 58.1 13.5 57.7 12.3ZM63.4 16.7C64.2 17.5 64.7 18.2 64.7 19V19.1C64.7 20.2 64.2 21.3 63.4 22.2C62.7 22.9 61.8 23.3 60.9 23.5C59.7 23.7 58.5 23.4 57.6 22.5C56.1 21 56.2 18.4 57.8 16.7C58.6 15.9 59.7 15.4 60.9 15.4H61.1C62 15.4 62.6 15.9 63.4 16.7ZM65.5 19.1V18.9C65.5 17.8 66.1 16.7 67 16C69.1 14.5 70.9 16.6 71.4 17.3C72 18.2 72.4 19 72.4 19.8C72.4 20.6 72 21.3 71.3 21.9C70.4 22.6 69.1 22.8 68 22.4L67.8 22.3C66.6 21.9 65.3 22 64.1 22.5C65 21.7 65.5 20.4 65.5 19.1ZM69.5 25.1C70 26.1 70.3 26.9 70 27.7V27.8C69.6 28.9 68.9 29.8 67.8 30.3C67.4 30.5 66.9 30.7 66.4 30.7C64.7 31 63 30.2 62.2 28.7C61.2 26.8 62.1 24.4 64.2 23.3C65.3 22.8 66.5 22.7 67.5 23L67.7 23.1C68.6 23.5 69 24.1 69.5 25.1ZM69.5 39.5C67.2 39.9 65 38.4 64.7 36.3C64.4 34.2 66 32.1 68.3 31.8C69.5 31.6 70.6 31.9 71.6 32.5L71.7 32.6C72.4 33.1 72.6 33.9 72.8 35C73 36.1 73 36.9 72.5 37.7C72.5 37.7 72.5 37.8 72.4 37.8C71.7 38.7 70.7 39.3 69.5 39.5ZM64.7 44.1C65 42 67.2 40.5 69.5 40.9C70.7 41.1 71.7 41.7 72.4 42.6L72.5 42.7C73 43.4 73 44.2 72.8 45.3C72.6 46.4 72.4 47.2 71.7 47.7L71.6 47.8C71.1 48.2 70.4 48.4 69.8 48.5C69.3 48.6 68.9 48.6 68.4 48.5C66 48.3 64.4 46.3 64.7 44.1ZM60.8 47.7L57 45.8L61.2 46.5C62 46.6 62.7 46.4 63.2 45.9L63.8 45.3C64 46.8 64.9 48.1 66.2 48.9C64.7 48.7 63.1 49.3 62.1 50.3L62 49.4C62 48.7 61.5 48.1 60.8 47.7ZM61.5 51.2C61.4 51.4 61.3 51.5 61.1 51.6L60 52.2C59.9 52.3 59.8 52.3 59.6 52.3C59.3 52.4 58.9 52.3 58.5 52.1C58 51.9 57.7 51.4 57.6 51L57.4 49.8C57.3 49.4 57.5 49.1 57.9 48.9L59 48.4C59.4 48.2 59.9 48.2 60.3 48.4L60.4 48.5C60.9 48.7 61.2 49.2 61.3 49.6L61.5 50.8C61.6 50.9 61.6 51.1 61.5 51.2ZM55.3 57.8C54.9 57.9 54.4 57.7 54 57.3C53.6 56.9 53.4 56.4 53.5 56L53.7 54.8C53.8 54.4 54 54.1 54.4 54.1L55.6 53.9C56 53.8 56.5 54 56.8 54.3L56.9 54.4C57.3 54.8 57.5 55.3 57.4 55.7L57.2 56.9C57.2 57.1 57.1 57.3 57 57.4C56.9 57.5 56.7 57.6 56.5 57.6L55.3 57.8ZM49.1 61.7C48.7 61.6 48.2 61.3 48 60.8C47.8 60.3 47.7 59.8 47.9 59.4L48.5 58.3C48.7 57.9 49 57.8 49.4 57.8L50.6 58C51 58.1 51.4 58.4 51.6 58.8L51.7 58.9C51.9 59.4 52 59.9 51.8 60.3L51.2 61.4C51.1 61.6 51 61.7 50.8 61.8C50.7 61.8 50.6 61.9 50.6 61.9H50.3L49.1 61.7ZM42 63.5C41.6 63.3 41.3 62.8 41.2 62.3C41.1 61.8 41.3 61.2 41.6 60.9L42.5 60C42.8 59.7 43.2 59.7 43.5 59.8L44.6 60.4C45 60.6 45.2 61 45.3 61.5V61.6C45.4 62.1 45.2 62.7 44.9 63L44 63.9C43.9 64 43.7 64.1 43.5 64.2C43.3 64.2 43.1 64.2 43 64.1C43.1 64.1 42 63.5 42 63.5ZM38 64.2C38.6 63.9 39 63.2 39.2 62.5V62.4L39.9 58.3L40.6 62.5C40.7 63.3 41.2 63.9 41.8 64.3L42.6 64.7C41.3 65.3 40.3 66.6 40 68.1C39.7 66.6 38.7 65.3 37.4 64.7L38 64.2ZM34.7 63.1C34.4 62.8 34.3 62.3 34.3 61.7C34.4 61.2 34.7 60.7 35.1 60.5L36.2 59.9C36.6 59.7 36.9 59.8 37.2 60.1L38.1 61C38.4 61.3 38.5 61.8 38.5 62.2V62.3C38.4 62.8 38.1 63.3 37.7 63.5L36.6 64.1C36.5 64.1 36.4 64.2 36.3 64.2H36.1C35.9 64.2 35.8 64.1 35.6 63.9L34.7 63.1ZM28 58.9C28.3 58.4 28.7 58.1 29.1 58L30.3 57.8C30.7 57.7 31 57.9 31.2 58.3L31.7 59.4C31.9 59.8 31.9 60.3 31.7 60.7L31.6 60.8C31.3 61.3 30.9 61.6 30.5 61.7L29.3 61.9C29.1 61.9 28.9 61.9 28.8 61.8C28.6 61.7 28.5 61.6 28.4 61.4L27.9 60.3C27.7 60 27.7 59.4 28 58.9ZM22.8 54.3C23.2 53.9 23.7 53.7 24.1 53.8L25.3 54C25.7 54.1 26 54.3 26 54.7L26.2 55.9C26.3 56.3 26.1 56.8 25.8 57.1L25.7 57.2C25.4 57.5 25.1 57.7 24.7 57.7H24.3L23.1 57.5C22.9 57.5 22.7 57.4 22.6 57.3C22.5 57.2 22.4 57 22.4 56.8L22.2 55.6C22.2 55.2 22.4 54.7 22.8 54.3ZM18.1 50.7L18.3 49.5C18.4 49.1 18.7 48.6 19.2 48.4C19.7 48.2 20.2 48.1 20.6 48.3L21.7 48.8C22.1 49 22.2 49.3 22.2 49.7L22 51C21.9 51.4 21.6 51.8 21.2 52L21.1 52.1C20.9 52.2 20.7 52.3 20.5 52.3C20.2 52.3 19.9 52.3 19.6 52.2L18.5 51.6C18.3 51.5 18.2 51.4 18.1 51.2V50.7ZM15.8 45.3L16.4 45.9C16.9 46.4 17.7 46.6 18.4 46.5H18.5L22.6 45.9L18.8 47.8C18.1 48.2 17.6 48.8 17.5 49.4L17.4 50.3C16.4 49.2 14.9 48.7 13.3 48.9C14.7 48 15.6 46.7 15.8 45.3ZM15 44.2C15.3 46.3 13.7 48.4 11.4 48.7C10.2 48.9 9.1 48.6 8.1 48L8 47.9C7.3 47.4 7.1 46.6 6.9 45.5C6.7 44.4 6.7 43.6 7.2 42.8L7.3 42.7C8 41.7 9 41.1 10.2 41C12.5 40.6 14.7 42 15 44.2ZM18.9 32.7C18.9 32.7 19 32.7 19 32.8L22.7 34.7L18.5 34C17.7 33.9 17 34.1 16.5 34.6L15.9 35.2C15.7 33.7 14.8 32.4 13.5 31.6H14.9C15.9 31.4 16.9 31 17.6 30.2L17.7 31.1C17.7 31.7 18.2 32.4 18.9 32.7ZM18.2 29.2C18.3 29 18.4 28.9 18.6 28.8L19.7 28.3C20.1 28.1 20.6 28.1 21.1 28.4C21.6 28.6 21.9 29.1 22 29.5L22.2 30.7C22.3 31.1 22.1 31.4 21.7 31.6L20.6 32.1C20.5 32.2 20.4 32.2 20.3 32.2C20 32.2 19.7 32.2 19.3 32.1L19.2 32C18.7 31.8 18.4 31.3 18.3 30.9L18.1 29.7C18.1 29.5 18.1 29.4 18.2 29.2ZM24.4 22.7C24.8 22.6 25.3 22.8 25.7 23.2C26.1 23.6 26.3 24.1 26.2 24.5L26 25.7C25.9 26.1 25.7 26.4 25.3 26.4L24.1 26.6C23.7 26.7 23.2 26.5 22.9 26.2L22.8 26.1C22.4 25.7 22.2 25.2 22.3 24.8L22.5 23.6C22.5 23.4 22.6 23.2 22.7 23.1C22.8 23 23 22.9 23.2 22.9C23.2 22.8 24.4 22.7 24.4 22.7ZM30.6 18.7C31 18.8 31.5 19.1 31.7 19.6C31.9 20.1 32 20.6 31.8 21L31.2 22.1C31.1 22.4 30.9 22.5 30.6 22.6H30.3L29.1 22.4C28.7 22.3 28.3 22 28.1 21.6L28 21.5C27.8 21 27.7 20.5 27.9 20.1L28.5 19C28.6 18.8 28.7 18.7 28.9 18.6C29.1 18.5 29.2 18.5 29.4 18.5L30.6 18.7ZM37.7 16.9C38.1 17.1 38.4 17.6 38.5 18.1C38.6 18.6 38.4 19.2 38.1 19.5L37.2 20.4C37.1 20.5 36.9 20.6 36.7 20.7C36.5 20.7 36.3 20.7 36.2 20.6L35.1 20C34.7 19.8 34.5 19.4 34.4 18.9V18.8C34.3 18.3 34.5 17.7 34.8 17.4L35.7 16.5C35.8 16.4 36 16.3 36.2 16.2C36.4 16.2 36.6 16.2 36.7 16.3L37.7 16.9ZM41.7 16.3C41.1 16.6 40.7 17.3 40.5 18V18.1L39.8 22.2L39.2 18C39.1 17.2 38.6 16.6 38 16.2L37.2 15.8C38.5 15.2 39.5 13.9 39.8 12.4C40.1 13.9 41.1 15.2 42.4 15.8C42.5 15.9 41.7 16.3 41.7 16.3ZM45 17.4C45.3 17.7 45.4 18.2 45.4 18.8C45.3 19.3 45 19.8 44.6 20L43.5 20.6C43.4 20.6 43.3 20.7 43.2 20.7C42.9 20.7 42.7 20.7 42.5 20.4L41.6 19.5C41.3 19.2 41.2 18.7 41.2 18.2V18.1C41.3 17.6 41.6 17.1 42 16.9L43.1 16.3C43.3 16.2 43.5 16.2 43.6 16.2C43.7 16.2 43.9 16.3 44.1 16.5L45 17.4ZM51.7 21.5C51.4 22 51 22.3 50.6 22.4L49.4 22.6C49 22.7 48.7 22.5 48.5 22.1L48 21.1C47.8 20.7 47.8 20.2 48 19.8L48.1 19.7C48.4 19.2 48.8 18.9 49.2 18.8L50.4 18.6C50.6 18.6 50.8 18.6 50.9 18.7C51.1 18.8 51.2 18.9 51.3 19.1L51.8 20.2C52 20.5 52 21 51.7 21.5ZM56.9 26.1C56.6 26.4 56.3 26.6 55.9 26.6H55.5L54.3 26.4C53.9 26.3 53.6 26.1 53.6 25.7L53.4 24.5C53.3 24.1 53.5 23.6 53.8 23.3L53.9 23.2C54.3 22.8 54.8 22.6 55.2 22.7L56.4 22.9C56.6 22.9 56.8 23 56.9 23.1C57 23.2 57.1 23.4 57.1 23.6L57.3 24.8C57.5 25.2 57.3 25.7 56.9 26.1ZM61.6 29.8L61.4 31C61.3 31.4 61 31.9 60.5 32.1C60.3 32.2 60.1 32.3 59.9 32.3C59.6 32.3 59.3 32.3 59 32.2L57.9 31.7C57.5 31.5 57.4 31.2 57.4 30.8L57.6 29.6C57.7 29.2 58 28.8 58.4 28.6L58.5 28.5C59 28.3 59.5 28.2 59.9 28.4L61 29C61.2 29.1 61.3 29.2 61.4 29.4C61.6 29.4 61.6 29.6 61.6 29.8ZM63.9 35.2L63.3 34.6C62.8 34.1 62 33.9 61.3 34H61.2L57 34.7L60.8 32.8C61.5 32.4 62 31.8 62.1 31.2L62.3 30.3C63.3 31.4 64.8 31.9 66.4 31.7C65 32.4 64.1 33.7 63.9 35.2ZM62.1 40.9L57.9 40.2L62.1 39.5C62.9 39.4 63.5 38.9 63.8 38.3L64.2 37.5C64.8 38.8 66.1 39.8 67.6 40.1C66.1 40.4 64.8 41.4 64.2 42.7L63.8 41.9C63.6 41.5 62.9 41 62.1 40.9ZM59.6 43.9C59.4 43.5 59.5 43.2 59.8 42.9L60.7 42C61 41.7 61.5 41.6 62 41.6H62.1C62.6 41.7 63.1 42 63.3 42.4L63.9 43.5C64 43.7 64 43.9 64 44C64 44.2 63.9 44.3 63.7 44.5L62.8 45.4C62.6 45.6 62.3 45.7 62 45.8H61.4C60.9 45.7 60.4 45.4 60.2 45C60.1 44.9 59.6 43.9 59.6 43.9ZM55.9 44.3L55.3 43.2C55.1 42.8 55.2 42.5 55.5 42.2L56.4 41.3C56.7 41 57.3 40.9 57.8 40.9L60.3 41.3L60.2 41.4L59.3 42.3C59 42.6 58.9 42.9 58.8 43.2C58.7 43.5 58.8 43.9 59 44.2L59.6 45.3C59.6 45.4 59.7 45.4 59.7 45.5L57.1 45C56.6 45 56.1 44.7 55.9 44.3ZM50.5 52.9L50.7 51.7C50.8 51.3 51 51 51.4 51L52.6 50.8C53 50.7 53.6 50.9 53.9 51.3L55.7 53.1H55.5L54.3 53.3C53.9 53.4 53.6 53.5 53.4 53.7C53.2 53.9 53 54.2 53 54.6L52.8 55.8V56L51 54.2C50.6 53.9 50.4 53.3 50.5 52.9ZM49.3 51.1C48.8 51.2 48.2 51 47.8 50.6C47.1 49.9 47.1 48.8 47.8 48.2C48.5 47.5 49.6 47.5 50.2 48.2C50.9 48.9 50.9 50 50.2 50.6C50 50.9 49.7 51.1 49.3 51.1ZM48.1 51.6C48.7 51.9 49.3 51.9 49.9 51.7L49.7 52.9C49.6 53.3 49.7 53.8 50 54.3C49.7 53.9 49.2 53.7 48.8 53.6L47.6 53.4C48 52.8 48.2 52.2 48.1 51.6ZM46 55.5L46.5 54.4C46.7 54 47 53.9 47.4 53.9L48.6 54.1C49 54.2 49.5 54.5 49.7 55L50.8 57.2H50.6L49.4 57C49 56.9 48.7 57 48.4 57.1C48.1 57.2 47.9 57.5 47.7 57.8L47.3 59C47.3 59.1 47.2 59.1 47.2 59.2L46.1 57C45.8 56.5 45.8 55.9 46 55.5ZM41 56.7L41.9 55.8C42.2 55.5 42.6 55.5 42.9 55.6L44 56.2C44.4 56.4 44.7 56.9 44.8 57.4L45.2 59.9L45.1 59.8L44 59.2C43.7 59 43.3 59 43 59C42.7 59.1 42.4 59.2 42.1 59.5L41.2 60.4L41.1 60.5L40.7 58C40.5 57.5 40.7 57 41 56.7ZM38.4 55.3C39 55.1 39.5 54.7 39.8 54.2C40.1 54.7 40.6 55.1 41.2 55.3L40.4 56.1C40.1 56.4 39.9 56.9 39.8 57.4C39.7 56.9 39.5 56.5 39.2 56.1L38.4 55.3ZM35 57.4C35.1 56.9 35.4 56.4 35.8 56.2L36.9 55.6C37.3 55.4 37.6 55.5 37.9 55.8L38.8 56.7C39.1 57 39.3 57.6 39.2 58.1L38.8 60.5L38.7 60.4L37.8 59.5C37.5 59.2 37.2 59.1 36.9 59C36.6 59 36.2 59 35.9 59.2L34.8 59.8C34.7 59.8 34.7 59.9 34.6 59.9L35 57.4ZM33.2 53.3C32.4 52.9 32 51.8 32.4 51C32.8 50.2 33.9 49.8 34.7 50.3C35.5 50.7 35.9 51.8 35.5 52.6C35.2 53.1 34.8 53.4 34.2 53.5C33.9 53.6 33.5 53.5 33.2 53.3ZM29.9 55.1C30.2 54.6 30.6 54.3 31 54.2L32.2 54C32.6 53.9 32.9 54.1 33.1 54.5L33.6 55.6C33.8 56 33.8 56.5 33.5 57L32.4 59.2C32.4 59.1 32.4 59.1 32.3 59L31.9 58C31.7 57.7 31.5 57.4 31.2 57.3C30.9 57.2 30.6 57.1 30.2 57.2L29 57.3H28.8L29.9 55.1ZM30 52.8L29.8 51.6C30.4 51.8 31 51.8 31.6 51.5C31.5 52.1 31.7 52.7 32.1 53.2L30.9 53.4C30.5 53.5 30 53.7 29.7 54.1C29.9 53.7 30 53.3 30 52.8ZM29.4 48.2C30.1 47.5 31.2 47.5 31.8 48.2C32.5 48.9 32.5 50 31.8 50.6C31.5 50.9 31.2 51 30.9 51.1C30.4 51.2 29.8 51 29.4 50.6C28.7 50 28.7 48.9 29.4 48.2ZM25.8 51.3C26.2 50.9 26.7 50.7 27.1 50.8L28.3 51C28.7 51.1 29 51.3 29 51.7L29.2 52.9C29.3 53.3 29.1 53.9 28.7 54.2L27 56V55.8L26.8 54.6C26.7 54.2 26.6 53.9 26.4 53.7C26.2 53.5 25.9 53.3 25.5 53.3L24.3 53.1H24.1C24 53.1 25.8 51.3 25.8 51.3ZM20.2 45.3L20.8 44.2C21 43.9 21 43.5 21 43.2C20.9 42.9 20.8 42.6 20.5 42.3L19.6 41.4L19.5 41.3L22 40.9C22.5 40.8 23.1 41 23.4 41.3L24.3 42.2C24.6 42.5 24.6 42.9 24.5 43.2L23.9 44.3C23.7 44.7 23.2 45 22.7 45.1L20.2 45.5V45.3ZM15.9 43.5L16.5 42.4C16.7 42 17.2 41.7 17.7 41.6C18.2 41.5 18.8 41.7 19.1 42L20 42.9C20.3 43.2 20.3 43.6 20.2 43.9L19.6 45C19.4 45.4 19 45.6 18.5 45.7H18.4C17.9 45.8 17.3 45.6 17 45.3L16.1 44.4C16 44.3 15.9 44.1 15.8 43.9C15.8 43.8 15.8 43.7 15.9 43.5ZM17.6 39.5H17.7L21.8 40.2L17.6 40.9C16.8 41 16.2 41.5 15.8 42.1L15.4 42.9C14.8 41.6 13.5 40.6 12 40.3C13.5 40 14.8 39 15.4 37.7L15.8 38.5C16.1 39 16.8 39.4 17.6 39.5ZM20.1 36.6C20.3 37 20.2 37.3 19.9 37.6L19 38.5C18.8 38.7 18.5 38.8 18.2 38.9H17.6C17.1 38.8 16.6 38.5 16.4 38.1L15.8 37C15.7 36.8 15.7 36.6 15.7 36.5C15.7 36.3 15.8 36.2 16 36L16.9 35.1C17.2 34.8 17.7 34.7 18.3 34.7C18.8 34.8 19.3 35.1 19.5 35.5C19.6 35.5 20.1 36.6 20.1 36.6ZM23.8 36.2L24.4 37.3C24.6 37.7 24.5 38 24.2 38.3L23.3 39.2C23.1 39.4 22.8 39.5 22.5 39.6H21.9L19.4 39.2L19.5 39.1L20.4 38.2C20.7 37.9 20.8 37.6 20.9 37.3C21 37 20.9 36.6 20.7 36.3L20.1 35.2C20.1 35.1 20 35.1 20 35L22.5 35.4C23.1 35.5 23.6 35.8 23.8 36.2ZM29.2 27.6L29 28.8C28.9 29.2 28.7 29.5 28.3 29.5L27.1 29.7C26.7 29.8 26.1 29.6 25.8 29.2L24 27.4H24.2L25.4 27.2C25.8 27.1 26.1 27 26.3 26.8C26.5 26.6 26.7 26.3 26.7 25.9L26.9 24.7V24.5L28.7 26.3C29.1 26.6 29.3 27.1 29.2 27.6ZM31.8 29.8C32.5 30.5 32.5 31.6 31.8 32.2C31.5 32.5 31.2 32.6 30.9 32.7C30.4 32.8 29.8 32.6 29.4 32.2C28.7 31.5 28.7 30.4 29.4 29.8C30.1 29.1 31.2 29.1 31.8 29.8ZM31.6 28.9C31 28.6 30.4 28.6 29.8 28.8L30 27.6C30.1 27.2 30 26.7 29.7 26.2C30 26.6 30.5 26.8 30.9 26.9L32.1 27.1C31.7 27.7 31.5 28.3 31.6 28.9ZM33.7 24.9L33.1 26C32.9 26.4 32.6 26.5 32.2 26.5L31 26.2C30.6 26.1 30.1 25.8 29.9 25.3L28.8 23.1H29L30.2 23.3H30.7C30.9 23.3 31 23.2 31.2 23.2C31.5 23.1 31.7 22.8 31.9 22.5L32.5 21.4C32.5 21.3 32.5 21.3 32.6 21.2L33.7 23.4C33.9 24 33.9 24.5 33.7 24.9ZM38.7 23.8L37.8 24.7C37.7 24.8 37.5 24.9 37.3 25C37.1 25 36.9 25 36.8 24.9L35.7 24.3C35.4 24 35.1 23.5 35 23L34.6 20.5L34.7 20.6L35.8 21.2C36.1 21.4 36.5 21.4 36.8 21.4C37.1 21.3 37.4 21.2 37.7 20.9L38.6 20L38.7 19.9L39.1 22.4C39.2 22.9 39 23.4 38.7 23.8ZM41.3 25.1C40.7 25.3 40.2 25.7 39.9 26.2C39.6 25.7 39.1 25.3 38.5 25.1L39.3 24.3C39.6 24 39.8 23.5 39.9 23C40 23.5 40.2 23.9 40.5 24.3L41.3 25.1ZM44.7 23C44.6 23.5 44.3 24 43.9 24.2L42.8 24.8C42.7 24.8 42.6 24.9 42.5 24.9C42.2 24.9 42 24.9 41.8 24.6L40.9 23.7C40.6 23.4 40.5 22.9 40.5 22.3L40.9 19.9L41 20L41.9 20.9C42.2 21.2 42.5 21.3 42.8 21.4C43.1 21.4 43.5 21.4 43.8 21.2L44.9 20.6C45 20.6 45 20.5 45.1 20.5L44.7 23ZM46.6 27.1C47.4 27.5 47.8 28.6 47.3 29.4C47 29.9 46.6 30.2 46 30.3C45.7 30.4 45.3 30.3 45 30.1C44.2 29.7 43.8 28.6 44.2 27.8C44.7 27 45.7 26.7 46.6 27.1ZM49.8 25.3C49.5 25.8 49.1 26.1 48.7 26.2L47.5 26.4C47.1 26.5 46.8 26.3 46.6 25.9L46 24.9C45.8 24.5 45.8 24 46.1 23.5L47.2 21.3C47.2 21.4 47.2 21.4 47.3 21.5L47.8 22.6C48 22.9 48.2 23.2 48.5 23.3C48.8 23.4 49.1 23.5 49.5 23.4L50.7 23.2H50.9C50.9 23.1 49.8 25.3 49.8 25.3ZM49.7 27.6L49.9 28.8C49.3 28.6 48.7 28.6 48.1 28.9C48.2 28.3 48 27.7 47.6 27.2L48.8 27C49.2 26.9 49.7 26.7 50 26.3C49.8 26.7 49.7 27.2 49.7 27.6ZM50.3 32.2C50 32.5 49.7 32.6 49.4 32.7C48.9 32.8 48.3 32.6 47.9 32.2C47.2 31.5 47.2 30.4 47.9 29.8C48.6 29.1 49.7 29.1 50.3 29.8C51 30.5 51 31.6 50.3 32.2ZM53.9 29.1C53.6 29.4 53.3 29.6 52.9 29.6H52.5L51.3 29.4C50.9 29.3 50.6 29.1 50.6 28.7L50.4 27.5C50.3 27.1 50.5 26.5 50.9 26.2L52.7 24.5V24.7L52.9 25.9C53 26.3 53.1 26.6 53.3 26.8C53.5 27 53.8 27.2 54.2 27.2L55.4 27.4H55.6C55.7 27.4 53.9 29.1 53.9 29.1ZM55 41.6C54.8 41 54.4 40.5 53.9 40.2C54.4 39.9 54.8 39.4 55 38.8L55.8 39.6C56.1 39.9 56.6 40.1 57.1 40.2C56.6 40.3 56.2 40.5 55.8 40.8C55.9 40.8 55 41.6 55 41.6ZM54.7 43.5L55.2 44.5C55.4 44.9 55.8 45.2 56.2 45.4C55.7 45.3 55.2 45.4 54.8 45.6L53.7 46.1C53.7 45.5 53.5 44.9 53.1 44.4C53.8 44.4 54.4 44.1 54.7 43.5ZM49.9 45.4C50.3 44.6 51.4 44.2 52.2 44.6C53 45 53.4 46.1 53 46.9C52.7 47.4 52.3 47.7 51.7 47.8C51.4 47.9 51 47.8 50.7 47.6C49.8 47.2 49.5 46.2 49.9 45.4ZM48.9 44.5C48.2 44.3 47.9 43.6 48.1 42.9C48.2 42.6 48.4 42.3 48.7 42.2C49 42 49.3 42 49.7 42.1C50.4 42.3 50.7 43 50.5 43.7C50.5 43.8 50.5 43.8 50.4 43.9C50.3 44.1 50.1 44.3 49.8 44.4C49.7 44.5 49.6 44.5 49.4 44.5C49.2 44.6 49 44.5 48.9 44.5ZM47.1 47C46.5 46.6 46.4 45.8 46.8 45.2C47 44.9 47.3 44.7 47.6 44.7C47.9 44.6 48.3 44.7 48.5 44.9C49.1 45.3 49.2 46.1 48.8 46.7C48.8 46.8 48.7 46.8 48.7 46.9C48.5 47.1 48.3 47.2 48 47.3C47.7 47.3 47.4 47.2 47.1 47ZM45 50.3C45.8 49.9 46.9 50.2 47.3 51C47.7 51.8 47.4 52.9 46.6 53.3C46.4 53.4 46.3 53.4 46.1 53.5C45.4 53.6 44.6 53.3 44.3 52.6C43.8 51.8 44.1 50.7 45 50.3ZM43.3 50.8H43.1C42.8 50.8 42.6 50.8 42.3 50.7C42 50.5 41.8 50.3 41.7 50C41.5 49.3 41.8 48.6 42.5 48.4C42.8 48.3 43.2 48.3 43.5 48.5C43.8 48.7 44 48.9 44.1 49.2C44.3 49.9 44 50.6 43.3 50.8ZM41.6 51.4C42.5 51.3 43.4 51.9 43.6 52.8C43.7 53.7 43.1 54.6 42.2 54.8C41.3 54.9 40.4 54.3 40.2 53.4C40 52.4 40.7 51.5 41.6 51.4ZM39 51C38.8 50.8 38.6 50.4 38.6 50.1C38.6 49.4 39.2 48.8 39.9 48.8C40.2 48.8 40.6 48.9 40.8 49.2C41 49.4 41.2 49.8 41.2 50.1C41.2 50.7 40.7 51.3 40.1 51.4H39.7C39.4 51.3 39.1 51.2 39 51ZM36.1 52.8C36.2 51.9 37.1 51.2 38.1 51.4C39 51.5 39.7 52.4 39.5 53.4C39.4 54.2 38.8 54.7 38.1 54.8H37.6C36.6 54.6 36 53.7 36.1 52.8ZM35.6 49.2C35.8 48.5 36.5 48.2 37.2 48.4C37.5 48.5 37.8 48.7 37.9 49C38.1 49.3 38.1 49.6 38 50C37.8 50.5 37.4 50.8 37 50.9H36.4C36.3 50.9 36.3 50.9 36.2 50.8C36 50.7 35.8 50.5 35.6 50.2C35.5 49.9 35.5 49.5 35.6 49.2ZM46.7 47.5C47.1 48.1 47 48.9 46.4 49.3C46.3 49.3 46.3 49.4 46.2 49.4C46.1 49.5 46 49.5 45.8 49.5H45.4C45.1 49.4 44.8 49.3 44.6 49C44.2 48.4 44.3 47.6 44.9 47.2C45.2 47 45.5 46.9 45.8 47C46.2 47 46.5 47.2 46.7 47.5ZM46.7 33C46.5 33.3 46.2 33.5 45.9 33.5C45.6 33.5 45.2 33.5 45 33.3C44.7 33.1 44.5 32.8 44.5 32.5C44.4 32.2 44.5 31.8 44.7 31.6C45.1 31 45.9 30.9 46.5 31.3C46.6 31.3 46.6 31.4 46.7 31.4C46.9 31.6 47 31.8 47.1 32.1C47 32.4 46.9 32.7 46.7 33ZM49.1 34.6C49 34.9 48.9 35.2 48.6 35.4C48.4 35.5 48.2 35.6 48.1 35.6C47.6 35.7 47.2 35.5 46.9 35.1C46.7 34.8 46.6 34.5 46.7 34.2C46.8 33.9 46.9 33.6 47.2 33.4C47.8 33 48.6 33.1 49 33.7C49 33.8 49.1 33.8 49.1 33.9V34.6ZM50.5 36.8V37C50.5 37.3 50.5 37.5 50.4 37.8C50.2 38.1 50 38.3 49.7 38.4H49.5C48.9 38.5 48.3 38.1 48.1 37.5C48 37.2 48 36.8 48.2 36.5C48.4 36.2 48.6 36 48.9 35.9C49.5 35.8 50.2 36.1 50.5 36.8ZM51 40.2V40.4C51 40.7 50.8 40.9 50.6 41.1C50.4 41.3 50.2 41.4 49.9 41.5H49.7C49 41.5 48.4 40.9 48.4 40.2C48.4 39.9 48.5 39.5 48.8 39.3C49 39.1 49.4 38.9 49.7 38.9C50.4 39 51 39.5 51 40.2ZM53 33.5C53.4 34.3 53.1 35.4 52.2 35.8C52 35.9 51.9 35.9 51.7 36C51 36.1 50.2 35.8 49.9 35.1C49.5 34.3 49.8 33.2 50.7 32.8C51.5 32.4 52.6 32.7 53 33.5ZM53.2 35.9C53.6 35.4 53.8 34.8 53.8 34.2L54.9 34.7C55.3 34.9 55.8 35 56.3 34.9C55.9 35.1 55.5 35.4 55.3 35.8L54.7 36.9C54.4 36.4 53.8 36 53.2 35.9ZM53 40.6C53.9 40.7 54.6 41.6 54.4 42.6C54.3 43.4 53.7 43.9 53 44H52.5C51.6 43.9 50.9 43 51.1 42C51.2 41.1 52.1 40.4 53 40.6ZM53 39.9C52.1 40 51.2 39.4 51 38.5C50.9 37.6 51.5 36.7 52.4 36.5C53.3 36.4 54.2 37 54.4 37.9C54.6 38.9 53.9 39.7 53 39.9ZM51.3 30.2L52.5 30.4C52.9 30.5 53.4 30.4 53.9 30.1C53.5 30.4 53.3 30.9 53.2 31.3L53 32.5C52.5 32.1 51.9 31.9 51.3 32C51.5 31.4 51.5 30.8 51.3 30.2ZM35.1 46.7C34.7 46.4 34.1 46.3 33.6 46.4V46.3C33.7 45.9 33.6 45.5 33.4 45.2C33.4 45.1 33.3 45 33.2 45C32.9 44.6 32.4 44.3 31.9 44.3L32 44.2C32.2 43.9 32.2 43.5 32.2 43.1C32.2 43 32.2 42.9 32.1 42.8C31.9 42.3 31.5 41.9 31.1 41.7L31.2 41.6C31.5 41.3 31.7 41 31.7 40.6V40.3C31.7 39.7 31.4 39.3 31.1 38.9C31.1 38.9 31.2 38.9 31.2 38.8C31.5 38.6 31.8 38.3 32 38C32 37.9 32.1 37.8 32.1 37.7C32.3 37.2 32.2 36.6 31.9 36.2H32C32.4 36.1 32.7 36 33 35.7L33.2 35.5C33.5 35.1 33.6 34.5 33.5 34H33.6C34 34.1 34.4 34 34.7 33.8C34.8 33.8 34.9 33.7 34.9 33.7C35.3 33.4 35.6 32.9 35.6 32.4L35.7 32.5C36 32.7 36.4 32.7 36.8 32.7C36.9 32.7 37 32.7 37.1 32.6C37.6 32.4 38 32 38.2 31.6L38.3 31.7C38.6 32 38.9 32.2 39.3 32.2H39.6C40.2 32.2 40.6 31.9 41 31.6C41 31.6 41 31.7 41.1 31.7C41.3 32 41.6 32.3 41.9 32.5C42 32.5 42.1 32.6 42.2 32.6C42.7 32.8 43.3 32.7 43.7 32.4V32.5C43.8 32.9 43.9 33.2 44.2 33.5L44.4 33.7C44.8 34 45.4 34.1 45.9 34V34.1C45.8 34.5 45.9 34.9 46.1 35.2C46.1 35.3 46.2 35.4 46.3 35.4C46.6 35.8 47.1 36.1 47.6 36.1L47.5 36.2C47.3 36.5 47.3 36.9 47.3 37.3C47.3 37.4 47.3 37.5 47.4 37.6C47.6 38.1 48 38.5 48.4 38.7L48.3 38.8C48 39.1 47.8 39.4 47.8 39.8V40.1C47.8 40.7 48.1 41.1 48.4 41.5C48.4 41.5 48.3 41.5 48.3 41.6C48 41.8 47.7 42.1 47.5 42.4C47.5 42.5 47.4 42.6 47.4 42.7C47.2 43.2 47.3 43.8 47.6 44.2H47.5C47.1 44.3 46.8 44.4 46.5 44.7L46.3 44.9C46 45.3 45.9 45.9 46 46.4H45.9C45.5 46.3 45.1 46.4 44.8 46.6C44.7 46.6 44.6 46.7 44.6 46.8C44.2 47.1 43.9 47.6 43.9 48.1L43.8 48C43.5 47.8 43.1 47.8 42.7 47.8C42.6 47.8 42.5 47.8 42.4 47.9C41.9 48.1 41.5 48.5 41.3 48.9L41.2 48.8C40.9 48.5 40.6 48.3 40.2 48.3H39.9C39.3 48.3 38.9 48.6 38.5 48.9C38.5 48.9 38.5 48.8 38.4 48.8C38.2 48.5 37.9 48.2 37.6 48C37.5 48 37.4 47.9 37.3 47.9C36.8 47.7 36.2 47.8 35.8 48.1V48C35.7 47.6 35.6 47.3 35.3 47C35.3 46.8 35.2 46.8 35.1 46.7ZM33 47.4C33.4 46.8 34.2 46.7 34.8 47.1C35.1 47.3 35.3 47.6 35.3 47.9C35.4 48.2 35.3 48.6 35.1 48.8C34.9 49.1 34.6 49.3 34.3 49.3C34 49.4 33.6 49.3 33.4 49.1C33.3 49.1 33.3 49 33.2 49C33 48.8 32.9 48.6 32.8 48.3C32.7 48.1 32.8 47.7 33 47.4ZM30.6 45.8C30.7 45.5 30.8 45.2 31.1 45C31.7 44.6 32.5 44.7 32.9 45.3C33.1 45.6 33.2 45.9 33.1 46.2C33 46.5 32.9 46.8 32.6 47C32.4 47.1 32.2 47.2 32.1 47.2C31.6 47.3 31.2 47.1 30.9 46.7C30.9 46.6 30.8 46.6 30.8 46.5C30.6 46.3 30.6 46.1 30.6 45.8ZM29.3 43.7V43.5C29.3 43.2 29.3 43 29.4 42.7C29.6 42.4 29.8 42.2 30.1 42.1C30.8 41.9 31.5 42.2 31.7 42.9C31.8 43.2 31.8 43.6 31.6 43.9C31.4 44.2 31.2 44.4 30.9 44.5H30.7C30.1 44.6 29.4 44.3 29.3 43.7ZM26.7 46.9C26.3 46.1 26.6 45 27.5 44.6C28.3 44.2 29.4 44.5 29.8 45.4C30.2 46.2 29.9 47.3 29 47.7C28.8 47.8 28.7 47.8 28.5 47.9C27.8 47.9 27 47.6 26.7 46.9ZM25 43.6C25.3 44.1 25.9 44.5 26.5 44.6C26.1 45.1 25.9 45.7 25.9 46.3L24.8 45.8C24.4 45.6 23.9 45.5 23.4 45.6C23.8 45.4 24.2 45.1 24.4 44.7L25 43.6ZM24.7 38.8C24.9 39.4 25.3 39.9 25.8 40.2C25.3 40.5 24.9 41 24.7 41.6L23.9 40.8C23.6 40.5 23.1 40.3 22.6 40.2H22.7C23.2 40.1 23.6 39.9 23.9 39.6L24.7 38.8ZM25 36.9L24.5 35.8C24.3 35.4 23.9 35.1 23.5 34.8C23.8 34.9 24.1 34.9 24.3 34.8C24.5 34.8 24.7 34.7 24.8 34.6L25.9 34.1C25.9 34.7 26.1 35.3 26.5 35.8C25.9 36 25.3 36.4 25 36.9ZM25.3 37.9C25.4 37 26.3 36.3 27.3 36.5C28.2 36.6 28.9 37.5 28.7 38.5C28.6 39.3 28 39.8 27.3 39.9H26.8C25.8 39.7 25.1 38.9 25.3 37.9ZM28.7 42C28.8 42.9 28.2 43.8 27.3 44C26.4 44.1 25.5 43.5 25.3 42.6C25.2 41.7 25.8 40.8 26.7 40.6C27.6 40.4 28.5 41.1 28.7 42ZM29.8 35.1C29.5 35.6 29.1 35.9 28.5 36C28.2 36.1 27.8 36 27.5 35.8C26.7 35.4 26.3 34.3 26.7 33.5C27.1 32.7 28.2 32.3 29 32.8C29.9 33.2 30.2 34.3 29.8 35.1ZM31.2 40.2C31.2 40.5 31.1 40.9 30.8 41.1C30.6 41.3 30.4 41.4 30.1 41.5H29.9C29.2 41.5 28.6 40.9 28.6 40.2V40C28.6 39.7 28.8 39.5 29 39.3C29.2 39.1 29.6 38.9 29.9 38.9C30.7 39 31.2 39.5 31.2 40.2ZM30.9 36C31.6 36.2 31.9 36.9 31.7 37.6C31.6 37.9 31.4 38.2 31.1 38.3C31 38.4 30.9 38.4 30.7 38.4H30.1C29.4 38.2 29.1 37.5 29.3 36.8C29.3 36.7 29.3 36.7 29.4 36.6C29.5 36.4 29.7 36.2 30 36.1C30.2 35.9 30.5 35.9 30.9 36ZM32.6 33.4C33.2 33.8 33.3 34.6 32.9 35.2C32.7 35.5 32.4 35.6 32.1 35.7C31.8 35.8 31.4 35.7 31.2 35.5C30.6 35.1 30.5 34.3 30.9 33.7C30.9 33.6 31 33.6 31 33.5C31.2 33.3 31.4 33.2 31.7 33.1C32 33.1 32.3 33.2 32.6 33.4ZM34.8 33.3C34.6 33.4 34.5 33.5 34.3 33.5H33.9C33.6 33.4 33.3 33.3 33.1 33C32.7 32.4 32.8 31.6 33.4 31.2C33.5 31.2 33.5 31.1 33.6 31.1C33.7 31 34 31 34.2 31C34.5 31.1 34.8 31.2 35 31.5C35.5 32.1 35.4 32.9 34.8 33.3ZM34.7 30.2C34.5 30.3 34.4 30.3 34.2 30.4C33.5 30.5 32.7 30.2 32.4 29.5C32 28.7 32.3 27.6 33.2 27.2C34 26.8 35.1 27.1 35.5 27.9C35.9 28.7 35.6 29.7 34.7 30.2ZM36.4 29.7H36.6C36.9 29.7 37.1 29.7 37.4 29.8C37.7 30 37.9 30.2 38 30.5C38.2 31.2 37.9 31.9 37.2 32.1H37C36.7 32.1 36.5 32.1 36.2 32C35.9 31.8 35.7 31.6 35.6 31.3C35.4 30.6 35.7 29.9 36.4 29.7ZM38.1 29.1C37.2 29.2 36.3 28.6 36.1 27.7C36 26.8 36.6 25.9 37.5 25.7C38.4 25.6 39.3 26.2 39.5 27.1C39.7 28 39 28.9 38.1 29.1ZM40.8 29.5C41 29.7 41.2 30.1 41.2 30.4C41.2 31 40.7 31.6 40.1 31.6H39.9C39.6 31.6 39.2 31.5 39 31.2C38.8 31 38.6 30.6 38.6 30.3C38.6 29.6 39.2 29 39.9 29H40.1C40.3 29.2 40.6 29.3 40.8 29.5ZM44 30.3C44.2 30.6 44.2 30.9 44.1 31.3C43.9 31.8 43.5 32.1 43.1 32.2H42.5C42.2 32.1 41.9 31.9 41.8 31.6C41.6 31.3 41.6 31 41.7 30.6C41.9 29.9 42.6 29.6 43.3 29.8C43.4 29.8 43.4 29.8 43.5 29.9C43.7 29.9 43.9 30 44 30.3ZM43.6 27.6C43.5 28.3 42.9 28.9 42.2 29H41.7C40.8 28.9 40.1 28 40.3 27C40.4 26.1 41.3 25.4 42.3 25.6C43.1 25.8 43.7 26.7 43.6 27.6ZM28.5 32C27.9 31.9 27.3 32.1 26.8 32.5L26.6 31.3C26.5 30.9 26.3 30.4 25.9 30.1C26.3 30.3 26.8 30.4 27.3 30.4L28.5 30.2C28.2 30.8 28.2 31.4 28.5 32ZM28.4 50.3L27.2 50.1C26.8 50 26.3 50.1 25.8 50.4C26.2 50.1 26.4 49.6 26.5 49.2L26.7 48C27.2 48.4 27.8 48.6 28.4 48.5C28.2 49 28.2 49.7 28.4 50.3ZM51.2 48.5H51.8C52.2 48.4 52.6 48.3 52.9 48L53.1 49.2C53.2 49.6 53.4 50.1 53.8 50.4C53.4 50.2 52.9 50.1 52.4 50.1L51.2 50.3C51.5 49.7 51.5 49 51.2 48.5ZM60.1 35.5C60.3 35.1 60.7 34.9 61.2 34.8H61.3C61.8 34.7 62.4 34.9 62.7 35.2L63.6 36.1C63.7 36.2 63.8 36.4 63.9 36.6C63.9 36.8 63.9 37 63.8 37.1L63.2 38C63 38.4 62.5 38.7 62 38.8C61.5 38.9 60.9 38.7 60.6 38.4L59.7 37.5C59.4 37.2 59.4 36.8 59.5 36.5C59.6 36.6 60.1 35.5 60.1 35.5ZM59.5 35.2L58.9 36.3C58.7 36.6 58.7 37 58.7 37.3C58.7 37.6 58.9 37.9 59.2 38.2L60.1 39.1L60.2 39.2L57.7 39.6C57.2 39.7 56.6 39.5 56.3 39.2L55.4 38.3C55.1 38 55.1 37.6 55.2 37.3L55.8 36.2C56 35.8 56.5 35.5 57 35.4L59.5 35C59.6 35.1 59.5 35.1 59.5 35.2ZM56.9 31.6C57 31.9 57.3 32.1 57.6 32.3L58.7 32.9C58.8 32.9 58.8 33 58.9 33L56.7 34C56.5 34.1 56.3 34.2 56.1 34.2C55.8 34.2 55.5 34.2 55.2 34.1L54.1 33.6C53.7 33.4 53.6 33.1 53.6 32.7L53.8 31.5C53.9 31.1 54.2 30.6 54.7 30.4L56.9 29.3V29.5L56.7 30.7C56.7 30.9 56.8 31.3 56.9 31.6ZM45.3 25.2L45.8 26.3C45.2 26.3 44.6 26.5 44.1 26.9C44 26.3 43.6 25.8 43.1 25.4L44.2 24.9C44.6 24.7 44.9 24.3 45.1 23.9C45.1 24.3 45.1 24.8 45.3 25.2ZM34.5 23.8C34.7 24.2 35 24.6 35.4 24.8L36.5 25.4C36 25.7 35.6 26.3 35.5 26.9C35 26.5 34.4 26.3 33.8 26.3L34.3 25.2C34.6 24.8 34.6 24.3 34.5 23.8ZM22.9 30.6L22.7 29.4V29.2L24.9 30.3C25.4 30.6 25.7 31 25.8 31.4L26 32.6C26.1 33 25.9 33.3 25.5 33.5L24.4 34C24.3 34.1 24.2 34.1 24 34.1C23.7 34.2 23.3 34.1 22.9 33.9L20.7 32.8C20.8 32.8 20.8 32.8 20.9 32.7L22 32.2C22.3 32 22.6 31.8 22.7 31.5C22.9 31.3 23 30.9 22.9 30.6ZM22.8 48.9C22.7 48.6 22.4 48.4 22.1 48.2L21 47.7C20.9 47.7 20.9 47.7 20.8 47.6L23 46.5C23.5 46.3 24 46.2 24.4 46.4L25.5 46.9C25.9 47.1 26 47.4 26 47.8L25.8 49C25.7 49.4 25.4 49.9 24.9 50.1L22.7 51.2V51L22.9 49.8C23 49.5 23 49.2 22.8 48.9ZM34.4 55.2L33.9 54.1H34.4C34.9 54 35.3 53.8 35.6 53.5C35.7 54.1 36.1 54.6 36.6 55L35.5 55.5C35.1 55.7 34.8 56.1 34.6 56.5C34.6 56.1 34.6 55.6 34.4 55.2ZM45.2 56.6C45 56.2 44.7 55.8 44.3 55.6L43.2 55C43.7 54.7 44.1 54.1 44.2 53.5C44.7 53.9 45.3 54.1 45.9 54.1L45.4 55.2C45.2 55.6 45.1 56.1 45.2 56.6ZM56.8 49.9L57 51.1V51.3L54.8 50.2C54.3 50 54 49.5 53.9 49.1L53.7 47.9C53.6 47.5 53.8 47.2 54.2 47L55.3 46.5C55.7 46.3 56.2 46.3 56.7 46.6L58.9 47.7C58.8 47.7 58.8 47.7 58.7 47.8L57.6 48.3C57.3 48.5 57 48.7 56.9 49C56.8 49.2 56.7 49.5 56.8 49.9ZM58.2 24.7L58.1 23.8C59.4 24.5 61 24.5 62.4 23.9C61.4 25 60.9 26.6 61.2 28L60.4 27.6C59.8 27.3 59 27.3 58.3 27.7C58.3 27.7 58.2 27.7 58.2 27.8L54.5 29.7L57.5 26.7C58 26.1 58.3 25.3 58.2 24.7ZM52.5 19.8L52.1 19C52.6 19.1 53.1 19.1 53.7 19C54.6 18.9 55.5 18.4 56.3 17.8C55.7 19.2 55.7 20.8 56.4 22.1L55.5 22C54.8 21.9 54.1 22.2 53.5 22.7L53.4 22.8L50.5 25.7L50.4 25.8V25.7L52.4 21.9C52.7 21.2 52.8 20.4 52.5 19.8ZM49.9 17.9L49 18C48.3 18.1 47.7 18.6 47.3 19.3C47.3 19.3 47.3 19.4 47.2 19.4L45.3 23.1L46 18.9C46.1 18.1 45.9 17.4 45.4 16.9L44.8 16.3H44.9C46.3 16.1 47.6 15.2 48.3 13.9C48.3 15.3 48.8 16.9 49.9 17.9ZM31.2 13.8C32 15.1 33.3 16.1 34.8 16.2L34.2 16.8C33.7 17.3 33.5 18 33.6 18.8V18.9L34.2 23L32.3 19.2C31.9 18.5 31.3 18 30.7 17.9L29.8 17.8C30.9 16.9 31.4 15.3 31.2 13.8ZM23.5 17.8C24.7 18.8 26.2 19.3 27.6 19L27.2 19.8C26.9 20.4 26.9 21.2 27.3 21.9C27.3 21.9 27.3 22 27.4 22L29.3 25.7L26.3 22.7C25.8 22.1 25 21.9 24.3 22L23.4 22.1C24.1 20.8 24.1 19.2 23.5 17.8ZM22.2 26.6L22.3 26.7L25.2 29.6L21.4 27.6C20.7 27.2 19.9 27.2 19.3 27.5L18.5 28C18.8 26.5 18.3 25 17.3 23.9C18.7 24.5 20.3 24.5 21.6 23.8L21.5 24.7C21.4 25.3 21.7 26.1 22.2 26.6ZM7.2 37.6C6.7 36.9 6.7 36.1 6.9 35C7.1 33.9 7.3 33.1 8 32.6L8.1 32.5C9 31.8 10.2 31.6 11.4 31.8C13.7 32.2 15.3 34.2 15 36.3C14.7 38 13.3 39.2 11.6 39.5C11.1 39.6 10.7 39.6 10.2 39.5C9 39.3 8 38.7 7.3 37.8L7.2 37.6ZM21.5 55.8L21.6 56.7C20.3 56 18.7 56 17.3 56.6C18.3 55.5 18.8 53.9 18.5 52.5L19.3 52.9C19.7 53.1 20.1 53.2 20.6 53.1C20.9 53.1 21.1 53 21.4 52.8C21.4 52.8 21.5 52.8 21.5 52.7L25.2 50.8L22.2 53.8C21.7 54.4 21.4 55.1 21.5 55.8ZM27.2 60.7L27.6 61.5C26.1 61.2 24.6 61.7 23.5 62.7C24.1 61.3 24.1 59.7 23.4 58.4L24.3 58.5H24.9C25.4 58.4 25.9 58.2 26.3 57.8L26.4 57.7L29.3 54.8L29.4 54.7V54.8L27.4 58.6C27 59.3 26.9 60.1 27.2 60.7ZM29.8 62.6L30.7 62.5C31.4 62.4 32 61.9 32.4 61.2C32.4 61.2 32.4 61.1 32.5 61.1L34.4 57.4L33.7 61.6C33.6 62.4 33.8 63.1 34.3 63.6L34.9 64.2C33.4 64.4 32.1 65.3 31.3 66.6C31.4 65.1 30.9 63.6 29.8 62.6ZM48.5 66.6C47.7 65.3 46.4 64.3 44.9 64.2L45.5 63.6C46 63.1 46.2 62.4 46.1 61.6V61.5L45.5 57.4L47.4 61.2C47.8 61.9 48.4 62.4 49 62.5L49.9 62.7C48.8 63.6 48.3 65.1 48.5 66.6ZM56.2 62.7C55 61.7 53.5 61.2 52.1 61.5L52.5 60.7C52.8 60.1 52.8 59.3 52.4 58.6C52.4 58.6 52.4 58.5 52.3 58.5L50.4 54.8L53.4 57.8C53.9 58.4 54.7 58.6 55.4 58.5L56.3 58.4C55.6 59.7 55.6 61.3 56.2 62.7ZM57.5 53.8L54.5 50.8L54.4 50.7H54.5L58.3 52.7C59 53.1 59.8 53.1 60.4 52.8L61.2 52.4C60.9 53.9 61.4 55.4 62.4 56.5C61 55.9 59.4 55.9 58.1 56.6L58.2 55.7C58.3 55.1 58 54.4 57.5 53.8ZM70.8 28.1L70.9 27.9C71.3 26.8 72.1 26 73.2 25.6C75.7 24.8 76.8 27.4 77 28.2C77.3 29.2 77.4 30.1 77.1 30.9C76.8 31.7 76.3 32.3 75.4 32.5C75.2 32.6 75 32.6 74.8 32.6C73.9 32.8 72.9 32.5 72.1 32L72 31.9C71 31.2 69.7 30.8 68.4 31C69.6 30.3 70.4 29.3 70.8 28.1ZM79.6 39.1C79.3 37 78 35.8 76.1 35.8C75.2 35.8 74.4 36.1 73.7 36.5C73.7 35.9 73.7 35.4 73.6 34.9C73.5 34.4 73.4 33.8 73.2 33.3C74 33.5 74.9 33.5 75.7 33.2C76.8 32.8 77.6 32.1 77.9 31.1C78.2 30.2 78.1 29.1 77.8 27.9C77 25.3 75.1 24.1 73 24.8C72.2 25.1 71.5 25.6 70.9 26.2C70.8 25.7 70.5 25.1 70.3 24.7C70.1 24.2 69.8 23.7 69.4 23.3C70.3 23.3 71.1 23 71.8 22.5C72.7 21.8 73.2 20.9 73.2 19.8C73.2 18.8 72.8 17.8 72.1 16.8C70.5 14.6 68.4 14 66.6 15.4C65.9 15.9 65.4 16.6 65.1 17.4C64.8 16.9 64.4 16.5 64 16.1C63.6 15.7 63.2 15.4 62.8 15.1C63.6 14.8 64.3 14.3 64.8 13.6C65.5 12.7 65.7 11.6 65.3 10.6C65 9.7 64.3 8.8 63.3 8.1C61.1 6.5 58.9 6.6 57.6 8.4C57.1 9.1 56.8 9.9 56.8 10.8C56.4 10.4 55.9 10.2 55.4 9.9C54.9 9.7 54.4 9.4 53.9 9.3C54.6 8.8 55.1 8 55.3 7.2C55.7 6.1 55.5 5 54.9 4.2C54.3 3.4 53.4 2.8 52.2 2.4C49.6 1.6 47.6 2.4 46.9 4.5C46.6 5.3 46.6 6.2 46.8 7C46.3 6.8 45.7 6.7 45.2 6.6C44.7 6.5 44.1 6.4 43.6 6.5C44 5.8 44.3 5 44.3 4.1C44.3 2.9 43.8 2 42.9 1.3C42.1 0.7 41.1 0.5 39.8 0.5C39.4 0.5 39.1 0.5 38.7 0.6H38.6C36.5 0.9 35.3 2.2 35.3 4.1C35.3 5 35.6 5.8 36 6.5C35.4 6.5 34.9 6.5 34.4 6.6C34 6.7 33.4 6.8 32.9 7C33.1 6.2 33.1 5.3 32.8 4.5C32.4 3.4 31.7 2.6 30.6 2.3C29.7 2 28.6 2.1 27.4 2.4C24.8 3.2 23.6 5.1 24.3 7.2C24.6 8 25.1 8.7 25.7 9.3C25.2 9.4 24.6 9.7 24.2 9.9C23.7 10.1 23.2 10.4 22.8 10.8C22.8 10 22.5 9.1 22 8.4C21.4 7.4 20.5 7 19.4 7C18.4 7 17.4 7.4 16.4 8.1C14.2 9.7 13.6 11.8 15 13.6C15.5 14.3 16.2 14.8 17 15.1C16.5 15.4 16.1 15.8 15.7 16.1C15.3 16.5 15 16.9 14.7 17.3C14.4 16.5 13.9 15.8 13.2 15.3C12.3 14.6 11.2 14.4 10.2 14.8C9.3 15.1 8.4 15.8 7.7 16.8C6.1 19 6.2 21.2 8 22.5C8.7 23 9.5 23.3 10.4 23.3C10 23.7 9.8 24.2 9.5 24.7C9.3 25.2 9 25.7 8.9 26.2C8.4 25.5 7.6 25 6.8 24.8C5.7 24.4 4.6 24.6 3.7 25.2C2.9 25.8 2.3 26.7 1.9 27.8C1.1 30.4 1.9 32.4 4 33.1C4.8 33.4 5.7 33.4 6.5 33.2C6.3 33.7 6.2 34.3 6.1 34.8C6.1 35.4 6 36 6 36.5C5.3 36 4.4 35.8 3.6 35.8C2.4 35.8 1.5 36.3 0.8 37.2C0.3 37.9 0 39 0 40.2C0 42.9 1.4 44.6 3.6 44.6C4.5 44.6 5.3 44.3 6 43.9C6 44.5 6 45 6.1 45.5C6.2 46 6.3 46.6 6.5 47.1C5.7 46.9 4.8 46.9 4 47.2C2.9 47.6 2.1 48.3 1.8 49.4C1.5 50.3 1.6 51.4 1.9 52.6C2.7 55.2 4.6 56.4 6.7 55.7C7.5 55.4 8.2 54.9 8.8 54.3C8.9 54.8 9.2 55.4 9.4 55.8C9.6 56.3 9.9 56.8 10.3 57.2C9.4 57.2 8.6 57.5 7.9 58C7 58.7 6.5 59.6 6.5 60.7C6.5 61.7 6.9 62.7 7.6 63.7C9.2 65.9 11.3 66.5 13.1 65.1C13.8 64.6 14.3 63.9 14.6 63.1C14.9 63.6 15.3 64 15.6 64.4C16 64.8 16.4 65.1 16.9 65.4C16.1 65.7 15.4 66.2 14.9 66.9C14.2 67.8 14 68.9 14.4 69.9C14.7 70.8 15.4 71.7 16.4 72.4C18.6 74 20.8 73.9 22.1 72.1C22.6 71.4 22.9 70.6 22.9 69.7C23.3 70.1 23.8 70.3 24.3 70.6C24.8 70.8 25.3 71.1 25.8 71.2C25.1 71.7 24.6 72.5 24.4 73.3C24 74.4 24.2 75.5 24.8 76.3C25.4 77.1 26.3 77.7 27.5 78.1C30.1 78.9 32.1 78.1 32.8 76C33.1 75.2 33.1 74.3 32.9 73.5C33.4 73.7 34 73.8 34.5 73.9C35 74 35.6 74 36.1 74C35.6 74.7 35.4 75.5 35.4 76.4C35.4 77.6 35.9 78.5 36.8 79.2C37.6 79.8 38.6 80.1 39.9 80C42.6 80 44.3 78.6 44.3 76.4C44.3 75.5 44 74.7 43.6 74C44.2 74 44.7 74 45.2 73.9C45.7 73.8 46.3 73.7 46.8 73.5C46.6 74.3 46.6 75.2 46.9 76C47.3 77.1 48 77.9 49.1 78.2C50 78.5 51.1 78.4 52.3 78.1C54.9 77.3 56.1 75.4 55.4 73.3C55.1 72.5 54.6 71.8 54 71.2C54.5 71.1 55.1 70.8 55.5 70.6C56 70.4 56.5 70.1 56.9 69.7C56.9 70.5 57.2 71.4 57.7 72.1C58.4 73 59.3 73.5 60.4 73.5C61.4 73.5 62.4 73.1 63.4 72.4C65.6 70.8 66.2 68.7 64.8 66.9C64.3 66.2 63.6 65.7 62.8 65.4C63.3 65.1 63.7 64.7 64.1 64.4C64.5 64 64.8 63.6 65.1 63.2C65.4 64 65.9 64.7 66.6 65.2C67.5 65.9 68.6 66.1 69.6 65.7C70.5 65.4 71.4 64.7 72.1 63.7C73.7 61.5 73.6 59.3 71.8 58C71.1 57.5 70.3 57.2 69.4 57.2C69.8 56.8 70 56.3 70.3 55.8C70.5 55.3 70.8 54.8 70.9 54.3C71.4 55 72.2 55.5 73 55.7C74.1 56.1 75.2 55.9 76.1 55.3C76.9 54.7 77.5 53.8 77.9 52.7C78.7 50.1 77.9 48.1 75.8 47.4C75 47.1 74.1 47.1 73.3 47.3C73.5 46.8 73.6 46.2 73.7 45.7C73.8 45.2 73.9 44.6 73.8 44.1C74.5 44.6 75.4 44.8 76.2 44.8C77.4 44.8 78.3 44.3 79 43.4C79.6 42.6 79.9 41.6 79.9 40.3C79.7 39.9 79.7 39.5 79.6 39.1Z" fill="#fff"/>
</svg>
