<svg width="84" height="84" viewBox="0 0 84 84" fill="none" xmlns="http://www.w3.org/2000/svg">
<path d="M41.74 83.4999C49.57 83.4999 57.15 81.3299 63.75 77.2299L68 81.4799C68.33 81.8099 68.78 81.9899 69.24 81.9899C69.37 81.9899 69.51 81.9699 69.64 81.9399C70.23 81.7999 70.71 81.3699 70.9 80.7899L75.9 65.7899C76.11 65.1599 75.95 64.4699 75.48 63.9999C75.01 63.5299 74.32 63.3699 73.69 63.5799L58.69 68.5799C58.11 68.7699 57.68 69.2499 57.54 69.8399C57.4 70.4299 57.58 71.0499 58.01 71.4799L61.2 74.6699C55.32 78.1499 48.65 79.9999 41.75 79.9999C20.66 79.9999 3.5 62.8399 3.5 41.7499C3.5 38.0399 4.03 34.3899 5.07 30.8899C5.35 29.9599 4.82 28.9899 3.89 28.7099C2.97 28.4399 1.99 28.9599 1.71 29.8899C0.57 33.7099 0 37.6999 0 41.7499C0 64.7699 18.73 83.4999 41.75 83.4999H41.74ZM71.47 68.0099L68.47 76.9999L62.47 70.9999L71.46 67.9999L71.47 68.0099Z" fill="white"/>
<path d="M41.7401 15.6099C33.7301 15.6099 26.5501 19.2399 21.7501 24.9299C21.6201 25.0399 21.5101 25.1699 21.4301 25.3199C17.7901 29.8099 15.6001 35.5299 15.6001 41.7499C15.6001 47.9699 17.7901 53.6999 21.4401 58.1899C21.5301 58.3299 21.6301 58.4499 21.7501 58.5599C26.5501 64.2599 33.7301 67.8899 41.7501 67.8899C49.7701 67.8899 56.9401 64.2599 61.7401 58.5699C61.8701 58.4599 61.9801 58.3299 62.0601 58.1799C65.7001 53.6899 67.8901 47.9699 67.8901 41.7499C67.8901 35.5299 65.7001 29.7999 62.0501 25.3099C61.9601 25.1699 61.8601 25.0499 61.7401 24.9399C56.9401 19.2399 49.7601 15.6099 41.7401 15.6099ZM31.9201 21.3499C30.6801 23.0299 29.6101 25.0199 28.7401 27.2599C27.6501 26.8399 26.6001 26.3799 25.6501 25.8499C27.4601 24.0199 29.5801 22.4899 31.9301 21.3499H31.9201ZM23.3601 28.5499C24.6701 29.3199 26.1001 29.9999 27.6401 30.5899C26.8501 33.4699 26.3601 36.6399 26.2401 39.9999H19.1701C19.5001 35.7499 21.0001 31.8199 23.3601 28.5499ZM23.3601 54.9499C21.0001 51.6799 19.5001 47.7499 19.1701 43.4999H26.2401C26.3701 46.8699 26.8501 50.0399 27.6401 52.9099C26.1001 53.4899 24.6701 54.1699 23.3601 54.9499ZM25.6401 57.6499C26.6001 57.1199 27.6401 56.6599 28.7301 56.2399C29.6001 58.4799 30.6801 60.4799 31.9101 62.1499C29.5601 61.0199 27.4401 59.4899 25.6301 57.6499H25.6401ZM39.9901 64.1399C36.8101 63.2199 33.9901 59.8599 32.1101 55.1399C34.5701 54.4999 37.2301 54.1199 39.9901 54.0099V64.1399ZM39.9901 50.5099C36.8501 50.6299 33.8101 51.0699 31.0101 51.8199C30.3201 49.2699 29.8701 46.4599 29.7501 43.4999H40.0001V50.5099H39.9901ZM39.9901 39.9999H29.7401C29.8701 37.0499 30.3101 34.2299 31.0001 31.6799C33.8101 32.4299 36.8501 32.8599 39.9801 32.9899V39.9999H39.9901ZM39.9901 29.4899C37.2301 29.3699 34.5701 28.9899 32.1101 28.3599C33.9901 23.6399 36.8101 20.2799 39.9901 19.3599V29.4899ZM57.8401 25.8499C56.8801 26.3799 55.8401 26.8399 54.7501 27.2599C53.8801 25.0199 52.8001 23.0199 51.5701 21.3499C53.9201 22.4799 56.0401 24.0099 57.8501 25.8499H57.8401ZM43.4901 19.3599C46.6701 20.2799 49.4901 23.6399 51.3701 28.3599C48.9101 28.9999 46.2501 29.3799 43.4901 29.4899V19.3599ZM43.4901 32.9899C46.6301 32.8699 49.6701 32.4299 52.4701 31.6799C53.1601 34.2299 53.6101 37.0399 53.7301 39.9999H43.4801V32.9899H43.4901ZM43.4901 43.4999H53.7401C53.6101 46.4499 53.1701 49.2699 52.4801 51.8199C49.6701 51.0699 46.6301 50.6399 43.5001 50.5099V43.4999H43.4901ZM43.4901 64.1399V54.0099C46.2501 54.1299 48.9101 54.5099 51.3701 55.1399C49.4901 59.8599 46.6701 63.2199 43.4901 64.1399ZM51.5601 62.1499C52.8001 60.4699 53.8701 58.4799 54.7401 56.2399C55.8301 56.6599 56.8801 57.1199 57.8301 57.6499C56.0201 59.4799 53.9001 61.0099 51.5501 62.1499H51.5601ZM60.1201 54.9499C58.8101 54.1799 57.3801 53.4999 55.8401 52.9099C56.6301 50.0299 57.1201 46.8599 57.2401 43.4999H64.3101C63.9801 47.7499 62.4801 51.6799 60.1201 54.9499ZM64.3101 39.9999H57.2401C57.1101 36.6299 56.6301 33.4599 55.8401 30.5899C57.3801 30.0099 58.8101 29.3299 60.1201 28.5499C62.4801 31.8199 63.9801 35.7499 64.3101 39.9999Z" fill="white"/>
<path d="M9.24031 20.01C9.43031 20.01 9.6103 19.98 9.7903 19.92L24.7903 14.92C25.3703 14.73 25.8003 14.25 25.9403 13.66C26.0803 13.07 25.9003 12.45 25.4703 12.02L22.2803 8.83C28.1603 5.35 34.8303 3.5 41.7303 3.5C62.8203 3.5 79.9803 20.66 79.9803 41.75C79.9803 45.46 79.4503 49.11 78.4103 52.61C78.1303 53.54 78.6603 54.51 79.5903 54.79C79.7603 54.84 79.9203 54.86 80.0903 54.86C80.8403 54.86 81.5403 54.37 81.7703 53.61C82.9103 49.79 83.4803 45.8 83.4803 41.75C83.4803 18.73 64.7503 0 41.7303 0C33.9003 0 26.3203 2.17 19.7203 6.27L15.4703 2.02C15.0403 1.59 14.4203 1.41 13.8303 1.55C13.2403 1.69 12.7603 2.12 12.5703 2.7L7.5703 17.7C7.3603 18.33 7.52031 19.02 7.99031 19.49C8.32031 19.82 8.7703 20 9.2303 20L9.24031 20.01ZM15.0003 6.5L21.0003 12.5L12.0103 15.5L15.0103 6.51L15.0003 6.5Z" fill="white"/>
</svg>
