<svg width="1199" height="124" viewBox="0 0 1199 124" fill="none" xmlns="http://www.w3.org/2000/svg">
<g clip-path="url(#clip0_2138_605)">
<path d="M454.54 74.392V41.8261H495.87H537.19H578.51V0.496124H537.19H495.87H454.54H413.22V41.8261V74.392V83.1661V124.496H454.54H495.87H537.19H578.51V83.1661H537.19H495.87H454.54V74.392Z" fill="#79F7D1"/>
<path d="M123.97 0.496124V41.8261H85.813H82.64H41.32V0.496124H0V41.8261V75.6953V83.1661V124.496H41.32V83.1661H82.64H85.813H123.97V124.496H165.29V83.1661V75.6953V41.8261V0.496124H123.97Z" fill="#79F7D1"/>
<path d="M330.58 0.496124H206.61V124.496H247.93V103.828H330.58V124.496H371.9V0.496124H330.58ZM330.58 62.496H247.93V41.8261H330.58V62.496Z" fill="#79F7D1"/>
<path d="M867.77 41.8261V32.872H991.734V0.497124H867.77V0.496124H826.45V41.8261V76.1294V83.1661V124.496H867.77V124.494H991.734V92.1203H867.77V83.1661V78.683H991.734V46.3092H867.77V41.8261Z" fill="#79F7D1"/>
<path d="M785.12 83.168H743.8V124.498H785.12V83.168Z" fill="#79F7D1"/>
<path d="M743.8 41.826H785.12V0.496124H743.8V41.826H702.48H661.16V0.496124H619.83V41.826V78.6828V83.1659V124.496H661.16V83.1659H702.48H743.8V41.826Z" fill="#79F7D1"/>
<path d="M743.801 83.164L785.123 41.8321H743.801V83.164Z" fill="#79F7D1"/>
<path d="M1198.35 0.496124H1157.02V41.8261V55.6025L1074.38 0.497124V0.496124H1033.06V41.8261V80.0404V83.1661V124.496H1074.38V83.1661V80.0404V69.3848L1157.02 124.494V124.496H1198.35V0.496124Z" fill="#79F7D1"/>
</g>
<defs>
<clipPath id="clip0_2138_605">
<rect width="1198.35" height="124" fill="white"/>
</clipPath>
</defs>
</svg>
