<svg width="50" height="34" viewBox="0 0 50 34" fill="none" xmlns="http://www.w3.org/2000/svg">
<path d="M48.3701 5.25049H41.999C41.3278 5.25049 40.751 5.65845 40.5018 6.23932C39.693 6.06628 38.5916 5.73047 37.4385 5.37744C35.6159 4.8186 33.5206 4.17938 31.3814 3.76434C30.6445 2.21356 28.4139 0.633301 22.3818 0.633301C19.7041 0.633301 16.4775 1.96631 13.6318 3.14209C12.0438 3.79785 10.5309 4.41986 9.44733 4.66608C9.17828 4.13635 8.63391 3.76904 8 3.76904H1.62891C0.730469 3.76904 0 4.49951 0 5.39795V21.2505C0 22.1489 0.730469 22.8794 1.62891 22.8794H8C8.06158 22.8794 8.12006 22.8679 8.17987 22.8612L11.917 26.8237C13.4111 28.4067 15.1553 29.7085 17.1025 30.6909L21.835 33.0776C22.2188 33.272 22.6309 33.3667 23.04 33.3667C23.6768 33.3667 24.3047 33.1372 24.8057 32.6929C25.2601 32.2908 25.5479 31.7457 25.6526 31.1611L27.7666 32.1812C28.1543 32.3687 28.5684 32.4585 28.9785 32.4585C29.7754 32.4585 30.5576 32.1187 31.1025 31.4868C31.5755 30.9377 31.7964 30.2336 31.759 29.5182C31.9449 29.5484 32.1312 29.5747 32.3164 29.5747C33.4912 29.5747 34.6191 28.979 35.2803 27.9194C35.5704 27.4521 35.7286 26.9335 35.779 26.4018C36.3179 26.6862 36.8972 26.8325 37.4727 26.8325C38.5156 26.8325 39.54 26.3784 40.2568 25.5181C40.6254 25.0759 40.8657 24.5535 40.9922 24.0032C41.2703 24.2242 41.6171 24.3618 41.999 24.3618H48.3701C49.2686 24.3618 50 23.6304 50 22.7319V6.87939C50 5.98096 49.2686 5.25049 48.3701 5.25049ZM7.62891 20.8794H2V5.76904H7.62891V20.8794ZM38.7197 24.2378C38.1973 24.8638 37.3135 25.0093 36.6172 24.5894L28.1846 19.4702C27.7129 19.1831 27.0977 19.3335 26.8115 19.8062C26.5244 20.2778 26.6748 20.8931 27.1475 21.1792L30.426 23.1697C30.4257 23.1696 30.4263 23.1699 30.426 23.1697L33.0859 24.7847C33.4307 24.9946 33.6729 25.3267 33.7666 25.7202C33.8613 26.1138 33.7949 26.519 33.582 26.8618C33.1875 27.4956 32.4053 27.7466 31.7158 27.4487L28.239 25.9622L24.9189 23.9839C24.4443 23.7007 23.8311 23.8569 23.5479 24.3315C23.2656 24.8062 23.4209 25.4194 23.8955 25.7026L29.3896 28.9761C29.668 29.1421 29.7471 29.3979 29.7695 29.5347C29.792 29.6714 29.7979 29.938 29.5869 30.1812C29.3516 30.4546 28.9629 30.5366 28.6357 30.3804L23.6534 27.9764L22.0859 27.0845C21.6094 26.811 20.9961 26.978 20.7227 27.4595C20.4492 27.939 20.6172 28.5493 21.0977 28.8228L23.3672 30.1147C23.5566 30.2222 23.6787 30.4087 23.7012 30.6265C23.7236 30.8433 23.6436 31.0513 23.4795 31.1958C23.2734 31.3784 22.9824 31.4136 22.7354 31.2925L18.0029 28.9058C16.2646 28.0278 14.7061 26.8657 13.3721 25.4507L9.60779 21.4594C9.61676 21.3903 9.62891 21.322 9.62891 21.2505V6.66705C10.9392 6.41309 12.5667 5.74524 14.3955 4.98975C17.0693 3.88525 20.1006 2.6333 22.3818 2.6333C24.683 2.6333 26.5172 2.88971 27.7842 3.34369C27.6216 3.33881 27.4573 3.32471 27.2959 3.32471C21.751 3.32471 12.0576 7.37842 11.6484 7.55029C11.2773 7.70654 11.0361 8.06982 11.0361 8.47217C11.0361 10.4829 12.3936 12.27 14.3379 12.8169C16.6934 13.479 20.1533 13.8491 23.5547 12.0181L38.3672 21.8315C38.7598 22.0913 39.0137 22.4897 39.0811 22.9556C39.1494 23.4214 39.0215 23.8765 38.7197 24.2378ZM40.3701 21.0399C40.1212 20.7037 39.8281 20.399 39.4727 20.1636L24.1445 10.0093C23.8184 9.79443 23.3994 9.78662 23.0693 9.99072C20.1074 11.8071 16.9814 11.4829 14.8789 10.8911C14.0068 10.646 13.3457 9.95459 13.1201 9.11084C15.4336 8.18799 22.958 5.32471 27.2959 5.32471C30.4414 5.32471 33.9961 6.41455 36.8525 7.28955C38.2538 7.71863 39.4333 8.07581 40.3701 8.24805V21.0399ZM48 22.3618H42.3701V7.25049H48V22.3618Z" fill="#fff"/>
</svg>
