<svg xmlns="http://www.w3.org/2000/svg" viewBox="0 0 100 125" x="0px" y="0px"><path d="M50,91.75c7.83,0,15.41-2.17,22.01-6.27l4.25,4.25c.33,.33,.78,.51,1.24,.51,.13,0,.27-.02,.4-.05,.59-.14,1.07-.57,1.26-1.15l5-15c.21-.63,.05-1.32-.42-1.79-.47-.47-1.16-.63-1.79-.42l-15,5c-.58,.19-1.01,.67-1.15,1.26-.14,.59,.04,1.21,.47,1.64l3.19,3.19c-5.88,3.48-12.55,5.33-19.45,5.33-21.09,0-38.25-17.16-38.25-38.25,0-3.71,.53-7.36,1.57-10.86,.28-.93-.25-1.9-1.18-2.18-.92-.27-1.9,.25-2.18,1.18-1.14,3.82-1.71,7.81-1.71,11.86,0,23.02,18.73,41.75,41.75,41.75Zm29.73-15.49l-3,8.99-6-6,8.99-3Z"/><path d="M50,23.86c-8.01,0-15.19,3.63-19.99,9.32-.13,.11-.24,.24-.32,.39-3.64,4.49-5.83,10.21-5.83,16.43s2.19,11.95,5.84,16.44c.09,.14,.19,.26,.31,.37,4.8,5.7,11.98,9.33,20,9.33s15.19-3.63,19.99-9.32c.13-.11,.24-.24,.32-.39,3.64-4.49,5.83-10.21,5.83-16.43s-2.19-11.95-5.84-16.44c-.09-.14-.19-.26-.31-.37-4.8-5.7-11.98-9.33-20-9.33Zm-9.82,5.74c-1.24,1.68-2.31,3.67-3.18,5.91-1.09-.42-2.14-.88-3.09-1.41,1.81-1.83,3.93-3.36,6.28-4.5Zm-8.56,7.2c1.31,.77,2.74,1.45,4.28,2.04-.79,2.88-1.28,6.05-1.4,9.41h-7.07c.33-4.25,1.83-8.18,4.19-11.45Zm0,26.4c-2.36-3.27-3.86-7.2-4.19-11.45h7.07c.13,3.37,.61,6.54,1.4,9.41-1.54,.58-2.97,1.26-4.28,2.04Zm2.28,2.7c.96-.53,2-.99,3.09-1.41,.87,2.24,1.95,4.24,3.18,5.91-2.35-1.13-4.47-2.66-6.28-4.5Zm14.35,6.49c-3.18-.92-6-4.28-7.88-9,2.46-.64,5.12-1.02,7.88-1.13v10.13Zm0-13.63c-3.14,.12-6.18,.56-8.98,1.31-.69-2.55-1.14-5.36-1.26-8.32h10.25v7.01Zm0-10.51h-10.25c.13-2.95,.57-5.77,1.26-8.32,2.81,.75,5.85,1.18,8.98,1.31v7.01Zm0-10.51c-2.76-.12-5.42-.5-7.88-1.13,1.88-4.72,4.7-8.08,7.88-9v10.13Zm17.85-3.64c-.96,.53-2,.99-3.09,1.41-.87-2.24-1.95-4.24-3.18-5.91,2.35,1.13,4.47,2.66,6.28,4.5Zm-14.35-6.49c3.18,.92,6,4.28,7.88,9-2.46,.64-5.12,1.02-7.88,1.13v-10.13Zm0,13.63c3.14-.12,6.18-.56,8.98-1.31,.69,2.55,1.14,5.36,1.26,8.32h-10.25v-7.01Zm0,10.51h10.25c-.13,2.95-.57,5.77-1.26,8.32-2.81-.75-5.85-1.18-8.98-1.31v-7.01Zm0,20.64v-10.13c2.76,.12,5.42,.5,7.88,1.13-1.88,4.72-4.7,8.08-7.88,9Zm8.07-1.99c1.24-1.68,2.31-3.67,3.18-5.91,1.09,.42,2.14,.88,3.09,1.41-1.81,1.83-3.93,3.36-6.28,4.5Zm8.56-7.2c-1.31-.77-2.74-1.45-4.28-2.04,.79-2.88,1.28-6.05,1.4-9.41h7.07c-.33,4.25-1.83,8.18-4.19,11.45Zm4.19-14.95h-7.07c-.13-3.37-.61-6.54-1.4-9.41,1.54-.58,2.97-1.26,4.28-2.04,2.36,3.27,3.86,7.2,4.19,11.45Z"/><path d="M17.5,28.26c.19,0,.37-.03,.55-.09l15-5c.58-.19,1.01-.67,1.15-1.26,.14-.59-.04-1.21-.47-1.64l-3.19-3.19c5.88-3.48,12.55-5.33,19.45-5.33,21.09,0,38.25,17.16,38.25,38.25,0,3.71-.53,7.36-1.57,10.86-.28,.93,.25,1.9,1.18,2.18,.17,.05,.33,.07,.5,.07,.75,0,1.45-.49,1.68-1.25,1.14-3.82,1.71-7.81,1.71-11.86,0-23.02-18.73-41.75-41.75-41.75-7.83,0-15.41,2.17-22.01,6.27l-4.25-4.25c-.43-.43-1.05-.61-1.64-.47-.59,.14-1.07,.57-1.26,1.15l-5,15c-.21,.63-.05,1.32,.42,1.79,.33,.33,.78,.51,1.24,.51Zm5.76-13.51l6,6-8.99,3,3-8.99Z"/><text x="0" y="115" fill="#000000" font-size="5px" font-weight="bold" font-family="'Helvetica Neue', Helvetica, Arial-Unicode, Arial, Sans-serif">Created by Lars Meiertoberens</text><text x="0" y="120" fill="#000000" font-size="5px" font-weight="bold" font-family="'Helvetica Neue', Helvetica, Arial-Unicode, Arial, Sans-serif">from the Noun Project</text></svg>