<svg xmlns="http://www.w3.org/2000/svg" xmlns:xlink="http://www.w3.org/1999/xlink" version="1.1" x="0px" y="0px" viewBox="0 0 60 75" style="enable-background:new 0 0 60 60;" xml:space="preserve"><path d="M53.3701172,18.2504883h-6.3710938c-0.6712036,0-1.2480469,0.407959-1.4971924,0.9888306  c-0.8088379-0.1730347-1.9102783-0.5088501-3.0633545-0.8618774c-1.8225708-0.5588379-3.9179077-1.1980591-6.0570679-1.6130981  c-0.7369385-1.5507813-2.9675293-3.1310425-8.9995728-3.1310425c-2.6777344,0-5.9042969,1.3330078-8.75,2.5087891  c-1.5880737,0.6557617-3.1009521,1.277771-4.1845093,1.5239868C14.1782837,17.1363525,13.6339111,16.769043,13,16.769043H6.6289063  C5.7304688,16.769043,5,17.4995117,5,18.3979492v15.8525391c0,0.8984375,0.7304688,1.6289063,1.6289063,1.6289063H13  c0.0615845,0,0.1200562-0.0114746,0.1798706-0.0181885l3.7371216,3.9625244  c1.4941406,1.5830078,3.2382813,2.8847656,5.1855469,3.8671875l4.7324219,2.3867188  c0.3837891,0.1943359,0.7958984,0.2890625,1.2050781,0.2890625c0.6367188,0,1.2646484-0.2294922,1.765625-0.6738281  c0.4544678-0.4020996,0.7422485-0.9471436,0.8469238-1.5317383l2.1140137,1.0200195  c0.3876953,0.1875,0.8017578,0.2773438,1.2119141,0.2773438c0.796875,0,1.5791016-0.3398438,2.1240234-0.9716797  c0.4729614-0.5490723,0.6939087-1.2532349,0.6564331-1.9685669c0.1859131,0.0301514,0.3721924,0.0564575,0.5574341,0.0564575  c1.1748047,0,2.3027344-0.5957031,2.9638672-1.6552734c0.2901001-0.4673462,0.4483643-0.9859009,0.4987183-1.5176392  c0.5389404,0.2844238,1.1181641,0.4307251,1.6936646,0.4307251c1.0429688,0,2.0673828-0.4541016,2.7841797-1.3144531  c0.3685913-0.4421997,0.6088257-0.9645996,0.7354126-1.5148315c0.2780151,0.2209473,0.6248779,0.3585815,1.0067749,0.3585815  h6.3710938C54.2685547,37.3618164,55,36.6303711,55,35.7319336V19.8793945  C55,18.980957,54.2685547,18.2504883,53.3701172,18.2504883z M12.6289063,33.8793945H7V18.769043h5.6289063V33.8793945z   M43.7197266,37.237793c-0.5224609,0.6259766-1.40625,0.7714844-2.1025391,0.3515625l-8.4326172-5.1191406  c-0.4716797-0.2871094-1.0869141-0.1367188-1.3730469,0.3359375c-0.2871094,0.4716797-0.1367188,1.0869141,0.3359375,1.3730469  l3.2785645,1.9905396c0.0003052,0.0001831,0.0004272,0.0004883,0.0007324,0.0006714l2.6591797,1.6142578  c0.3447266,0.2099609,0.5869141,0.5419922,0.6806641,0.9355469c0.0947266,0.3935547,0.0283203,0.7988281-0.1845703,1.1416016  c-0.3945313,0.6337891-1.1767578,0.8847656-1.8662109,0.5869141l-3.4768066-1.4865112l-3.3200684-1.9783325  c-0.4746094-0.2832031-1.0878906-0.1269531-1.3710938,0.3476563c-0.2822266,0.4746094-0.1269531,1.0878906,0.3476563,1.3710938  l5.4941406,3.2734375c0.2783203,0.1660156,0.3574219,0.421875,0.3798828,0.5585938s0.0283203,0.4033203-0.1826172,0.6464844  c-0.2353516,0.2734375-0.6240234,0.3554688-0.9511719,0.1992188l-4.9823608-2.4039917l-1.5674438-0.8919067  c-0.4765625-0.2734375-1.0898438-0.1064453-1.3632813,0.375c-0.2734375,0.4794922-0.1054688,1.0898438,0.375,1.3632813  l2.2695313,1.2919922c0.1894531,0.1074219,0.3115234,0.2939453,0.3339844,0.5117188  c0.0224609,0.2167969-0.0576172,0.4248047-0.2216797,0.5693359c-0.2060547,0.1826172-0.4970703,0.2177734-0.7441406,0.0966797  l-4.7324219-2.3867188c-1.7382813-0.8779297-3.296875-2.0400391-4.6308594-3.4550781l-3.7642822-3.991333  c0.0089722-0.0690918,0.0211182-0.1373291,0.0211182-0.2088623V19.6670532  c1.3103027-0.2539673,2.9378052-0.921814,4.7666016-1.6773071c2.6738281-1.1044922,5.7050781-2.3564453,7.9863281-2.3564453  c2.3012085,0,4.135376,0.2564087,5.4023438,0.7103882c-0.1625366-0.0048828-0.3268433-0.0189819-0.4882813-0.0189819  c-5.5449219,0-15.2382813,4.0537109-15.6474609,4.2255859c-0.3710938,0.15625-0.6123047,0.5195313-0.6123047,0.921875  c0,2.0107422,1.3574219,3.7978516,3.3017578,4.3447266c2.3554688,0.6621094,5.8154297,1.0322266,9.2167969-0.7988281  l14.8125,9.8134766c0.3925781,0.2597656,0.6464844,0.6582031,0.7138672,1.1240234  C44.1494141,36.4213867,44.0214844,36.8764648,43.7197266,37.237793z M45.3701172,34.039856  c-0.2489624-0.3361206-0.5420532-0.6408081-0.8974609-0.8762817l-15.328125-10.1542969  c-0.3261719-0.2148438-0.7451172-0.2226563-1.0751953-0.0185547c-2.9619141,1.8164063-6.0878906,1.4921875-8.1904297,0.9003906  c-0.8720703-0.2451172-1.5332031-0.9365234-1.7587891-1.7802734c2.3134766-0.9228516,9.8378906-3.7861328,14.1757813-3.7861328  c3.1455078,0,6.7001953,1.0898438,9.5566406,1.9648438c1.4012451,0.4290771,2.5807495,0.7862549,3.5175781,0.9584961V34.039856z   M53,35.3618164h-5.6298828V20.2504883H53V35.3618164z"/><text x="0" y="75" fill="#000000" font-size="5px" font-weight="bold" font-family="'Helvetica Neue', Helvetica, Arial-Unicode, Arial, Sans-serif">Created by Vectorstall</text><text x="0" y="80" fill="#000000" font-size="5px" font-weight="bold" font-family="'Helvetica Neue', Helvetica, Arial-Unicode, Arial, Sans-serif">from the Noun Project</text></svg>