<?xml version="1.0" encoding="UTF-8"?>
<svg version="1.1" xmlns="http://www.w3.org/2000/svg" width="450" height="652" viewbox='0 0 450 652'>
<path d="M0 0 C15.85669431 -0.07044473 31.71334555 -0.12316027 47.570158 -0.15543652 C54.93468366 -0.17082903 62.29911144 -0.19177053 69.66357422 -0.22631836 C76.09115712 -0.25645647 82.51866905 -0.27563014 88.94632065 -0.28226548 C92.34182482 -0.28613698 95.73712616 -0.29507094 99.13256454 -0.31719017 C117.30540017 -0.42236005 134.53968764 0.19997326 152 5.6875 C153.23508301 6.06986816 153.23508301 6.06986816 154.49511719 6.45996094 C192.47610612 18.62608713 225.21263141 45.46369649 243.90625 80.80859375 C256.79573715 106.14870024 262.16168318 131.70072638 262.13803101 160.05175781 C262.14045374 161.55326314 262.14331744 163.05476781 262.14658034 164.55627155 C262.15428123 168.65631492 262.15594994 172.75634149 262.15663147 176.85639119 C262.15848069 181.28878229 262.16609299 185.72116379 262.17311096 190.15354919 C262.1846093 197.82863239 262.19286799 205.50371342 262.19923019 213.17880249 C262.2095886 225.32470126 262.23016089 237.47057298 262.25234985 249.61645508 C262.25982872 253.77833548 262.2672426 257.940216 262.27463722 262.10209656 C262.27648779 263.14209535 262.27833835 264.18209414 262.280245 265.25360805 C262.3011517 277.07938842 262.3199891 288.90517176 262.33789062 300.73095703 C262.33952881 301.81132701 262.34116699 302.89169698 262.34285481 304.00480545 C262.36912128 321.49938628 262.38777699 338.99396921 262.40448253 356.48856139 C262.42193894 374.47995346 262.45082117 392.47130444 262.4893719 410.46266365 C262.5126917 421.54256034 262.52675922 432.62239003 262.52869953 443.70231146 C262.53081842 451.30493737 262.54382664 458.90749679 262.56517886 466.51009279 C262.57713442 470.88713784 262.5844087 475.26405095 262.57846642 479.64111137 C262.53812762 509.67609236 262.53812762 509.67609236 268.625 539 C268.87733398 539.81557373 269.12966797 540.63114746 269.38964844 541.47143555 C281.31441193 578.35525365 307.87948177 608.28939666 342.08300781 626.03173828 C367.18917151 638.71271704 392.29622337 641.45474108 420.06622744 641.50611091 C423.5215439 641.51563114 426.97673769 641.54184277 430.43197632 641.56611633 C436.94434832 641.60941616 443.45669603 641.63818534 449.96916711 641.66143972 C457.39635936 641.68868992 464.82342594 641.73258717 472.25052762 641.77772844 C487.50028666 641.87005019 502.75006951 641.94196811 518 642 C518.02689216 643.47906892 518.04634621 644.95827483 518.0625 646.4375 C518.07410156 647.26121094 518.08570313 648.08492187 518.09765625 648.93359375 C518 651 518 651 517 652 C515.59613937 652.09765322 514.18740414 652.12631672 512.78015137 652.12698364 C511.86937332 652.12980347 510.95859528 652.13262329 510.0202179 652.13552856 C509.01258896 652.13350433 508.00496002 652.1314801 506.96679688 652.12939453 C505.91131149 652.13114685 504.85582611 652.13289917 503.76835632 652.13470459 C500.2518045 652.13913191 496.73530241 652.1361787 493.21875 652.1328125 C490.77225739 652.13348609 488.32576484 652.13445658 485.87927246 652.13571167 C480.73086922 652.13719048 475.58248327 652.13503121 470.43408203 652.13037109 C463.87678368 652.12472164 457.31952669 652.12792095 450.76222992 652.13394356 C445.696876 652.13758546 440.6315316 652.13639322 435.56617737 652.13381577 C433.15198257 652.13315398 430.73778688 652.1339484 428.32359314 652.13629532 C393.01633894 652.16304405 393.01633894 652.16304405 378.0625 649.3125 C377.13993408 649.13879883 376.21736816 648.96509766 375.2668457 648.78613281 C335.51258704 640.89069963 300.4198896 616.34779173 277.87890625 582.84765625 C254.92936718 546.65627787 251.67642103 509.00515169 251.74196196 467.14983404 C251.74655656 462.765995 251.73942442 458.38217226 251.73365784 453.99833679 C251.72508151 446.4238465 251.7232029 438.84937954 251.72560501 431.27488518 C251.72872344 420.30098295 251.71699187 409.32713157 251.70105521 398.35324223 C251.67517372 380.51243623 251.65511293 362.67163019 251.64160156 344.83081055 C251.64079119 343.76615755 251.63998082 342.70150456 251.6391459 341.60458935 C251.62792102 326.49171231 251.62264132 311.37883896 251.61975877 296.26595832 C251.61955478 295.20100213 251.61935079 294.13604594 251.61914062 293.03881836 C251.61894069 291.97517934 251.61874075 290.91154033 251.61853476 289.81566983 C251.61479274 272.034099 251.59565001 254.25258376 251.56404626 236.47104079 C251.54521711 225.5339565 251.5391171 214.59701534 251.54986344 203.65991939 C251.5562162 196.16016279 251.54804796 188.66050838 251.52880932 181.16077416 C251.51820481 176.84614331 251.51384292 172.53176115 251.52728081 168.21713257 C251.636114 130.28895782 245.65392292 93.82796156 220 64 C219.28457031 63.15953125 218.56914062 62.3190625 217.83203125 61.453125 C215.60593057 58.91576422 213.31837285 56.45316197 211 54 C210.20335937 53.12730469 209.40671875 52.25460938 208.5859375 51.35546875 C185.36738065 26.839198 149.99931631 11.21189453 116.27957821 9.89364719 C113.20434202 9.83825734 110.13013592 9.81106274 107.05444336 9.79467773 C105.89245422 9.78477814 104.73046509 9.77487854 103.53326416 9.76467896 C99.71881093 9.73326516 95.90434527 9.70838656 92.08984375 9.68359375 C89.43469336 9.66300682 86.77954833 9.64205543 84.12440491 9.62062073 C77.8667272 9.57089815 71.609025 9.52588437 65.35129982 9.48259836 C58.22181463 9.43305023 51.09237326 9.37819784 43.96293056 9.32291877 C29.30866173 9.20941284 14.65434849 9.10269477 0 9 C0 6.03 0 3.06 0 0 Z " fill="#FFFFFF" transform="translate(0,0)"/>
</svg>
