<svg width="25" height="24" viewBox="0 0 25 24" fill="none" xmlns="http://www.w3.org/2000/svg">
<path d="M6.92994 10.02L9.81994 9.98003L10.0399 10.04C10.6199 10.38 11.1699 10.76 11.6899 11.2C12.0599 11.51 12.4199 11.86 12.7499 12.23C13.7899 10.56 14.8899 9.03003 16.0599 7.62003C17.3399 6.08003 18.6999 4.67003 20.1199 3.39003L20.3999 3.28003H23.5599L22.9199 3.99003C20.9699 6.16003 19.1899 8.41003 17.5899 10.73C15.9799 13.05 14.5499 15.44 13.2699 17.91L12.8699 18.68L12.5099 17.9C11.8399 16.46 11.0299 15.13 10.0699 13.95C9.10994 12.77 7.99994 11.68 6.68994 10.79L6.92994 10.02Z" fill="#9278be"/>
<path d="M12.4501 0.110107C14.2901 0.110107 16.0301 0.530107 17.5901 1.28011C16.9501 1.78011 16.3601 2.27011 15.8101 2.73011C14.7601 2.35011 13.6301 2.14011 12.4501 2.14011C9.7401 2.14011 7.2801 3.24011 5.5001 5.02011C3.7201 6.80011 2.6201 9.25011 2.6201 11.9701C2.6201 14.6901 3.7201 17.1401 5.5001 18.9201C7.2801 20.7001 9.7301 21.8001 12.4501 21.8001C15.1701 21.8001 17.6201 20.7001 19.4001 18.9201C21.1801 17.1401 22.2801 14.6901 22.2801 11.9701C22.2801 11.3301 22.2201 10.6901 22.1001 10.0801C22.6101 9.42011 23.1301 8.75011 23.6701 8.10011C24.0901 9.31011 24.3201 10.6201 24.3201 11.9701C24.3201 15.2401 22.9901 18.2101 20.8501 20.3501C18.7001 22.5001 15.7401 23.8201 12.4701 23.8201C9.2001 23.8201 6.2301 22.4901 4.0901 20.3501C1.9301 18.2001 0.600098 15.2401 0.600098 11.9701C0.600098 8.69011 1.9301 5.73011 4.0701 3.59011C6.2201 1.44011 9.1801 0.110107 12.4501 0.110107Z" fill="#9278be"/>
</svg>
