<svg width="25" height="25" viewBox="0 0 25 25" fill="none" xmlns="http://www.w3.org/2000/svg">
<path fill-rule="evenodd" clip-rule="evenodd" d="M12.37 0.919922C15.65 0.919922 18.63 2.24992 20.78 4.39992C22.93 6.54992 24.26 9.52992 24.26 12.8099C24.26 16.0899 22.93 19.0699 20.78 21.2199C18.63 23.3699 15.65 24.6999 12.37 24.6999C9.08998 24.6999 6.10998 23.3699 3.95998 21.2199C1.80998 19.0699 0.47998 16.0899 0.47998 12.8099C0.47998 9.52992 1.79998 6.54992 3.95998 4.39992C6.11998 2.24992 9.07998 0.919922 12.37 0.919922ZM13.27 14.9599C13.23 15.9899 11.49 15.9899 11.45 14.9599C11.27 13.1999 10.83 9.02992 10.84 7.37992C10.85 6.86992 11.28 6.56992 11.82 6.45992C11.99 6.41992 12.17 6.40992 12.35 6.40992C12.54 6.40992 12.72 6.42992 12.88 6.45992C13.44 6.57992 13.87 6.88992 13.87 7.40992V7.45992L13.27 14.9599ZM12.37 16.7799C13.04 16.7799 13.59 17.3199 13.59 17.9999C13.59 18.6699 13.05 19.2199 12.37 19.2199C11.7 19.2199 11.15 18.6799 11.15 17.9999C11.15 17.3299 11.69 16.7799 12.37 16.7799ZM12.37 2.27992C18.18 2.27992 22.9 6.98992 22.9 12.8099C22.9 18.6299 18.19 23.3399 12.37 23.3399C6.54998 23.3399 1.83998 18.6199 1.83998 12.8099C1.83998 6.99992 6.54998 2.27992 12.37 2.27992Z" fill="#9278be"/>
<path d="M12.3701 24.83C9.1601 24.83 6.1401 23.58 3.8701 21.31C1.6001 19.04 0.350098 16.02 0.350098 12.81C0.350098 9.60004 1.6001 6.58004 3.8701 4.31004C6.1401 2.04004 9.1601 0.790039 12.3701 0.790039C15.5801 0.790039 18.6001 2.04004 20.8701 4.31004C23.1401 6.58004 24.3901 9.60004 24.3901 12.81C24.3901 16.02 23.1401 19.04 20.8701 21.31C18.6001 23.58 15.5801 24.83 12.3701 24.83ZM12.3701 1.04004C9.2301 1.04004 6.2701 2.26004 4.0501 4.49004C1.8201 6.71004 0.600098 9.67004 0.600098 12.81C0.600098 15.95 1.8201 18.91 4.0501 21.13C6.2701 23.35 9.2301 24.58 12.3701 24.58C15.5101 24.58 18.4701 23.36 20.6901 21.13C22.9101 18.91 24.1401 15.95 24.1401 12.81C24.1401 9.67004 22.9201 6.71004 20.6901 4.49004C18.4601 2.27004 15.5101 1.04004 12.3701 1.04004ZM12.3701 23.46C6.5001 23.46 1.7201 18.68 1.7201 12.81C1.7201 6.94004 6.4901 2.16004 12.3701 2.16004C18.2501 2.16004 23.0201 6.94004 23.0201 12.81C23.0201 18.68 18.2401 23.46 12.3701 23.46ZM12.3701 2.41004C6.6401 2.41004 1.9701 7.07004 1.9701 12.81C1.9701 18.54 6.6301 23.21 12.3701 23.21C18.1101 23.21 22.7701 18.55 22.7701 12.81C22.7601 7.08004 18.1001 2.41004 12.3701 2.41004ZM12.3701 19.34C11.6301 19.34 11.0301 18.74 11.0301 18C11.0301 17.26 11.6301 16.66 12.3701 16.66C13.1101 16.66 13.7101 17.26 13.7101 18C13.7101 18.74 13.1101 19.34 12.3701 19.34ZM12.3701 16.91C11.7701 16.91 11.2801 17.4 11.2801 18C11.2801 18.6 11.7701 19.09 12.3701 19.09C12.9701 19.09 13.4601 18.6 13.4601 18C13.4501 17.4 12.9701 16.91 12.3701 16.91ZM12.3701 15.86C11.6801 15.86 11.3501 15.4 11.3301 14.97C11.3101 14.76 11.2801 14.52 11.2601 14.26C11.0501 12.24 10.7101 8.85004 10.7201 7.39004C10.7301 6.87004 11.1301 6.48004 11.8001 6.34004C11.9701 6.30004 12.1601 6.28004 12.3601 6.28004C12.5501 6.28004 12.7501 6.30004 12.9201 6.34004C13.6101 6.49004 14.0201 6.89004 14.0201 7.41004V7.47004L13.4101 14.97C13.3801 15.4 13.0501 15.86 12.3701 15.86ZM12.3501 6.53004C12.1701 6.53004 12.0001 6.55004 11.8501 6.58004C11.5301 6.65004 10.9901 6.84004 10.9801 7.38004C10.9701 8.83004 11.3101 12.2 11.5201 14.22C11.5501 14.49 11.5701 14.73 11.5901 14.94V14.95C11.6001 15.27 11.8501 15.6 12.3701 15.6C12.7301 15.6 13.1301 15.4 13.1501 14.95V14.94L13.7601 7.44004V7.39004C13.7601 6.82004 13.1401 6.63004 12.8701 6.57004C12.7101 6.55004 12.5301 6.53004 12.3501 6.53004Z" fill="#9278be"/>
</svg>
