<svg width="24" height="26" viewBox="0 0 24 26" fill="none" xmlns="http://www.w3.org/2000/svg">
<path d="M22.0601 8.11C21.6301 7.35 21.1201 6.63 20.5401 5.98C20.5301 5.97 20.5201 5.96 20.5101 5.95C20.5001 5.94 20.5001 5.94 20.4901 5.93C20.4901 5.93 20.4901 5.93 20.5001 5.92C20.7401 5.69 20.9701 5.46 21.2001 5.22L21.2601 5.16C21.5001 5.41 21.7501 5.65 21.9801 5.89C22.2401 6.15 22.5601 6.17 22.7901 5.95C22.8901 5.85 22.9501 5.72 22.9501 5.59C22.9501 5.43 22.8801 5.28 22.7401 5.14C21.9901 4.39 21.2401 3.64 20.5101 2.92C20.3801 2.79 20.2401 2.73 20.0901 2.73C19.9501 2.73 19.8301 2.79 19.7201 2.89C19.5001 3.11 19.5201 3.43 19.7601 3.68L19.7801 3.7C20.0101 3.93 20.2501 4.17 20.4901 4.4C20.5001 4.41 20.5001 4.41 20.5001 4.41L20.4901 4.42C20.2901 4.61 20.0301 4.86 19.7801 5.13C19.7601 5.15 19.7501 5.16 19.7501 5.16C19.7401 5.15 19.7301 5.14 19.7001 5.12C19.1201 4.59 18.4801 4.11 17.7701 3.7C16.1701 2.77 14.4201 2.25 12.5601 2.15C12.5101 2.15 12.4901 2.14 12.4801 2.14C12.4801 2.13 12.4801 2.11 12.4801 2.08C12.5001 1.74 12.4901 1.4 12.4801 1.11C12.4801 1.09 12.4801 1.08 12.4801 1.07C12.4901 1.07 12.5001 1.07 12.5201 1.07C12.9201 1.08 13.3301 1.07 13.7201 1.07H13.9901C14.3601 1.07 14.6001 0.86 14.6001 0.54C14.6001 0.4 14.5501 0.27 14.4601 0.17C14.3501 0.06 14.1901 0 14.0001 0C13.5401 0 13.0701 0 12.6101 0H11.9601H11.4101C10.9001 0 10.4001 0 9.89008 0C9.69008 0 9.53008 0.06 9.42008 0.17C9.33008 0.27 9.28008 0.39 9.28008 0.53C9.29008 0.85 9.53008 1.06 9.89008 1.06H10.1001C10.5201 1.06 10.9601 1.06 11.3901 1.06C11.4001 1.06 11.4101 1.06 11.4101 1.06C11.4101 1.06 11.4101 1.07 11.4101 1.08C11.4001 1.38 11.4001 1.73 11.4101 2.09C11.4101 2.11 11.4101 2.13 11.4101 2.14C11.4001 2.14 11.3801 2.15 11.3501 2.15C10.2501 2.2 9.18008 2.41 8.16008 2.77C6.67008 3.31 5.34008 4.1 4.18008 5.14C4.16008 5.15 4.15008 5.16 4.14008 5.17L4.13008 5.18C3.91008 4.95 3.67008 4.71 3.37008 4.43L3.38008 4.42C3.59008 4.21 3.80008 4 4.00008 3.8L4.09008 3.7C4.17008 3.62 4.27008 3.52 4.29008 3.36C4.33008 3.11 4.24008 2.91 4.03008 2.8C3.80008 2.68 3.57008 2.72 3.38008 2.91L3.08008 3.21C2.43008 3.86 1.78008 4.51 1.13008 5.15C1.00008 5.29 0.930084 5.44 0.930084 5.6C0.930084 5.73 0.990084 5.86 1.09008 5.96C1.31008 6.18 1.64008 6.16 1.90008 5.9L1.99008 5.81C2.19008 5.61 2.40008 5.4 2.60008 5.19C2.61008 5.18 2.61008 5.18 2.62008 5.18L2.63008 5.19C2.91008 5.48 3.13008 5.7 3.35008 5.9C3.37008 5.92 3.38008 5.93 3.38008 5.93C3.37008 5.94 3.36008 5.96 3.34008 5.98C0.880084 8.79 -0.059916 12.06 0.530084 15.69C1.00008 18.58 2.56008 21.17 4.94008 22.97C6.97008 24.51 9.40008 25.33 11.8901 25.33C12.3101 25.33 12.7401 25.31 13.1601 25.26C16.5801 24.88 19.3401 23.26 21.3801 20.46C22.6501 18.71 23.3901 16.61 23.5201 14.39C23.6301 12.17 23.1301 10 22.0601 8.11ZM22.4501 13.81C22.4201 19.59 17.7201 24.26 11.9701 24.26C11.9501 24.26 11.9301 24.26 11.9201 24.26C9.10008 24.25 6.45008 23.14 4.47008 21.15C2.49008 19.15 1.41008 16.5 1.42008 13.69C1.43008 10.87 2.55008 8.23 4.55008 6.26C6.56008 4.29 9.23008 3.21 12.0601 3.23C14.8301 3.25 17.4501 4.36 19.4201 6.36C21.3901 8.37 22.4701 11.01 22.4501 13.81Z" fill="#9278be"/>
<path d="M17.0503 6.99003C13.5303 4.38003 8.78032 4.78003 5.76032 7.96003C4.42032 9.36003 3.62032 11.23 3.50032 13.22C3.38032 15.21 3.94032 17.16 5.09032 18.71C5.33032 19.03 5.62032 19.07 5.93032 18.85C6.25032 18.62 6.60032 18.36 7.00032 18.06C7.28032 17.85 7.35032 17.53 7.16032 17.28C6.97032 17.02 6.65032 16.99 6.37032 17.19L6.32032 17.23C6.12032 17.37 5.92032 17.52 5.73032 17.67C5.71032 17.68 5.70032 17.69 5.69032 17.7C5.68032 17.69 5.68032 17.68 5.67032 17.67C5.02032 16.64 4.65032 15.5 4.55032 14.29C4.55032 14.28 4.55032 14.28 4.55032 14.27H4.56032C4.83032 14.28 5.10032 14.28 5.36032 14.27H5.38032C5.57032 14.27 5.73032 14.21 5.84032 14.1C5.93032 14 5.98032 13.87 5.98032 13.72C5.97032 13.4 5.75032 13.2 5.38032 13.2H5.29032C5.05032 13.2 4.80032 13.2 4.56032 13.2H4.55032V13.19C4.56032 13.1 4.57032 13.01 4.58032 12.92C4.59032 12.82 4.60032 12.72 4.62032 12.62C4.83032 11.26 5.40032 10.01 6.31032 8.92003C6.33032 8.90003 6.34032 8.89003 6.34032 8.88003C6.35032 8.89003 6.36032 8.90003 6.38032 8.92003C6.52032 9.08003 6.68032 9.23003 6.83032 9.38003L6.93032 9.48003C7.18032 9.73003 7.50032 9.74003 7.72032 9.52003C7.94032 9.29003 7.93032 8.98003 7.68032 8.73003L7.66032 8.71003C7.50032 8.55003 7.32032 8.36003 7.13032 8.19003C7.11032 8.17003 7.10032 8.16003 7.10032 8.15003C7.10032 8.14003 7.11032 8.13003 7.13032 8.12003C8.36032 7.09003 9.79032 6.50003 11.3903 6.37003H11.4003V6.38003C11.3903 6.65003 11.4003 6.92003 11.4003 7.22003C11.4003 7.40003 11.4603 7.55003 11.5703 7.66003C11.6703 7.76003 11.8003 7.80003 11.9503 7.80003C12.2603 7.79003 12.4703 7.56003 12.4703 7.22003C12.4703 6.95003 12.4803 6.67003 12.4703 6.40003C12.4703 6.39003 12.4703 6.38003 12.4703 6.37003C12.4803 6.37003 12.4903 6.37003 12.5003 6.37003C12.8103 6.40003 13.1503 6.44003 13.4803 6.51003C14.6803 6.77003 15.7903 7.31003 16.7603 8.13003C16.7703 8.14003 16.7803 8.14003 16.7803 8.15003C16.7703 8.16003 16.7703 8.16003 16.7603 8.17003C16.5403 8.38003 16.3403 8.58003 16.1503 8.79003C16.0403 8.90003 15.9903 9.05003 15.9903 9.19003C16.0003 9.33003 16.0603 9.46003 16.1603 9.56003C16.3703 9.76003 16.6803 9.75003 16.9003 9.54003C17.0203 9.43003 17.1303 9.31003 17.2403 9.20003L17.3503 9.09003C17.4203 9.02003 17.4903 8.95003 17.5303 8.93003C17.5603 8.95003 17.6303 9.03003 17.6803 9.10003C18.6303 10.28 19.1803 11.64 19.3103 13.16C19.3103 13.19 19.3103 13.21 19.3103 13.22C19.3003 13.22 19.2803 13.22 19.2503 13.22C19.0303 13.21 18.8003 13.21 18.5803 13.22H18.4703C18.1203 13.23 17.8903 13.44 17.8903 13.76C17.8903 14.08 18.1203 14.29 18.4803 14.29C18.7303 14.29 19.0203 14.3 19.3003 14.29C19.3103 14.29 19.3103 14.29 19.3203 14.29V14.3C19.2203 15.53 18.8403 16.68 18.1903 17.72C17.9803 17.55 17.7503 17.39 17.5303 17.23L17.5103 17.22C17.2303 17.02 16.9003 17.05 16.7203 17.3C16.5303 17.55 16.6003 17.87 16.8803 18.08C17.2503 18.36 17.6103 18.62 17.9503 18.87C18.0803 18.97 18.2103 19.01 18.3303 19.01C18.3503 19.01 18.3803 19.01 18.4003 19C18.5403 18.98 18.6803 18.89 18.7903 18.73C19.8303 17.28 20.3903 15.63 20.4003 13.95C20.4003 11.11 19.1803 8.58003 17.0503 6.99003Z" fill="#9278be"/>
<path d="M14.4903 16.1499C14.5203 16.1499 14.5403 16.1499 14.5703 16.1399C14.7003 16.1199 14.8203 16.0399 14.9103 15.9299C15.0903 15.6799 15.0203 15.3699 14.7403 15.1499C14.3203 14.8399 13.9803 14.5899 13.6703 14.3599C13.6403 14.3399 13.6303 14.3299 13.6303 14.3299C13.6303 14.3299 13.6303 14.3199 13.6403 14.2799C13.9203 13.2999 13.4803 12.4199 12.5203 12.0599C12.4703 12.0399 12.4703 12.0399 12.4703 11.9699C12.4703 11.6299 12.4703 11.2899 12.4703 10.9499V10.5999C12.4703 10.4599 12.4703 10.3099 12.4703 10.1699C12.4703 9.84991 12.4703 9.50991 12.4703 9.18991C12.4703 8.97991 12.3703 8.79991 12.2003 8.69991C12.0403 8.60991 11.8603 8.59991 11.6903 8.68991C11.5003 8.78991 11.4003 8.96991 11.4003 9.22991C11.4003 9.55991 11.4003 9.8999 11.4003 10.2299C11.4003 10.7899 11.4003 11.3799 11.4003 11.9499C11.4003 12.0299 11.4003 12.0499 11.3103 12.0799C10.6203 12.3499 10.2203 12.8699 10.1503 13.5999C10.0903 14.3299 10.3803 14.9099 11.0103 15.2799C11.6303 15.6499 12.2903 15.6299 12.9203 15.2299C12.9803 15.1899 12.9903 15.1899 13.0403 15.2299C13.4003 15.5099 13.7803 15.7899 14.0903 16.0099C14.2303 16.0999 14.3603 16.1499 14.4903 16.1499ZM11.2103 13.7499C11.2003 13.3599 11.5303 13.0299 11.9203 13.0199H11.9303C12.1203 13.0199 12.3003 13.0999 12.4403 13.2299C12.5803 13.3699 12.6603 13.5499 12.6603 13.7399C12.6603 14.1399 12.3303 14.4599 11.9403 14.4599C11.5503 14.4699 11.2203 14.1399 11.2103 13.7499Z" fill="#9278be"/>
<path d="M11.8803 19.3499C11.4203 19.2699 11.0203 19.3699 10.7003 19.6299L10.6903 19.6399C10.6903 19.6399 10.6803 19.6399 10.6803 19.6499C10.2203 19.2599 9.64029 19.2199 9.12029 19.5299C9.12029 19.5299 9.12029 19.5299 9.11029 19.5299C8.99029 19.3599 8.81029 19.3099 8.61029 19.3699C8.47029 19.4199 8.30029 19.5399 8.30029 19.8399C8.30029 20.0699 8.30029 20.3099 8.30029 20.5399V20.7399C8.30029 20.8299 8.30029 20.9199 8.30029 21.0199C8.30029 21.2299 8.30029 21.4499 8.30029 21.6699C8.30029 21.9599 8.49029 22.1599 8.75029 22.1599C8.87029 22.1599 8.98029 22.1199 9.07029 22.0399C9.17029 21.9499 9.22029 21.8099 9.22029 21.6599C9.22029 21.4699 9.22029 21.2799 9.22029 21.0899C9.22029 20.9799 9.22029 20.8699 9.22029 20.7599C9.22029 20.6399 9.23029 20.5399 9.26029 20.4399C9.34029 20.2399 9.52029 20.1399 9.75029 20.1699C9.87029 20.1899 10.0203 20.2399 10.0503 20.5199C10.0603 20.5799 10.0603 20.6499 10.0603 20.7099V20.7299C10.0603 20.8399 10.0603 20.9599 10.0603 21.0699C10.0603 21.2699 10.0603 21.4699 10.0603 21.6699C10.0603 21.9499 10.2603 22.1499 10.5203 22.1499C10.7803 22.1499 10.9703 21.9499 10.9803 21.6599C10.9803 21.6299 10.9803 21.5999 10.9803 21.5699V21.5299V21.2899C10.9803 21.0999 10.9803 20.8999 10.9803 20.7099C10.9803 20.5699 11.0103 20.4499 11.0603 20.3599C11.1503 20.1999 11.3503 20.1199 11.5603 20.1699C11.7303 20.2099 11.8103 20.3199 11.8203 20.5099C11.8303 20.7399 11.8303 20.9699 11.8303 21.1899C11.8303 21.3499 11.8303 21.5099 11.8303 21.6699C11.8303 21.9299 12.0303 22.1399 12.2803 22.1399H12.2903C12.4103 22.1399 12.5303 22.0899 12.6103 22.0099C12.7003 21.9299 12.7403 21.8199 12.7403 21.6999C12.7403 21.5799 12.7403 21.4599 12.7503 21.3399C12.7603 20.9899 12.7703 20.6199 12.7203 20.2599C12.6903 19.7799 12.3703 19.4299 11.8803 19.3499Z" fill="#9278be"/>
<path d="M14.8202 20.4501C14.7102 20.4301 14.6102 20.4001 14.5002 20.3801C14.3902 20.3601 14.2702 20.3401 14.1602 20.3101H14.1502C14.0302 20.2801 14.0302 20.2701 14.0302 20.2501C14.0302 20.2201 14.0402 20.1901 14.1802 20.1601C14.3702 20.1201 14.5702 20.1401 14.8202 20.2201C15.0602 20.2901 15.2902 20.1901 15.3602 19.9601C15.3902 19.8501 15.3902 19.7401 15.3402 19.6501C15.2902 19.5501 15.1902 19.4701 15.0602 19.4301C14.8502 19.3601 14.6302 19.3301 14.3802 19.3301C14.1102 19.3301 13.7602 19.3601 13.4602 19.6001C13.2202 19.7901 13.0902 20.0801 13.1302 20.3701C13.1702 20.6601 13.3502 20.9101 13.6302 21.0301C13.7702 21.0901 13.9202 21.1201 14.0602 21.1401C14.0902 21.1401 14.1102 21.1501 14.1402 21.1501C14.1902 21.1601 14.2302 21.1701 14.2802 21.1701C14.4002 21.1901 14.5102 21.2101 14.6202 21.2501C14.6502 21.2601 14.6502 21.2701 14.6502 21.2701C14.6502 21.2701 14.6502 21.2701 14.6502 21.2801C14.6502 21.3001 14.6502 21.3101 14.6202 21.3201C14.5602 21.3501 14.4902 21.3601 14.3902 21.3701C14.1402 21.3801 13.9102 21.3201 13.7202 21.2501C13.4802 21.1701 13.2602 21.2601 13.1702 21.4801C13.1302 21.5901 13.1302 21.7001 13.1802 21.8001C13.2302 21.9001 13.3102 21.9801 13.4302 22.0201C13.7302 22.1301 14.0102 22.1901 14.2802 22.1901C14.5002 22.1901 14.7202 22.1501 14.9402 22.0801C15.3702 21.9301 15.6002 21.6101 15.5802 21.1901C15.5302 20.8101 15.2902 20.5501 14.8202 20.4501Z" fill="#9278be"/>
</svg>
