<svg width="22" height="25" viewBox="0 0 22 25" fill="none" xmlns="http://www.w3.org/2000/svg">
<path d="M18.3299 11.8099C18.3299 11.6699 18.3299 11.5199 18.3299 11.3699C18.3199 11.0199 18.1199 10.7899 17.7999 10.7799C17.5899 10.7699 17.4599 10.8499 17.3899 10.9199C17.2699 11.0299 17.2099 11.1899 17.2099 11.3999C17.2099 11.5699 17.2099 11.7399 17.2099 11.9099V15.0199C17.2099 17.3299 17.2099 19.6399 17.2099 21.9499C17.2099 22.7599 17.0699 22.9099 16.2799 22.9099C11.6399 22.9099 6.99992 22.9099 2.47992 22.9099C1.66992 22.9099 1.53992 22.7899 1.53992 21.9599C1.53992 16.2899 1.53992 10.5499 1.53992 4.90993C1.53992 4.07993 1.64992 3.97993 2.47992 3.97993C4.27992 3.97993 6.07992 3.97993 7.87992 3.97993C8.81992 3.97993 9.76992 3.97993 10.7099 3.97993H10.7599C10.9399 3.97993 11.1199 3.97993 11.2999 3.96993C11.6099 3.94993 11.7999 3.74993 11.8199 3.45993C11.8299 3.32993 11.7899 3.00993 11.3399 2.91993C11.1799 2.88993 11.0099 2.87993 10.8699 2.87993C10.2099 2.87993 9.54992 2.87993 8.88992 2.87993C6.76992 2.87993 4.57992 2.86993 2.41992 2.87993C1.03992 2.87993 0.419922 3.50993 0.419922 4.88993C0.419922 6.92993 0.419922 8.99993 0.419922 10.9999V13.4199C0.419922 14.2599 0.419922 15.0999 0.419922 15.9399C0.419922 17.9599 0.419922 20.0399 0.419922 22.0999C0.419922 23.3399 1.08992 24.0199 2.28992 24.0199C4.77992 24.0299 7.14992 24.0299 9.43992 24.0299C11.8299 24.0299 14.1299 24.0299 16.3799 24.0199C17.0199 24.0199 17.5199 23.8399 17.8399 23.4999C18.1599 23.1599 18.3299 22.6599 18.3299 22.0099C18.3299 19.4799 18.3299 16.9099 18.3299 14.4199V11.8099Z" fill="#9278be"/>
<path d="M9.3897 8.03003C9.3797 8.03003 9.37969 8.03003 9.36969 8.03003C7.52969 8.03003 6.02969 9.29003 5.77969 11.02C5.52969 12.79 6.19969 14.36 7.69969 15.57C8.20969 15.98 8.7697 16.18 9.3397 16.18C10.0197 16.18 10.6997 15.89 11.3097 15.32C12.0897 14.58 12.6097 13.69 12.8797 12.57C13.1597 11.44 12.9197 10.28 12.2297 9.40003C11.5597 8.54003 10.5197 8.04003 9.3897 8.03003ZM8.40969 14.73C7.61969 14.15 7.1097 13.35 6.8897 12.36L6.8797 12.31C6.8397 12.12 6.83969 12.11 6.89969 12.08L7.03969 12.01C7.67969 11.66 8.28969 11.32 8.90969 11.31C9.24969 11.32 9.4897 11.35 9.7197 11.43C9.9597 11.51 10.1997 11.58 10.4297 11.65C10.6497 11.71 10.8797 11.78 11.0897 11.86C11.2397 11.91 11.4097 11.9 11.5497 11.89C11.7597 11.87 11.8197 11.88 11.8397 11.93C11.9597 12.19 11.8297 12.52 11.6897 12.84C11.6797 12.87 11.6597 12.91 11.6497 12.94C11.2997 13.79 10.8497 14.36 10.2497 14.75C9.58969 15.18 9.00969 15.17 8.40969 14.73ZM11.5397 10.8C11.4997 10.79 11.4597 10.78 11.4297 10.78C11.0397 10.72 10.7197 10.63 10.4397 10.52C9.95969 10.32 9.4897 10.22 9.0097 10.22C8.4197 10.22 7.8297 10.37 7.2197 10.68C7.1397 10.72 7.05969 10.76 6.95969 10.8C7.29969 9.84003 8.05969 9.16003 8.94969 9.04003C10.0897 8.89003 11.1797 9.46003 11.6497 10.47L11.6697 10.52C11.7097 10.59 11.7897 10.76 11.7897 10.83C11.7697 10.84 11.6597 10.82 11.5397 10.8Z" fill="#9278be"/>
<path d="M20.0401 1.97002C19.2701 1.20002 18.2101 0.77002 17.0701 0.77002C15.9301 0.77002 14.8801 1.20002 14.1001 1.97002C13.3201 2.74002 12.8901 3.80002 12.8801 4.94002C12.8701 6.03002 13.3001 7.06002 14.0701 7.84002C14.8601 8.64002 15.9101 9.07002 17.0401 9.07002C19.4301 9.07002 21.2401 7.29002 21.2401 4.94002C21.2301 3.79002 20.8101 2.74002 20.0401 1.97002ZM20.1301 4.94002C20.1301 5.77002 19.8001 6.55002 19.2001 7.14002C18.6101 7.72002 17.8401 8.03002 17.0301 8.03002C16.2101 8.02002 15.4501 7.69002 14.8801 7.10002C14.3001 6.50002 13.9901 5.71002 14.0001 4.87002C14.0001 4.05002 14.3301 3.28002 14.9201 2.71002C15.5001 2.14002 16.2701 1.82002 17.0901 1.82002C17.1001 1.82002 17.1201 1.82002 17.1301 1.82002C18.7601 1.84002 20.1301 3.26002 20.1301 4.94002Z" fill="#9278be"/>
<path d="M2.84979 9.38006C2.84979 9.42006 2.84979 9.47006 2.84979 9.52006C2.83979 9.71006 2.82979 10.1601 3.33979 10.1801C3.34979 10.1801 3.36979 10.1801 3.37979 10.1801C3.52979 10.1801 3.64979 10.1401 3.73979 10.0501C3.88979 9.90006 3.88979 9.69006 3.87979 9.52006C3.87979 9.48006 3.87979 9.43006 3.87979 9.40006V9.33006C3.88979 9.08006 3.90979 8.82006 3.86979 8.57006C3.85979 8.39006 3.86979 8.27006 3.92979 8.21006C3.96979 8.17006 4.07979 8.12006 4.35979 8.15006C4.64979 8.18006 4.93979 8.17006 5.21979 8.16006C5.34979 8.16006 5.47978 8.15006 5.60978 8.15006C5.82978 8.15006 6.32979 8.15006 6.34979 7.62006C6.34979 7.45006 6.29978 7.30006 6.19978 7.20006C6.02978 7.02006 5.75979 7.03006 5.57979 7.03006C5.33979 7.03006 5.09979 7.03006 4.85979 7.03006H4.63979C4.39979 7.03006 4.19979 7.03006 4.02979 7.03006C3.48979 7.02006 3.21979 7.02006 3.03979 7.20006C2.83979 7.39006 2.84979 7.68006 2.84979 8.30006C2.84979 8.44006 2.84979 8.60006 2.84979 8.78006C2.84979 8.83006 2.84979 8.88006 2.84979 8.93006C2.83979 9.08006 2.83979 9.23006 2.84979 9.38006Z" fill="#9278be"/>
<path d="M8.45997 19.9701C8.23997 20.2001 8.11997 20.4901 8.12997 20.7901C8.14997 21.4301 8.71997 21.9901 9.36997 21.9901C9.66997 21.9901 9.94997 21.8601 10.18 21.6401C10.42 21.4001 10.55 21.0801 10.55 20.7501C10.55 20.4001 10.43 20.1101 10.22 19.9001C9.99997 19.6901 9.69997 19.5801 9.33997 19.5801C9.00997 19.5901 8.68997 19.7301 8.45997 19.9701Z" fill="#9278be"/>
<path d="M12.3501 16.5001C12.3501 16.6501 12.4001 16.7701 12.4901 16.8501C12.6501 17.0001 12.8801 17.0001 13.0701 16.9901C13.1101 16.9901 13.1501 16.9901 13.1801 16.9901C13.3001 16.9901 13.4301 16.9901 13.5501 16.9901C13.6601 16.9901 13.7701 16.9901 13.8701 16.9901C13.9501 16.9901 14.0401 16.9901 14.1201 16.9901C14.4801 16.9901 14.8401 16.9901 15.2001 16.9901C15.6401 16.9901 15.8601 16.8101 15.8701 16.4601C15.8801 15.8501 15.8801 15.2001 15.8701 14.3601C15.8701 14.0501 15.6601 13.8401 15.3601 13.8301H15.3501C15.0601 13.8301 14.8701 14.0301 14.8601 14.3601V14.4401C14.8501 14.8201 14.8401 15.2101 14.8601 15.6001C14.8701 15.7401 14.8501 15.8401 14.8001 15.8901C14.7501 15.9401 14.6201 15.9501 14.5301 15.9401C14.0801 15.9201 13.6301 15.9301 13.2101 15.9401C13.1701 15.9401 13.1301 15.9401 13.0801 15.9401C12.8901 15.9301 12.6501 15.9301 12.4901 16.0901C12.3901 16.2001 12.3501 16.3301 12.3501 16.5001Z" fill="#9278be"/>
<path d="M3.09984 16.7401C3.33984 16.9801 3.71984 16.9901 4.45984 16.9901C4.49984 16.9901 4.52984 16.9901 4.56984 16.9901C4.71984 16.9901 4.85984 16.9901 5.00984 16.9901C5.24984 16.9901 5.48984 16.9901 5.72984 16.9901C5.90984 16.9901 6.31984 16.9901 6.35984 16.5301C6.36984 16.3601 6.33984 16.2301 6.23984 16.1301C6.10984 15.9801 5.90984 15.9601 5.72984 15.9601C5.61984 15.9601 5.50984 15.9601 5.39984 15.9501C5.04984 15.9401 4.68984 15.9301 4.33984 15.9601C4.13984 15.9701 3.99984 15.9501 3.93984 15.8901C3.86984 15.8201 3.86984 15.6601 3.88984 15.5401C3.91984 15.2901 3.90984 15.0301 3.89984 14.7901C3.89984 14.7401 3.89984 14.6901 3.88984 14.6501C3.88984 14.6201 3.88984 14.5901 3.88984 14.5501C3.88984 14.3701 3.88984 14.1401 3.72984 13.9801C3.63984 13.8901 3.49984 13.8501 3.33984 13.8501C2.82984 13.8701 2.83984 14.3301 2.84984 14.5201C2.84984 14.5701 2.84984 14.6201 2.84984 14.6601C2.83984 14.8001 2.83984 14.9401 2.83984 15.0801C2.83984 15.1401 2.83984 15.2001 2.83984 15.2501C2.84984 16.0801 2.84984 16.4901 3.09984 16.7401Z" fill="#9278be"/>
<path d="M18.7401 3.43004C18.5901 3.41004 18.4401 3.46004 18.2901 3.59004C18.0901 3.76004 17.9101 3.94004 17.7301 4.12004C17.6201 4.23004 17.5101 4.34004 17.4001 4.44004C17.3201 4.52004 17.2401 4.60004 17.1601 4.68004C16.9601 4.89004 16.7701 5.08004 16.5501 5.20004C16.4801 5.15004 16.3601 5.02004 16.2701 4.93004C16.1701 4.83004 16.0701 4.72004 15.9801 4.64004C15.6101 4.33004 15.3501 4.46004 15.2001 4.62004C14.9701 4.86004 14.9801 5.16004 15.2201 5.41004C15.3301 5.53004 15.4501 5.64004 15.5601 5.75004C15.7301 5.92004 15.9101 6.09004 16.0701 6.27004C16.2401 6.45004 16.4001 6.54004 16.5901 6.55004H16.6001C16.8501 6.55004 17.0401 6.39004 17.1601 6.26004C17.5401 5.87004 17.9401 5.48004 18.3201 5.10004C18.5101 4.91004 18.7001 4.72004 18.8901 4.54004L18.9101 4.52004C19.0301 4.40004 19.1901 4.24004 19.2101 3.92004V3.86004L19.1701 3.80004C19.0901 3.67004 18.9701 3.46004 18.7401 3.43004Z" fill="#9278be"/>
</svg>
