<svg width="22" height="26" viewBox="0 0 22 26" fill="none" xmlns="http://www.w3.org/2000/svg">
<path d="M11.9003 9.09011C12.2903 8.17011 12.6603 7.31011 13.0203 6.45011C13.8503 4.48011 14.6703 2.52011 15.4903 0.550107C15.3203 0.440107 15.1303 0.460107 14.9503 0.460107C13.4203 0.460107 11.8903 0.460107 10.3603 0.460107C10.2003 0.460107 10.0103 0.520107 9.88033 0.360107C9.70033 0.430107 9.73033 0.610107 9.69033 0.750107C8.77033 3.74011 7.85033 6.73011 6.93033 9.73011C6.67033 10.5901 6.41033 11.4501 6.13033 12.3501C7.67033 12.3501 9.14033 12.3501 10.6803 12.3501C9.05033 16.6701 7.44033 20.9401 5.84033 25.2201C5.87033 25.2301 5.90033 25.2501 5.93033 25.2601C9.69033 19.9001 13.4503 14.5401 17.2803 9.09011C15.4103 9.09011 13.6803 9.09011 11.9003 9.09011Z" fill="#9278be"/>
<path d="M16.0301 3.91012C15.6301 3.67012 15.4801 3.74012 15.3601 4.15012C15.2901 4.39012 15.2001 4.63012 15.0701 4.84012C14.8801 5.15012 15.0001 5.28012 15.2701 5.44012C19.0301 7.73012 20.5101 12.5001 18.7301 16.5301C17.2601 19.8401 14.0201 21.8801 10.3301 21.8101C10.1401 21.8101 9.93008 21.7201 9.78008 21.9501C9.48008 22.4001 9.16008 22.8401 8.83008 23.3201C8.95008 23.3501 9.02008 23.3801 9.09008 23.3901C13.9901 24.1301 18.8501 21.2301 20.5301 16.5701C22.2501 11.8001 20.3501 6.50012 16.0301 3.91012Z" fill="#9278be"/>
<path d="M5.92016 20.4501C3.12016 18.5901 1.65016 15.9701 1.79016 12.6001C1.94016 9.0901 3.71016 6.5601 6.82016 4.9601C6.96016 4.8901 7.10016 4.8401 7.15016 4.6601C7.32016 4.0801 7.49016 3.5001 7.69016 2.8501C7.55016 2.8801 7.49016 2.8901 7.43016 2.9101C3.23016 4.2301 0.240158 8.0801 0.110158 12.5001C-0.0198415 16.6501 1.76016 19.8201 5.28016 22.0401C5.53016 22.2001 5.64016 22.1901 5.73016 21.8901C5.83016 21.5601 5.95016 21.2401 6.09016 20.9301C6.20016 20.6901 6.13016 20.5901 5.92016 20.4501Z" fill="#9278be"/>
<path d="M10.3204 0.410078C11.8704 0.410078 13.4304 0.410078 14.9804 0.420078C15.1504 0.420078 15.3604 0.340078 15.4804 0.550078C15.6504 0.330078 15.4904 0.330078 15.3304 0.330078C13.5104 0.340078 11.6804 0.350078 9.86035 0.360078C10.0104 0.460078 10.1704 0.410078 10.3204 0.410078Z" fill="#9278be"/>
<path d="M10.3501 0.460107C11.8801 0.460107 13.4101 0.460107 14.9401 0.460107C15.1301 0.460107 15.3201 0.440107 15.4801 0.550107C15.3601 0.340107 15.1501 0.420107 14.9801 0.420107C13.4301 0.410107 11.8701 0.420107 10.3201 0.410107C10.1701 0.410107 10.0101 0.460107 9.87012 0.360107C10.0001 0.520107 10.1901 0.460107 10.3501 0.460107Z" fill="#9278be"/>
</svg>
