<svg width="22" height="25" viewBox="0 0 22 25" fill="none" xmlns="http://www.w3.org/2000/svg">
<path d="M21.0901 15.4701L21.1701 15.3001L21.0901 15.3301V13.7101L21.0401 13.7001C21.0401 13.6901 21.0401 13.6901 21.0401 13.6801C21.0401 13.6601 21.0401 13.6401 21.0401 13.6201C20.8201 11.8801 20.1601 10.3801 19.0601 9.1601C18.3401 8.3601 17.5501 7.5901 16.8001 6.8501C16.4701 6.5201 16.1201 6.1801 15.7801 5.8501C15.6601 5.7301 15.6601 5.7101 15.7801 5.5901C16.6001 4.7701 17.0301 3.7501 17.0601 2.5801C17.0601 2.3901 17.0201 2.2601 16.9301 2.1601C16.8401 2.0601 16.7001 2.0101 16.5001 2.0101H16.4301C16.2101 2.0101 15.9801 2.0001 15.7601 2.0101C15.6801 2.0101 15.6501 1.9901 15.6101 1.9201C15.4801 1.6301 15.3601 1.4001 15.2401 1.2001C14.9801 0.740097 14.5301 0.450097 14.0201 0.400097C13.5101 0.350097 13.0101 0.560097 12.6701 0.960097C12.5801 1.0701 12.5001 1.1801 12.4201 1.2801C12.3901 1.3301 12.3501 1.3701 12.3201 1.4201C12.1801 1.6001 12.0701 1.6901 11.9601 1.7001C11.8601 1.7101 11.7501 1.6601 11.6001 1.5401C11.1801 1.1901 10.7601 1.1401 10.2901 1.3801C10.2801 1.3901 10.2701 1.3901 10.2501 1.3901C10.2301 1.3901 10.2201 1.4001 10.2001 1.4001C9.60013 1.6201 9.22013 2.1601 9.22013 2.7901C9.22013 3.8201 9.53013 4.7501 10.1501 5.5601C10.2401 5.6801 10.2401 5.7001 10.1401 5.8001C9.90013 6.0401 9.65013 6.2801 9.40013 6.5201C8.64013 7.2601 7.86013 8.0301 7.13013 8.8101C4.92013 11.1801 4.27013 13.9701 5.20013 17.1101C5.27013 17.3501 5.31013 17.4901 5.42013 17.5401C5.45013 17.5501 5.48013 17.5601 5.52013 17.5601C5.61013 17.5601 5.72013 17.5201 5.89013 17.4501C5.90013 17.4501 5.91013 17.4401 5.92013 17.4401C5.94013 17.4301 5.97013 17.4201 5.99013 17.4201C6.06013 17.4101 6.15013 17.3801 6.20013 17.3001C6.25013 17.2101 6.23013 17.1001 6.19013 16.9901C5.29013 14.1901 5.82013 11.6901 7.78013 9.5601C8.50013 8.7801 9.27013 8.0201 10.0101 7.2901C10.3501 6.9601 10.7001 6.6101 11.0401 6.2701C11.1001 6.2101 11.1301 6.1901 11.1901 6.1901C11.3601 6.2001 11.5301 6.1901 11.7201 6.1901C11.7401 6.1901 11.7501 6.1901 11.7701 6.1901C11.4701 6.5401 11.3001 6.9101 11.2601 7.3101C11.2501 7.5001 11.2501 7.6501 11.2601 7.8001C11.2601 7.9401 11.2601 8.0801 11.2501 8.2201C11.2401 8.3301 11.2401 8.4601 11.3201 8.5501C11.4101 8.6401 11.5401 8.6401 11.6601 8.6401H11.7001C11.9501 8.6301 12.0901 8.6201 12.1701 8.5301C12.2501 8.4401 12.2401 8.2901 12.2201 8.0501C12.1601 7.3901 12.3801 6.8701 12.8901 6.4801C12.9001 6.4701 12.9201 6.4601 12.9301 6.4401C12.9301 6.4401 12.9401 6.4301 12.9501 6.4201L12.9601 6.4301C13.3901 6.8201 13.7401 7.2001 13.6701 7.7901C13.6601 7.8901 13.6601 7.9801 13.6601 8.0801C13.6601 8.1201 13.6601 8.1601 13.6601 8.2001C13.6601 8.5901 13.7001 8.6301 14.0901 8.6301C14.5901 8.6301 14.6301 8.5901 14.6501 8.1201V8.0801C14.6701 7.4701 14.6301 6.7901 14.1301 6.2101C14.1401 6.2101 14.1601 6.2101 14.1701 6.2101C14.3201 6.2101 14.4701 6.2101 14.6201 6.2101C14.7201 6.2101 14.7801 6.2301 14.8601 6.3101C15.2701 6.7301 15.6901 7.1401 16.1101 7.5601C16.7401 8.1901 17.3901 8.8401 18.0201 9.4901C19.2101 10.7001 19.9001 12.1901 20.0701 13.9001C20.2201 15.4201 19.8901 16.9301 19.1001 18.2601C18.3101 19.5901 17.1501 20.6001 15.7301 21.2001C15.6801 21.2201 15.6301 21.2301 15.5701 21.2501C15.4301 21.2901 15.2701 21.3301 15.2001 21.4701C15.1401 21.6101 15.2001 21.7501 15.2601 21.8801C15.2901 21.9401 15.3201 22.0101 15.3301 22.0701C15.3401 22.1401 15.3701 22.2301 15.4501 22.2801C15.4801 22.3001 15.5201 22.3001 15.5501 22.3001C15.6101 22.3001 15.6701 22.2801 15.7201 22.2601C18.4301 21.2001 20.1701 19.2201 20.8801 16.3901C20.9101 16.2701 20.9301 16.1501 20.9401 16.0301C20.9601 15.8501 20.9901 15.6801 21.0601 15.5201L21.0801 15.5101V15.4701H21.0901ZM11.0301 5.1001C10.5101 4.4401 10.2401 3.6901 10.2201 2.8801C10.2201 2.7101 10.2801 2.5501 10.4001 2.4301C10.5201 2.3101 10.6701 2.2401 10.8501 2.2401C10.9201 2.2401 10.9801 2.2901 11.0501 2.3401C11.0801 2.3701 11.1101 2.3901 11.1501 2.4101C11.5701 2.6801 11.9901 2.7401 12.4201 2.5801C12.6601 2.4901 12.8501 2.3501 13.0101 2.1701C13.0901 2.0701 13.1701 1.9601 13.2401 1.8601C13.2701 1.8101 13.3101 1.7701 13.3401 1.7301C13.5301 1.4801 13.7501 1.3501 13.9601 1.3701C14.1701 1.3901 14.3501 1.5501 14.4901 1.8201C14.5301 1.8901 14.5601 1.9601 14.6001 2.0401C14.6901 2.2201 14.7901 2.4101 14.8801 2.6101C15.0001 2.8901 15.2001 3.0101 15.4901 2.9901C15.6401 2.9801 15.7801 2.9801 15.9401 2.9901C15.9801 2.9901 16.0101 2.9901 16.0501 2.9901C15.9401 3.7201 15.6201 4.3601 15.0601 4.9501C14.8501 5.1701 14.6601 5.2501 14.3701 5.2401C13.9101 5.2301 13.4501 5.2301 12.9901 5.2301C12.4701 5.2301 11.9501 5.2301 11.4401 5.2401H11.3301C11.1801 5.2401 11.1101 5.2101 11.0301 5.1001Z" fill="#9278be"/>
<path d="M14.35 22.3802L14.19 22.2902C12.85 21.5602 11.46 20.8102 10.09 20.0802C10.02 20.0402 10 20.0202 10 20.0102C10 20.0002 10 19.9702 10.04 19.9002C10.21 19.5802 10.38 19.2402 10.54 18.9102L10.57 18.8402C10.88 18.2102 10.77 17.5302 10.29 17.0702C9.81002 16.6102 9.13002 16.5402 8.52002 16.8902C7.71002 17.3402 6.75002 17.8702 5.78002 18.4202C5.65002 18.4902 5.52002 18.5302 5.38002 18.5302C4.25002 18.5302 3.11002 18.5302 2.00002 18.5302H1.00002C0.44002 18.5302 0.40002 18.5702 0.39002 19.0902V19.1302C0.39002 19.2602 0.40002 19.3702 0.47002 19.4402C0.55002 19.5202 0.67002 19.5302 0.77002 19.5302C1.53002 19.5202 2.31002 19.5202 3.06002 19.5202C3.72002 19.5202 4.40002 19.5202 5.07002 19.5102C5.17002 19.5102 5.20002 19.5202 5.21002 19.5302C5.23002 19.5502 5.23002 19.6302 5.23002 19.6802C5.22002 21.0002 5.22002 22.3302 5.23002 23.6302C5.23002 23.7202 5.22002 23.7402 5.21002 23.7502C5.20002 23.7602 5.17002 23.7702 5.08002 23.7702C4.02002 23.7602 2.93002 23.7602 1.89002 23.7702H1.28002C1.21002 23.7702 1.13002 23.7602 1.04002 23.7502C0.82002 23.7302 0.60002 23.7102 0.46002 23.8302C0.32002 23.9602 0.340019 24.1802 0.360019 24.3902C0.370019 24.4702 0.380019 24.5602 0.370019 24.6302L0.27002 24.7502H0.370019L0.360019 24.9202L0.51002 24.7502H13.97V24.8602L14.09 24.7502H14.14V24.7002C14.68 24.5302 14.99 24.1602 15.04 23.6102C15.09 23.0802 14.85 22.6602 14.35 22.3802ZM6.19002 19.4802C6.19002 19.3502 6.22002 19.3002 6.34002 19.2302C7.11002 18.8102 7.89002 18.3802 8.64002 17.9502L8.95002 17.7802C9.07002 17.7102 9.18002 17.6702 9.29002 17.6702C9.34002 17.6702 9.38002 17.6802 9.43002 17.6902C9.57002 17.7402 9.67002 17.8302 9.72002 17.9502C9.78002 18.0802 9.77002 18.2402 9.69002 18.3902C9.53002 18.7102 9.37002 19.0402 9.21002 19.3602C9.12002 19.5402 9.03002 19.7202 8.94002 19.8902C8.74002 20.2902 8.81002 20.5002 9.20002 20.7202C10.06 21.1902 10.93 21.6502 11.79 22.1202L13.79 23.2002L13.82 23.2202C13.91 23.2702 13.99 23.3102 14.03 23.4002C14.07 23.4802 14.06 23.5702 14.02 23.6402C13.97 23.7202 13.88 23.7702 13.76 23.7702C13.5 23.7802 13.23 23.7702 12.97 23.7702C12.86 23.7702 12.74 23.7702 12.63 23.7702H10.01C9.71002 23.7702 9.40002 23.7702 9.10002 23.7702C8.19002 23.7702 7.24002 23.7702 6.31002 23.7802C6.22002 23.7802 6.20002 23.7702 6.19002 23.7602C6.18002 23.7502 6.17002 23.7202 6.17002 23.6302C6.19002 22.3002 6.19002 20.9002 6.19002 19.4802Z" fill="#9278be"/>
<path d="M11.3498 19.6702C11.8598 19.8302 12.3798 19.9102 12.9298 19.9302H12.9398H12.9498C13.0098 19.9202 13.0798 19.9202 13.1398 19.9102C13.2698 19.9002 13.4098 19.8902 13.5498 19.8702C14.7998 19.7302 15.9598 19.1502 16.8198 18.2302C17.6798 17.3202 18.1998 16.1302 18.2598 14.8802C18.3398 13.3102 17.7398 11.8002 16.6098 10.7202C15.4798 9.64021 13.9298 9.12021 12.3598 9.29021C10.8298 9.45021 9.44981 10.2802 8.55981 11.5602C7.67981 12.8402 7.38981 14.4202 7.77981 15.9102C7.84981 16.1602 7.87981 16.2802 7.97981 16.3402C8.07981 16.3902 8.19981 16.3502 8.43981 16.2702C8.45981 16.2602 8.47981 16.2602 8.49981 16.2502C8.52981 16.2402 8.55981 16.2202 8.58981 16.2202C8.68981 16.2002 8.74981 16.1702 8.78981 16.1102C8.83981 16.0302 8.81981 15.9302 8.78981 15.8502C8.56981 15.1702 8.53981 14.4502 8.68981 13.7102C8.89981 12.6902 9.47981 11.7802 10.3298 11.1302C11.1798 10.4802 12.2098 10.1702 13.2098 10.2602C14.3198 10.3602 15.3498 10.8402 16.0898 11.6202C16.8298 12.4002 17.2498 13.4302 17.2698 14.5102C17.2898 15.8402 16.7198 17.0902 15.6998 17.9302C14.6698 18.7802 13.3298 19.1102 11.9998 18.8402C11.9498 18.8302 11.8998 18.8102 11.8398 18.7802C11.6998 18.7202 11.5298 18.6602 11.3998 18.7702C11.2998 18.8602 11.2598 19.0002 11.2198 19.1402C11.1998 19.2102 11.1898 19.2702 11.1598 19.3302C11.1298 19.3902 11.1098 19.4702 11.1398 19.5402C11.1998 19.6202 11.2698 19.6502 11.3498 19.6702Z" fill="#9278be"/>
<path d="M10.7602 16.2702C11.4502 16.6802 12.0602 17.0502 12.6302 17.3902C12.7402 17.4602 12.8502 17.4902 12.9602 17.4902C13.0602 17.4902 13.1602 17.4602 13.2602 17.4002C13.8302 17.0502 14.4502 16.6802 15.1502 16.2602C15.3602 16.1402 15.4602 15.9502 15.4502 15.7102C15.4402 15.4502 15.4502 15.1902 15.4502 14.9302C15.4502 14.8202 15.4502 14.7102 15.4502 14.6002C15.4502 14.4902 15.4502 14.3802 15.4502 14.2702C15.4502 14.0202 15.4502 13.7502 15.4502 13.5002C15.4602 13.2302 15.3502 13.0402 15.1202 12.9102L14.8602 12.7602C14.3802 12.4802 13.8802 12.1902 13.4002 11.8802C13.0702 11.6702 12.8002 11.6702 12.4802 11.8802L12.4402 11.9102C12.0002 12.2102 11.9902 12.2602 12.2502 12.7202L12.2602 12.7402C12.3202 12.8402 12.3902 12.9502 12.5002 12.9602C12.5802 12.9702 12.6702 12.9402 12.7602 12.8502C12.8702 12.7502 12.9702 12.7502 13.1402 12.8602C13.5302 13.1102 13.9302 13.3502 14.3302 13.5802L14.3702 13.6002C14.4402 13.6402 14.4702 13.6802 14.4602 13.7602C14.4502 14.3102 14.4502 14.8702 14.4602 15.4202C14.4602 15.5002 14.4402 15.5302 14.3702 15.5802C13.9402 15.8302 13.5102 16.0902 13.0302 16.3802C12.9602 16.4302 12.9202 16.4302 12.8502 16.3802C12.4602 16.1402 12.0402 15.8902 11.4902 15.5702C11.4202 15.5302 11.4102 15.5002 11.4102 15.4302C11.4202 14.9402 11.4202 14.4002 11.4102 13.7402C11.4102 13.6802 11.4202 13.6502 11.4802 13.6102C11.5202 13.5802 11.5802 13.5502 11.6502 13.5302C11.8002 13.4602 11.9702 13.3902 11.9802 13.2102C11.9902 13.0602 11.8902 12.9302 11.7902 12.7902C11.7502 12.7402 11.7102 12.6902 11.6802 12.6402L11.6702 12.6302C11.6402 12.5602 11.6002 12.5202 11.5502 12.5002C11.4802 12.4802 11.4002 12.5102 11.3502 12.5502C11.1502 12.6802 10.9402 12.8002 10.7302 12.9202C10.5302 13.0402 10.4302 13.2102 10.4302 13.4502C10.4402 14.2902 10.4402 15.0302 10.4302 15.7202C10.4402 15.9702 10.5402 16.1402 10.7602 16.2702Z" fill="#9278be"/>
</svg>
