<svg width="25" height="16" viewBox="0 0 25 16" fill="none" xmlns="http://www.w3.org/2000/svg">
<path d="M16.5499 5.41011C16.7599 5.57011 16.9099 5.60011 17.1499 5.46011C18.3699 4.75011 19.5999 4.06011 20.8799 3.34011C17.2499 -0.0598938 11.2199 -0.919894 6.52992 2.03011C6.25992 2.20011 6.28992 2.35011 6.44992 2.58011C6.76992 3.06011 7.06992 3.56011 7.35992 4.07011C7.52992 4.38011 7.69992 4.42011 8.04992 4.29011C11.0699 3.21011 13.9299 3.42011 16.5499 5.41011Z" fill="#9278be"/>
<path d="M19.4 10.6001C19.26 10.7601 19.26 10.9301 19.26 11.1201C19.27 12.0901 19.05 13.0201 18.59 13.8701C18.44 14.1501 18.47 14.2501 18.77 14.3401C20.48 14.8601 22.18 15.3901 23.88 15.9401C24.18 16.0401 24.29 15.9601 24.37 15.6801C24.59 14.9401 24.74 14.1901 24.82 13.4301C25.07 10.9301 24.57 8.58008 23.3 6.33008C21.98 7.78008 20.69 9.19008 19.4 10.6001Z" fill="#9278be"/>
<path d="M22.09 4.84003C21.91 4.62003 21.71 4.86003 21.55 4.95003C19.53 6.06003 17.51 7.17003 15.49 8.29003C14.09 9.06003 12.68 9.82003 11.3 10.62C10.38 11.15 10.02 12.13 10.31 13.08C10.6 14.03 11.42 14.65 12.39 14.65C13.08 14.67 13.63 14.38 14.09 13.87C16.69 11.03 19.29 8.19003 21.88 5.34003C22.01 5.21003 22.27 5.06003 22.09 4.84003ZM12.4 13.72C11.77 13.73 11.24 13.22 11.24 12.59C11.24 11.98 11.73 11.5 12.36 11.49C12.99 11.48 13.46 11.95 13.48 12.58C13.49 13.2 13.01 13.71 12.4 13.72Z" fill="#9278be"/>
<path d="M4.04981 4.20017C4.04981 4.19017 4.01981 4.18017 4.00981 4.17017C1.00981 7.16017 0.139814 12.0102 1.32981 15.6202C1.37981 15.7602 1.39981 15.9902 1.61981 15.9402C1.89981 15.8802 1.76981 15.6602 1.74981 15.4802C1.39981 12.4402 2.03981 9.67017 3.96981 7.23017C4.33981 6.76017 5.12981 6.43017 5.03981 5.84017C4.93981 5.26017 4.39981 4.74017 4.04981 4.20017Z" fill="#9278be"/>
</svg>
