<svg width="27" height="21" viewBox="0 0 27 21" fill="none" xmlns="http://www.w3.org/2000/svg">
<path fill-rule="evenodd" clip-rule="evenodd" d="M5.96004 0.55C9.09004 0.55 11.63 3.09 11.63 6.22C11.63 9.35 9.10004 11.9 5.96004 11.9C2.82004 11.9 0.290039 9.36 0.290039 6.23C0.290039 3.1 2.83004 0.55 5.96004 0.55ZM15.67 0C17.09 0 18.44 0.28 19.67 0.79C20.95 1.32 22.1 2.1 23.07 3.06C24.03 4.02 24.81 5.18 25.34 6.46C25.85 7.69 26.13 9.05 26.13 10.46C26.13 11.88 25.85 13.23 25.34 14.46C24.81 15.74 24.03 16.89 23.07 17.86C22.11 18.82 20.95 19.6 19.67 20.13C18.44 20.64 17.08 20.92 15.67 20.92C14.25 20.92 12.9 20.64 11.67 20.13C10.39 19.6 9.24004 18.82 8.27004 17.86C7.30004 16.89 6.53004 15.74 6.00004 14.46C5.84004 14.06 5.70004 13.65 5.58004 13.24C5.80004 13.26 6.02004 13.27 6.25004 13.27C6.68004 13.27 7.09004 13.23 7.50004 13.16C7.57004 13.36 7.64004 13.56 7.72004 13.76C8.16004 14.81 8.79004 15.76 9.59004 16.55C10.38 17.34 11.33 17.98 12.38 18.42C13.39 18.84 14.5 19.07 15.67 19.07C16.84 19.07 17.95 18.84 18.96 18.42C20.01 17.98 20.96 17.35 21.75 16.55C22.54 15.76 23.18 14.81 23.62 13.76C24.04 12.75 24.27 11.64 24.27 10.47C24.27 9.3 24.04 8.19 23.62 7.18C23.18 6.13 22.55 5.18 21.75 4.39C20.96 3.6 20.01 2.96 18.96 2.52C17.95 2.1 16.84 1.87 15.67 1.87C14.5 1.87 13.39 2.1 12.38 2.52C12.29 2.56 12.2 2.6 12.11 2.64C11.77 2.1 11.35 1.61 10.87 1.18C11.13 1.05 11.4 0.92 11.67 0.81C12.9 0.28 14.25 0 15.67 0ZM14.46 5.49C14.46 5.23 14.57 5 14.73 4.83C14.9 4.66 15.13 4.56 15.39 4.56C15.65 4.56 15.88 4.66 16.05 4.83C16.22 5 16.32 5.23 16.32 5.49V10.37L19.97 12.53C20.19 12.66 20.34 12.87 20.39 13.1C20.45 13.33 20.42 13.58 20.29 13.8C20.16 14.02 19.95 14.17 19.72 14.22C19.49 14.28 19.24 14.25 19.02 14.12L14.94 11.7C14.8 11.62 14.68 11.51 14.6 11.37C14.51 11.23 14.46 11.06 14.46 10.89V5.49ZM5.96004 2.88L9.01004 6.64H7.12004V8.64H4.81004V6.64H2.92004L5.96004 2.88Z" fill="#9278be"/>
</svg>
